ChironHeiHK.glyphspackage
{
glyphname = exclam;
kernLeft = exclam;
kernRight = exclam;
layers = (
{
layerId = m01;
shapes = (
{
closed = 1;
nodes = (
(130,176,o),
(140,176,o),
(148,176,o),
(148,176,q),
(148,176,o),
(149,228,o),
(149,312,o),
(151,414,o),
(152,516,o),
(152,600,o),
(153,652,o),
(153,652,q),
(153,652,o),
(153,666,o),
(153,686,o),
(153,705,o),
(153,719,o),
(153,719,q),
(153,719,o),
(146,719,o),
(136,719,o),
(125,719,o),
(118,719,o),
(118,719,q),
(118,719,o),
(118,705,o),
(118,686,o),
(118,666,o),
(118,652,o),
(118,652,q),
(118,652,o),
(118,600,o),
(119,516,o),
(120,414,o),
(121,312,o),
(122,228,o),
(122,176,o),
(122,176,q),
(122,176,o)
);
},
{
closed = 1;
nodes = (
(174,-2,o),
(174,17,qs),
(174,39,o),
(150,61,o),
(135,61,qs),
(121,61,o),
(96,39,o),
(96,17,qs),
(96,-2,o),
(121,-24,o),
(135,-24,qs),
(150,-24,o)
);
}
);
width = 270;
},
{
layerId = "2B284C16-EA14-4761-8C41-B0F9D88443D8";
shapes = (
{
closed = 1;
nodes = (
(175,259,o),
(223,259,o),
(259,259,o),
(259,259,q),
(259,259,o),
(262,294,o),
(266,353,o),
(272,423,o),
(277,492,o),
(281,551,o),
(284,586,o),
(284,586,q),
(284,586,o),
(285,618,o),
(287,666,o),
(289,714,o),
(290,746,o),
(290,746,q),
(290,746,o),
(253,746,o),
(198,746,o),
(144,746,o),
(107,746,o),
(107,746,q),
(107,746,o),
(108,714,o),
(110,666,o),
(113,618,o),
(114,586,o),
(114,586,q),
(114,586,o),
(117,551,o),
(121,492,o),
(127,423,o),
(132,353,o),
(136,294,o),
(139,259,o),
(139,259,q),
(139,259,o)
);
},
{
closed = 1;
nodes = (
(306,41,o),
(306,87,qs),
(306,135,o),
(246,200,o),
(199,200,qs),
(153,200,o),
(92,135,o),
(92,87,qs),
(92,41,o),
(153,-25,o),
(199,-25,qs),
(246,-25,o)
);
}
);
width = 398;
}
);
note = uni0021;
unicode = 33;
}
{
glyphname = quotedbl;
kernLeft = quotesingle;
kernRight = quotesingle;
layers = (
{
layerId = m01;
shapes = (
{
closed = 1;
nodes = (
(106,527,o),
(118,527,o),
(126,527,o),
(126,527,q),
(126,527,o),
(127,558,o),
(130,604,o),
(132,649,o),
(133,680,o),
(133,680,q),
(133,680,o),
(133,693,o),
(133,713,o),
(133,732,o),
(133,745,o),
(133,745,q),
(133,745,o),
(125,745,o),
(113,745,o),
(100,745,o),
(92,745,o),
(92,745,q),
(92,745,o),
(92,732,o),
(92,713,o),
(92,693,o),
(92,680,o),
(92,680,q),
(92,680,o),
(93,649,o),
(95,604,o),
(97,558,o),
(98,527,o),
(98,527,q),
(98,527,o)
);
},
{
closed = 1;
nodes = (
(246,527,o),
(258,527,o),
(266,527,o),
(266,527,q),
(266,527,o),
(267,558,o),
(270,604,o),
(272,649,o),
(273,680,o),
(273,680,q),
(273,680,o),
(273,693,o),
(273,713,o),
(273,732,o),
(273,745,o),
(273,745,q),
(273,745,o),
(265,745,o),
(252,745,o),
(239,745,o),
(231,745,o),
(231,745,q),
(231,745,o),
(231,732,o),
(231,713,o),
(231,693,o),
(231,680,o),
(231,680,q),
(231,680,o),
(232,649,o),
(235,604,o),
(237,558,o),
(238,527,o),
(238,527,q),
(238,527,o)
);
}
);
width = 366;
},
{
layerId = "2B284C16-EA14-4761-8C41-B0F9D88443D8";
shapes = (
{
closed = 1;
nodes = (
(157,369,o),
(196,369,o),
(226,369,o),
(226,369,q),
(226,369,o),
(233,416,o),
(244,486,o),
(255,556,o),
(262,603,o),
(262,603,q),
(262,603,o),
(263,635,o),
(265,683,o),
(267,731,o),
(268,763,o),
(268,763,q),
(268,763,o),
(231.2,763,o),
(176,763,o),
(122,763,o),
(85,763,o),
(85,763,q),
(85,763,o),
(86,731,o),
(88,683,o),
(89,635,o),
(90,603,o),
(90,603,q),
(90,603,o),
(97,556,o),
(109,486,o),
(120,416,o),
(127,369,o),
(127,369,q),
(127,369,o)
);
},
{
closed = 1;
nodes = (
(439,369,o),
(479,369,o),
(509,369,o),
(509,369,q),
(509,369,o),
(516,416,o),
(527,486,o),
(538,556,o),
(545,603,o),
(545,603,q),
(545,603,o),
(546,635,o),
(548,683,o),
(549,731,o),
(550,763,o),
(550,763,q),
(550,763,o),
(513,763,o),
(458.5,763,o),
(404,763,o),
(367,763,o),
(367,763,q),
(367,763,o),
(368,731,o),
(370,683,o),
(372,635,o),
(373,603,o),
(373,603,q),
(373,603,o),
(380,556,o),
(391,486,o),
(402,416,o),
(409,369,o),
(409,369,q),
(409,369,o)
);
}
);
width = 635;
}
);
note = uni0022;
unicode = 34;
}
{
glyphname = numbersign;
layers = (
{
layerId = m01;
shapes = (
{
closed = 1;
nodes = (
(111,-11,o),
(124,-11,o),
(133,-11,o),
(133,-11,q),
(133,-11,o),
(139,37,o),
(147,108,o),
(155,179,o),
(161,227,o),
(161,227,q),
(161,227,o),
(195,227,o),
(246,227,o),
(297,227,o),
(331,227,o),
(331,227,q),
(331,227,o),
(325,179,o),
(317,108,o),
(309,37,o),
(303,-11,o),
(303,-11,q),
(303,-11,o),
(312,-11,o),
(325,-11,o),
(334,-11,o),
(334,-11,q),
(334,-11,o),
(340,37,o),
(348,108,o),
(356,179,o),
(362,227,o),
(362,227,q),
(362,227,o),
(392,227,o),
(430,227,o),
(460,227,o),
(460,227,q),
(460,227,o),
(460,236,o),
(460,248,o),
(460,257,o),
(460,257,q),
(460,257,o),
(432,257,o),
(394,257,o),
(366,257,o),
(366,257,q),
(366,257,o),
(371,296,o),
(378,354,o),
(385,412,o),
(390,451,o),
(390,451,q),
(390,451,o),
(418,451,o),
(454,451,o),
(482,451,o),
(482,451,q),
(482,451,o),
(482,460,o),
(482,473,o),
(482,482,o),
(482,482,q),
(482,482,o),
(455,482,o),
(419,482,o),
(392,482,o),
(392,482,q),
(392,482,o),
(398,526,o),
(407,590,o),
(415,654,o),
(421,698,o),
(421,698,q),
(421,698,o),
(412,698,o),
(399,698,o),
(390,698,o),
(390,698,q),
(390,698,o),
(384,654,o),
(376,590,o),
(368,526,o),
(362,482,o),
(362,482,q),
(362,482,o),
(328,482,o),
(277,482,o),
(226,482,o),
(192,482,o),
(192,482,q),
(192,482,o),
(198,526,o),
(206,590,o),
(214,654,o),
(220,698,o),
(220,698,q),
(220,698,o),
(211,698,o),
(199,698,o),
(190,698,o),
(190,698,q),
(190,698,o),
(184,654,o),
(176,590,o),
(167,526,o),
(161,482,o),
(161,482,q),
(161,482,o),
(131,482,o),
(91,482,o),
(61,482,o),
(61,482,q),
(61,482,o),
(61,473,o),
(61,460,o),
(61,451,o),
(61,451,q),
(61,451,o),
(91,451,o),
(129,451,o),
(159,451,o),
(159,451,q),
(159,451,o),
(154,412,o),
(147,354,o),
(140,296,o),
(135,257,o),
(135,257,q),
(135,257,o),
(106,257,o),
(68,257,o),
(39,257,o),
(39,257,q),
(39,257,o),
(39,248,o),
(39,236,o),
(39,227,o),
(39,227,q),
(39,227,o),
(67,227,o),
(103,227,o),
(131,227,o),
(131,227,q),
(131,227,o),
(125,179,o),
(116,108,o),
(108,37,o),
(102,-11,o),
(102,-11,q),
(102,-11,o)
);
},
{
closed = 1;
nodes = (
(171,296,o),
(178,354,o),
(185,412,o),
(190,451,o),
(190,451,q),
(190,451,o),
(224,451,o),
(275,451,o),
(326,451,o),
(360,451,o),
(360,451,q),
(360,451,o),
(355,412,o),
(348,354,o),
(341,296,o),
(336,257,o),
(336,257,q),
(336,257,o),
(302,257,o),
(251,257,o),
(200,257,o),
(166,257,o),
(166,257,q),
(166,257,o)
);
}
);
width = 514;
},
{
layerId = "2B284C16-EA14-4761-8C41-B0F9D88443D8";
shapes = (
{
closed = 1;
nodes = (
(127,-11,o),
(170,-11,o),
(202,-11,o),
(202,-11,q),
(202,-11,o),
(207,31,o),
(215,92,o),
(221.857,153.454,o),
(227,195,o),
(227,195,q),
(227,195,o),
(248.2,195,o),
(280,195,o),
(311.8,195,o),
(333,195,o),
(333,195,q),
(333,195,o),
(328,153,o),
(320.5,92,o),
(313,31,o),
(308,-11,o),
(308,-11,q),
(308,-11,o),
(341,-11,o),
(383,-11,o),
(416,-11,o),
(416,-11,q),
(416,-11,o),
(421,31,o),
(429,92,o),
(435.857,153.454,o),
(441,195,o),
(441,195,q),
(441,195,o),
(474.061,195,o),
(515.939,195,o),
(549,195,o),
(549,195,q),
(549,195,o),
(549,230.1,o),
(549,276.9,o),
(549,312,o),
(549,312,q),
(549,312,o),
(520,312,o),
(483,312,o),
(454,312,o),
(454,312,q),
(454,312,o),
(456.917,334.716,o),
(461,368.5,o),
(465.083,402.284,o),
(468,425,o),
(468,425,q),
(468,425,o),
(499,425,o),
(541,425,o),
(572,425,o),
(572,425,q),
(572,425,o),
(572,461,o),
(572,507,o),
(572,543,o),
(572,543,q),
(572,543,o),
(545,543,o),
(511,543,o),
(484,543,o),
(484,543,q),
(484,543,o),
(488,579.667,o),
(494,633,o),
(499.714,686.926,o),
(504,724,o),
(504,724,q),
(504,724,o),
(472,724,o),
(431,724,o),
(399,724,o),
(399,724,q),
(399,724,o),
(394.286,687.333,o),
(388,634,o),
(381.143,580.074,o),
(376,543,o),
(376,543,q),
(376,543,o),
(354,543,o),
(323,543,o),
(290.6,543,o),
(269,543,o),
(269,543,q),
(269,543,o),
(273,580,o),
(280,633,o),
(285.714,686.926,o),
(290,724,o),
(290,724,q),
(290,724,o),
(258.5,724,o),
(216.5,724,o),
(185,724,o),
(185,724,q),
(185,724,o),
(181,687,o),
(174,634,o),
(167.4,580.074,o),
(163,543,o),
(163,543,q),
(163,543,o),
(132.4,543,o),
(91.6,543,o),
(61,543,o),
(61,543,q),
(61,543,o),
(61,507,o),
(61,461,o),
(61,425,o),
(61,425,q),
(61,425,o),
(87.327,425,o),
(120.673,425,o),
(147,425,o),
(147,425,q),
(147,425,o),
(144.083,402.284,o),
(140,368.5,o),
(135.917,334.716,o),
(133,312,o),
(133,312,q),
(133,312,o),
(104.302,312,o),
(66.698,312,o),
(38,312,o),
(38,312,q),
(38,312,o),
(38,277,o),
(38,230.143,o),
(38,195,o),
(38,195,q),
(38,195,o),
(62.957,195,o),
(95.043,195,o),
(120,195,o),
(120,195,q),
(120,195,o),
(115.2,153.454,o),
(108,92,o),
(100,31,o),
(95,-11,o),
(95,-11,q),
(95,-11,o)
);
},
{
closed = 1;
nodes = (
(242.917,334.716,o),
(247,368.5,o),
(251.083,402.284,o),
(254,425,o),
(254,425,q),
(254,425,o),
(275.6,425,o),
(308,425,o),
(340.4,425,o),
(362,425,o),
(362,425,q),
(362,425,o),
(359.083,402.485,o),
(355,369,o),
(350.435,334.918,o),
(347.174,312,o),
(347.174,312,q),
(347.174,312,o),
(325,312,o),
(294,312,o),
(261.6,312,o),
(240,312,o),
(240,312,q),
(240,312,o)
);
}
);
width = 605;
}
);
note = uni0023;
unicode = 35;
}
{
glyphname = dollar;
layers = (
{
layerId = m01;
shapes = (
{
closed = 1;
nodes = (
(399,21,o),
(449,104,o),
(449,161,qs),
(449,214,o),
(403,287,o),
(331,341,o),
(249,385,o),
(177,432,o),
(131,493,o),
(131,536,qs),
(131,592,o),
(205,669,o),
(264,669,qs),
(317,669,o),
(383,635,o),
(408,604,q),
(408,604,o),
(414,609,o),
(423,616,o),
(429,621,o),
(429,621,q),
(404,656,o),
(325,700,o),
(266,700,qs),
(218,700,o),
(141,657,o),
(96,582,o),
(96,534,qs),
(96,485,o),
(142,417,o),
(214,366,o),
(296,322,o),
(368,273,o),
(414,207,o),
(414,159,qs),
(414,92,o),
(338,6,o),
(266,6,qs),
(207,6,o),
(116,52,o),
(87,83,q),
(87,83,o),
(83,79,o),
(78,73,o),
(72,67,o),
(68,63,o),
(68,63,q),
(97,26,o),
(202,-24,o),
(266,-24,qs),
(316,-24,o)
);
},
{
closed = 1;
nodes = (
(259,-131,o),
(271,-131,o),
(281,-131,o),
(281,-131,q),
(281,-131,o),
(281,-109,o),
(281,-75,o),
(281,-42,o),
(281,-20,o),
(281,-20,q),
(281,-20,o),
(271,-20,o),
(259,-20,o),
(249,-20,o),
(249,-20,q),
(249,-20,o),
(249,-42,o),
(249,-75,o),
(249,-109,o),
(249,-131,o),
(249,-131,q),
(249,-131,o)
);
},
{
closed = 1;
nodes = (
(259,680,o),
(271,680,o),
(281,680,o),
(281,680,q),
(281,680,o),
(281,706,o),
(281,744,o),
(281,781,o),
(281,807,o),
(281,807,q),
(281,807,o),
(271,807,o),
(259,807,o),
(249,807,o),
(249,807,q),
(249,807,o),
(249,781,o),
(249,744,o),
(249,706,o),
(249,680,o),
(249,680,q),
(249,680,o)
);
}
);
width = 514;
},
{
layerId = "2B284C16-EA14-4761-8C41-B0F9D88443D8";
shapes = (
{
closed = 1;
nodes = (
(480,35,o),
(537,139,o),
(537,205,qs),
(537,257,o),
(495,330,o),
(428,381,o),
(352,418,o),
(285,450,o),
(243,485,o),
(243,508,qs),
(243,542,o),
(281,572,o),
(315,572,qs),
(349,572,o),
(411,545,o),
(440,519,q),
(440,519,o),
(467,550,o),
(504,589,o),
(531,620,o),
(531,620,q),
(490,664,o),
(384,719,o),
(310,719,qs),
(235,719,o),
(126,665,o),
(68,567,o),
(68,500,qs),
(68,450,o),
(111,379,o),
(178,328,o),
(253,289,o),
(320,254,o),
(363,215,o),
(363,190,qs),
(363,157,o),
(323,122,o),
(277.931,122,qs),
(241,122,o),
(166,148,o),
(122,182,q),
(122,182,o),
(106,159,o),
(82,126,o),
(57,93,o),
(41,70,o),
(41,70,q),
(90,21,o),
(215,-25,o),
(278,-25,qs),
(365,-25,o)
);
},
{
closed = 1;
nodes = (
(277,-135,o),
(324,-135,o),
(360,-135,o),
(360,-135,q),
(360,-135,o),
(360,-97,o),
(360,-42,o),
(360,13,o),
(360,51,o),
(360,51,q),
(360,51,o),
(324,51,o),
(277,51,o),
(241,51,o),
(241,51,q),
(241,51,o),
(241,13,o),
(241,-42,o),
(241,-97,o),
(241,-135,o),
(241,-135,q),
(241,-135,o)
);
},
{
closed = 1;
nodes = (
(277,664,o),
(324,664,o),
(360,664,o),
(360,664,q),
(360,664,o),
(360,697.719,o),
(360,747,o),
(360,795.746,o),
(360,830,o),
(360,830,q),
(360,830,o),
(324,830,o),
(277,830,o),
(241,830,o),
(241,830,q),
(241,830,o),
(241,795.746,o),
(241,747,o),
(241,697.719,o),
(241,664,o),
(241,664,q),
(241,664,o)
);
}
);
width = 605;
}
);
note = uni0024;
unicode = 36;
}
{
glyphname = ampersand;
layers = (
{
layerId = m01;
shapes = (
{
closed = 1;
nodes = (
(406,35,o),
(447,81,qs),
(494,137,o),
(564,282,o),
(586,362,q),
(586,362,o),
(580,362,o),
(570,362,o),
(560,362,o),
(554,362,o),
(554,362,q),
(532,285,o),
(469,153,o),
(423,100,qs),
(387,60,o),
(297,6,o),
(246,6,qs),
(201,6,o),
(123,47,o),
(76,122,o),
(76,172,qs),
(76,217,o),
(122,290,o),
(195,353,o),
(278,414,o),
(351,477,o),
(397,550,o),
(397,595,qs),
(397,649,o),
(339,721,o),
(283,721,qs),
(242,721,o),
(178,681,o),
(142,611,o),
(142,565,qs),
(142,505,o),
(191,374,o),
(274,243,o),
(375,125,o),
(427,78,qs),
(471,39,o),
(552,-11,o),
(586,-24,q),
(586,-24,o),
(589,-18,o),
(593,-9,o),
(597,0,o),
(600,6,o),
(600,6,q),
(566,20,o),
(488,69,o),
(447,105,qs),
(398,147,o),
(301,259,o),
(222,384,o),
(174,510,o),
(174,567,qs),
(174,617,o),
(231,691,o),
(281,691,qs),
(312,691,o),
(348,662,o),
(364,617,o),
(364,593,qs),
(364,552,o),
(317,483,o),
(244,423,o),
(161,363,o),
(88,297,o),
(41,219,o),
(41,170,qs),
(41,110,o),
(97,23,o),
(190,-24,o),
(244,-24,qs),
(308,-24,o)
);
}
);
width = 613;
},
{
layerId = "2B284C16-EA14-4761-8C41-B0F9D88443D8";
shapes = (
{
closed = 1;
nodes = (
(522,47,o),
(574,105,qs),
(636,175,o),
(722,328,o),
(745,409,q),
(745,409,o),
(711,409,o),
(662,409,o),
(613,409,o),
(579,409,o),
(579,409,q),
(560,339,o),
(492,228,o),
(449,186,qs),
(413,154,o),
(336,114,o),
(299,114,qs),
(271,114,o),
(225,132,o),
(199,169,o),
(199,198,qs),
(199,230,o),
(244,283,o),
(315,331,o),
(394,382,o),
(465,441,o),
(510,517,o),
(510,566,qs),
(510,644,o),
(407,738,o),
(321,738,qs),
(257,738,o),
(164,684,o),
(113,595,o),
(113,542,qs),
(113,488,o),
(169,363,o),
(268,236,o),
(396,120,o),
(467,75,qs),
(526,37,o),
(646,-14,o),
(704,-25,q),
(704,-25,o),
(713,5,o),
(726,49,o),
(738,92,o),
(747,122,o),
(747,122,q),
(720,128,o),
(624,161,o),
(576,189,qs),
(520,224,o),
(409,309,o),
(318,403,o),
(264,498,o),
(264,542,qs),
(264,579,o),
(301,618,o),
(325,618,qs),
(341,618,o),
(361,606,o),
(371,583,o),
(371,566,qs),
(371,531,o),
(321,481,o),
(243,439,o),
(154,393,o),
(76,333,o),
(26,248,o),
(26,187,qs),
(26,123,o),
(88,28,o),
(205,-25,o),
(287,-25,qs),
(386,-25,o)
);
}
);
width = 770;
}
);
note = uni0026;
unicode = 38;
}
{
glyphname = quotesingle;
kernLeft = quotesingle;
kernRight = quotesingle;
layers = (
{
layerId = m01;
shapes = (
{
closed = 1;
nodes = (
(106,527,o),
(118,527,o),
(126,527,o),
(126,527,q),
(126,527,o),
(127,558,o),
(130,604,o),
(132,649,o),
(133,680,o),
(133,680,q),
(133,680,o),
(133,693,o),
(133,713,o),
(133,732,o),
(133,745,o),
(133,745,q),
(133,745,o),
(125,745,o),
(113,745,o),
(100,745,o),
(92,745,o),
(92,745,q),
(92,745,o),
(92,732,o),
(92,713,o),
(92,693,o),
(92,680,o),
(92,680,q),
(92,680,o),
(93,649,o),
(95,604,o),
(97,558,o),
(98,527,o),
(98,527,q),
(98,527,o)
);
}
);
width = 227;
},
{
layerId = "2B284C16-EA14-4761-8C41-B0F9D88443D8";
shapes = (
{
closed = 1;
nodes = (
(157,369,o),
(196,369,o),
(226,369,o),
(226,369,q),
(226,369,o),
(233,416,o),
(244,486,o),
(255,556,o),
(262,603,o),
(262,603,q),
(262,603,o),
(263,635,o),
(265,683,o),
(267,731,o),
(268,763,o),
(268,763,q),
(268,763,o),
(231.2,763,o),
(176,763,o),
(122,763,o),
(85,763,o),
(85,763,q),
(85,763,o),
(86,731,o),
(88,683,o),
(89,635,o),
(90,603,o),
(90,603,q),
(90,603,o),
(97,556,o),
(109,486,o),
(120,416,o),
(127,369,o),
(127,369,q),
(127,369,o)
);
}
);
width = 353;
}
);
note = uni0027;
unicode = 39;
}
{
glyphname = parenleft;
kernRight = parenleft;
layers = (
{
layerId = m01;
shapes = (
{
closed = 1;
nodes = (
(248,-197,o),
(256,-192,o),
(262,-188,o),
(262,-188,q),
(196,-84,o),
(129,162,o),
(129,292,qs),
(129,423,o),
(196,669,o),
(262,772,q),
(262,772,o),
(256,776,o),
(248,781,o),
(242,785,o),
(242,785,q),
(175,677,o),
(98,436,o),
(98,292,qs),
(98,148,o),
(175,-93,o),
(242,-201,q),
(242,-201,o)
);
}
);
width = 294;
},
{
layerId = "2B284C16-EA14-4761-8C41-B0F9D88443D8";
shapes = (
{
closed = 1;
nodes = (
(262,-200,o),
(308,-181,o),
(342,-167,o),
(342,-167,q),
(281,-57,o),
(226,185,o),
(226,303,qs),
(226,422,o),
(281,663,o),
(342,773,q),
(342,773,o),
(308,788,o),
(262,807,o),
(228,821,o),
(228,821,q),
(157,704,o),
(79,452,o),
(79,303,qs),
(79,154,o),
(157,-97,o),
(228,-214,q),
(228,-214,o)
);
}
);
width = 400;
}
);
note = uni0028;
unicode = 40;
}
{
glyphname = parenright;
kernLeft = parenright;
layers = (
{
layerId = m01;
shapes = (
{
closed = 1;
nodes = (
(196,148,o),
(196,292,qs),
(196,436,o),
(120,677,o),
(52,785,q),
(52,785,o),
(46,781,o),
(39,776,o),
(33,772,o),
(33,772,q),
(98,669,o),
(166,423,o),
(166,292,qs),
(166,162,o),
(98,-84,o),
(33,-188,q),
(33,-188,o),
(39,-192,o),
(46,-197,o),
(52,-201,o),
(52,-201,q),
(120,-93,o)
);
}
);
width = 294;
},
{
layerId = "2B284C16-EA14-4761-8C41-B0F9D88443D8";
shapes = (
{
closed = 1;
nodes = (
(321,154,o),
(321,303,qs),
(321,452,o),
(243,704,o),
(172,821,q),
(172,821,o),
(137,807,o),
(92,788,o),
(57,773,o),
(57,773,q),
(119,663,o),
(174,422,o),
(174,303,qs),
(174,185,o),
(119,-57,o),
(57,-167,q),
(57,-167,o),
(92,-181,o),
(137,-200,o),
(172,-214,o),
(172,-214,q),
(243,-97,o)
);
}
);
width = 400;
}
);
note = uni0029;
unicode = 41;
}
{
glyphname = asterisk;
kernLeft = asterisk;
layers = (
{
layerId = m01;
shapes = (
{
closed = 1;
nodes = (
(156,528,o),
(177,555,o),
(197,581,o),
(211,599,o),
(211,599,q),
(211,599,o),
(225,581,o),
(245,555,o),
(265,528,o),
(279,510,o),
(279,510,q),
(279,510,o),
(286,515,o),
(296,522,o),
(303,527,o),
(303,527,q),
(303,527,o),
(291,546,o),
(274,574,o),
(256,602,o),
(244,621,o),
(244,621,q),
(244,621,o),
(263,628,o),
(292,640,o),
(321,651,o),
(340,658,o),
(340,658,q),
(340,658,o),
(337,666,o),
(334,676,o),
(331,684,o),
(331,684,q),
(331,684,o),
(311,679,o),
(281,671,o),
(251,663,o),
(231,658,o),
(231,658,q),
(231,658,o),
(230,680,o),
(228,712,o),
(226,743,o),
(225,765,o),
(225,765,q),
(225,765,o),
(216,765,o),
(205,765,o),
(196,765,o),
(196,765,q),
(196,765,o),
(195,743,o),
(193,710,o),
(191,678,o),
(190,656,o),
(190,656,q),
(190,656,o),
(170,662,o),
(140,670,o),
(109,678,o),
(89,684,o),
(89,684,q),
(89,684,o),
(87,676,o),
(83,666,o),
(81,658,o),
(81,658,q),
(81,658,o),
(100,651,o),
(129,640,o),
(158,628,o),
(177,621,o),
(177,621,q),
(177,621,o),
(159,593,o),
(136,555,o),
(118,527,o),
(118,527,q),
(118,527,o),
(125,522,o),
(135,515,o),
(142,510,o),
(142,510,q),
(142,510,o)
);
}
);
width = 421;
},
{
layerId = "2B284C16-EA14-4761-8C41-B0F9D88443D8";
shapes = (
{
closed = 1;
nodes = (
(188.87,384.831,o),
(217.174,416.079,o),
(244.13,446.169,o),
(263,467,o),
(263,467,q),
(263,467,o),
(282.353,446.136,o),
(310,416,o),
(337.059,384.8,o),
(356,364,o),
(356,364,q),
(356,364,o),
(379,381,o),
(409,403,o),
(432,420,o),
(432,420,q),
(432,420,o),
(417.966,443.851,o),
(398.085,479,o),
(377.034,514.149,o),
(363,538,o),
(363,538,q),
(363,538,o),
(388,550,o),
(426,567,o),
(464,584,o),
(489,596,o),
(489,596,q),
(489,596,o),
(480,623,o),
(469,658,o),
(460,685,o),
(460,685,q),
(460,685,o),
(433,679,o),
(392.5,671,o),
(352,663,o),
(325,657,o),
(325,657,q),
(325,657,o),
(322,685,o),
(318,726.143,o),
(314,766,o),
(311,794,o),
(311,794,q),
(311,794,o),
(281.517,794,o),
(245.483,794,o),
(216,794,o),
(216,794,q),
(216,794,o),
(213,767,o),
(209,726,o),
(204,685,o),
(201,658,o),
(201,658,q),
(201,658,o),
(174,663,o),
(134,672,o),
(94,680,o),
(67,685,o),
(67,685,q),
(67,685,o),
(58,658,o),
(46,623,o),
(37,596,o),
(37,596,q),
(37,596,o),
(62,584,o),
(100,567,o),
(137,550,o),
(162,538,o),
(162,538,q),
(162,538,o),
(142,502,o),
(115,456,o),
(95,420,o),
(95,420,q),
(95,420,o),
(118,403,o),
(147,381,o),
(170,364,o),
(170,364,q),
(170,364,o)
);
}
);
width = 527;
}
);
note = uni002A;
unicode = 42;
}
{
glyphname = plus;
layers = (
{
layerId = m01;
shapes = (
{
closed = 1;
nodes = (
(251,111,o),
(264,111,o),
(275,111,o),
(275,111,q),
(275,111,o),
(275,156,o),
(275,222,o),
(275,288,o),
(275,333,o),
(275,333,q),
(275,333,o),
(316,333,o),
(376,333,o),
(436,333,o),
(477,333,o),
(477,333,q),
(477,333,o),
(477,342,o),
(477,355,o),
(477,364,o),
(477,364,q),
(477,364,o),
(436,364,o),
(376,364,o),
(316,364,o),
(275,364,o),
(275,364,q),
(275,364,o),
(275,409,o),
(275,475,o),
(275,541,o),
(275,586,o),
(275,586,q),
(275,586,o),
(264,586,o),
(251,586,o),
(240,586,o),
(240,586,q),
(240,586,o),
(240,541,o),
(240,475,o),
(240,409,o),
(240,364,o),
(240,364,q),
(240,364,o),
(199,364,o),
(139,364,o),
(78,364,o),
(37,364,o),
(37,364,q),
(37,364,o),
(37,355,o),
(37,342,o),
(37,333,o),
(37,333,q),
(37,333,o),
(78,333,o),
(139,333,o),
(199,333,o),
(240,333,o),
(240,333,q),
(240,333,o),
(240,288,o),
(240,222,o),
(240,156,o),
(240,111,o),
(240,111,q),
(240,111,o)
);
}
);
width = 514;
},
{
layerId = "2B284C16-EA14-4761-8C41-B0F9D88443D8";
shapes = (
{
closed = 1;
nodes = (
(276,93,o),
(328,93,o),
(368,93,o),
(368,93,q),
(368,93,o),
(368,134.351,o),
(368,195,o),
(368,255.649,o),
(368,297,o),
(368,297,q),
(368,297,o),
(408.188,297,o),
(467,297,o),
(525.812,297,o),
(566,297,o),
(566,297,q),
(566,297,o),
(566,336,o),
(566,387,o),
(566,426,o),
(566,426,q),
(566,426,o),
(525.812,426,o),
(467,426,o),
(408.188,426,o),
(368,426,o),
(368,426,q),
(368,426,o),
(368,467,o),
(368,529,o),
(368,589.649,o),
(368,631,o),
(368,631,q),
(368,631,o),
(328,631,o),
(276,631,o),
(236,631,o),
(236,631,q),
(236,631,o),
(236,590,o),
(236,528.5,o),
(236,467,o),
(236,426,o),
(236,426,q),
(236,426,o),
(196.01,426,o),
(137.488,426,o),
(77.99,426,o),
(38,426,o),
(38,426,q),
(38,426,o),
(38,387,o),
(38,336,o),
(38,297,o),
(38,297,q),
(38,297,o),
(77.99,297,o),
(137.488,297,o),
(196.01,297,o),
(236,297,o),
(236,297,q),
(236,297,o),
(236,255.649,o),
(236,195,o),
(236,134.351,o),
(236,93,o),
(236,93,q),
(236,93,o)
);
}
);
width = 605;
}
);
note = uni002B;
unicode = 43;
}
{
glyphname = comma;
kernLeft = period;
kernRight = period;
layers = (
{
layerId = m01;
shapes = (
{
closed = 1;
nodes = (
(166,-62,o),
(166,-7,qs),
(166,25,o),
(139,61,o),
(118,61,qs),
(103,61,o),
(78,42,o),
(78,22,qs),
(78,3,o),
(102,-18,o),
(118,-18,qs),
(128,-18,o),
(146,-11,o),
(153,0,q),
(153,0,o),
(142,14,o),
(127,32,o),
(116,46,o),
(116,46,q),
(116,46,o),
(121,28,o),
(126,5,o),
(131,-13,o),
(131,-13,q),
(131,-60,o),
(87,-128,o),
(52,-148,q),
(52,-148,o),
(56,-156,o),
(61,-166,o),
(65,-174,o),
(65,-174,q),
(108,-148,o)
);
}
);
width = 227;
},
{
layerId = "2B284C16-EA14-4761-8C41-B0F9D88443D8";
shapes = (
{
closed = 1;
nodes = (
(304,-66,o),
(304,31,qs),
(304,110.529,o),
(241,200,o),
(181,200,qs),
(135,200,o),
(69,145,o),
(69,99,qs),
(69,50,o),
(135,-3,o),
(176,-3,qs),
(195,-3,o),
(227,8,o),
(240,18,q),
(240,18,o),
(223.351,48.13,o),
(200.649,86.87,o),
(184,117,o),
(184,117,q),
(184,117,o),
(184.333,81,o),
(184.667,35,o),
(185,-1,o),
(185,-1,q),
(186,-43,o),
(118,-119,o),
(52,-141,q),
(52,-141,o),
(63,-170,o),
(78,-208,o),
(89,-237,o),
(89,-237,q),
(194,-206,o)
);
}
);
width = 353;
}
);
note = uni002C;
unicode = 44;
}
{
glyphname = hyphen;
kernLeft = hyphen;
kernRight = hyphen;
layers = (
{
layerId = m01;
shapes = (
{
closed = 1;
nodes = (
(78,244,o),
(131,244,o),
(192,244,o),
(245,244,o),
(279,244,o),
(279,244,q),
(279,244,o),
(279,254,o),
(279,267,o),
(279,277,o),
(279,277,q),
(279,277,o),
(245,277,o),
(192,277,o),
(131,277,o),
(78,277,o),
(44,277,o),
(44,277,q),
(44,277,o),
(44,267,o),
(44,254,o),
(44,244,o),
(44,244,q),
(44,244,o)
);
}
);
width = 320;
},
{
layerId = "2B284C16-EA14-4761-8C41-B0F9D88443D8";
shapes = (
{
closed = 1;
nodes = (
(91.034,212,o),
(155,212,o),
(226,212,o),
(289.966,212,o),
(331,212,o),
(331,212,q),
(331,212,o),
(331,250.485,o),
(331,300.515,o),
(331,339,o),
(331,339,q),
(331,339,o),
(289.966,339,o),
(226,339,o),
(155,339,o),
(91.034,339,o),
(50,339,o),
(50,339,q),
(50,339,o),
(50,300.515,o),
(50,250.485,o),
(50,212,o),
(50,212,q),
(50,212,o)
);
}
);
width = 381;
}
);
note = uni002D;
unicode = (45,8208,8209);
}
{
glyphname = period;
kernLeft = period;
kernRight = period;
layers = (
{
layerId = m01;
shapes = (
{
closed = 1;
nodes = (
(153,-2,o),
(153,17,qs),
(153,39,o),
(128,61,o),
(113,61,qs),
(99,61,o),
(74,39,o),
(74,17,qs),
(74,-2,o),
(99,-24,o),
(113,-24,qs),
(128,-24,o)
);
}
);
width = 227;
},
{
layerId = "2B284C16-EA14-4761-8C41-B0F9D88443D8";
shapes = (
{
closed = 1;
nodes = (
(284,41,o),
(284,87,qs),
(284,135,o),
(223,200,o),
(176,200,qs),
(130,200,o),
(69,135,o),
(69,87,qs),
(69,41,o),
(130,-25,o),
(176,-25,qs),
(223,-25,o)
);
}
);
width = 353;
}
);
note = uni002E;
unicode = 46;
}
{
glyphname = slash;
kernLeft = slash;
kernRight = slash;
layers = (
{
layerId = m01;
shapes = (
{
closed = 1;
nodes = (
(19,-185,o),
(31,-185,o),
(41,-185,o),
(41,-185,q),
(41,-185,o),
(65,-121,o),
(105,-10,o),
(158,131,o),
(216,289,o),
(273,447,o),
(326,588,o),
(366,699,o),
(390,763,o),
(390,763,q),
(390,763,o),
(380,763,o),
(368,763,o),
(358,763,o),
(358,763,q),
(358,763,o),
(334,699,o),
(294,588,o),
(241,447,o),
(184,289,o),
(126,131,o),
(73,-10,o),
(33,-121,o),
(9,-185,o),
(9,-185,q),
(9,-185,o)
);
}
);
width = 392;
},
{
layerId = "2B284C16-EA14-4761-8C41-B0F9D88443D8";
shapes = (
{
closed = 1;
nodes = (
(51,-192,o),
(98,-192,o),
(133,-192,o),
(133,-192,q),
(133,-192,o),
(147,-126,o),
(172,-11,o),
(203,136,o),
(239,299,o),
(274,463,o),
(305,610,o),
(330,725,o),
(344,791,o),
(344,791,q),
(344,791,o),
(308,791,o),
(262,791,o),
(226,791,o),
(226,791,q),
(226,791,o),
(212,725,o),
(187,610,o),
(156,463,o),
(121,300,o),
(86,136,o),
(55,-11,o),
(30,-126,o),
(16,-192,o),
(16,-192,q),
(16,-192,o)
);
}
);
width = 380;
}
);
note = uni002F;
unicode = 47;
}
{
glyphname = zero;
layers = (
{
layerId = m01;
shapes = (
{
closed = 1;
nodes = (
(413,62,o),
(460,225,o),
(460,340,qs),
(460,456,o),
(413,616,o),
(323,700,o),
(257,700,qs),
(192,700,o),
(101,616,o),
(55,456,o),
(55,340,qs),
(55,225,o),
(101,62,o),
(192,-24,o),
(257,-24,qs),
(323,-24,o)
);
},
{
closed = 1;
nodes = (
(131,83,o),
(89,232,o),
(89,340,qs),
(89,448,o),
(131,595,o),
(206,669,o),
(257,669,qs),
(309,669,o),
(384,595,o),
(425,448,o),
(425,340,qs),
(425,232,o),
(384,83,o),
(309,6,o),
(257,6,qs),
(206,6,o)
);
}
);
width = 514;
},
{
layerId = "2B284C16-EA14-4761-8C41-B0F9D88443D8";
shapes = (
{
closed = 1;
nodes = (
(499,61,o),
(565,229,o),
(565,351,qs),
(565,473,o),
(499,637,o),
(381,719,o),
(303,719,qs),
(225,719,o),
(106,637,o),
(40,474,o),
(40,351,qs),
(40,229,o),
(106,61,o),
(225,-25,o),
(303,-25,qs),
(381,-25,o)
);
},
{
closed = 1;
nodes = (
(237,154,o),
(212,255,o),
(212,351,qs),
(212,447,o),
(237,545,o),
(278,579,o),
(303,579,qs),
(327,579,o),
(367,545,o),
(392,447,o),
(392,351,qs),
(392,255,o),
(367,154,o),
(327,117,o),
(303,117,qs),
(278,117,o)
);
}
);
width = 605;
}
);
note = uni0030;
unicode = 48;
}
{
glyphname = one;
layers = (
{
layerId = m01;
shapes = (
{
closed = 1;
nodes = (
(266,-11,o),
(276,-11,o),
(285,-11,o),
(292,-11,o),
(292,-11,q),
(292,-11,o),
(292,48,o),
(292,148,o),
(292,272,o),
(292,404,o),
(292,528,o),
(292,628,o),
(292,687,o),
(292,687,q),
(292,687,o),
(284,687,o),
(272,687,o),
(264,687,o),
(264,687,q),
(241,674,o),
(176,652,o),
(135,645,q),
(135,645,o),
(135,638,o),
(135,628,o),
(135,621,o),
(135,621,q),
(135,621,o),
(172,621,o),
(222,621,o),
(259,621,o),
(259,621,q),
(259,621,o),
(259,553,o),
(259,440,o),
(259,305,o),
(259,170,o),
(259,57,o),
(259,-11,o),
(259,-11,q),
(259,-11,o)
);
}
);
width = 514;
},
{
layerId = "2B284C16-EA14-4761-8C41-B0F9D88443D8";
shapes = (
{
closed = 1;
nodes = (
(269.471,-11,o),
(323,-11,o),
(377,-11,o),
(414,-11,o),
(414,-11,q),
(414,-11,o),
(414,49,o),
(414,151.809,o),
(414,279.292,o),
(414,415,o),
(414,542.067,o),
(414,644.541,o),
(414,705,o),
(414,705,q),
(414,705,o),
(374,705,o),
(320,705,o),
(280,705,o),
(280,705,q),
(240,681,o),
(155,649,o),
(96,638,q),
(96,638,o),
(96,604,o),
(96,559,o),
(96,525,o),
(96,525,q),
(96,525,o),
(136.581,525,o),
(191.419,525,o),
(232,525,o),
(232,525,q),
(232,525,o),
(232,467.329,o),
(232,371.494,o),
(232,257,o),
(232,142.506,o),
(232,46.671,o),
(232,-11,o),
(232,-11,q),
(232,-11,o)
);
}
);
width = 605;
}
);
note = uni0031;
unicode = 49;
}
{
glyphname = two;
layers = (
{
layerId = m01;
shapes = (
{
closed = 1;
nodes = (
(91,-11,o),
(166,-11,o),
(255,-11,o),
(344,-11,o),
(419,-11,o),
(464,-11,o),
(464,-11,q),
(464,-11,o),
(464,-5,o),
(464,5,o),
(464,14,o),
(464,20,o),
(464,20,q),
(464,20,o),
(427,20,o),
(370,20,o),
(305,20,o),
(248,20,o),
(211,20,o),
(211,20,q),
(182,20,o),
(123,17,o),
(94,15,q),
(198,123,o),
(348,292,o),
(429,437,o),
(429,508,qs),
(429,566,o),
(384,652,o),
(299,700,o),
(238,700,qs),
(176,700,o),
(82,640,o),
(44,597,q),
(44,597,o),
(51,590,o),
(61,582,o),
(68,575,o),
(68,575,q),
(100,616,o),
(186,669,o),
(235,669,qs),
(291,669,o),
(362,626,o),
(395,553,o),
(395,508,qs),
(395,446,o),
(318,308,o),
(164,130,o),
(46,9,q),
(46,9,o),
(46,3,o),
(46,-5,o),
(46,-11,o),
(46,-11,q),
(46,-11,o)
);
}
);
width = 514;
},
{
layerId = "2B284C16-EA14-4761-8C41-B0F9D88443D8";
shapes = (
{
closed = 1;
nodes = (
(97,-11,o),
(188,-11,o),
(298,-11,o),
(408,-11,o),
(499,-11,o),
(555,-11,o),
(555,-11,q),
(555,-11,o),
(555,20,o),
(555,66,o),
(555,112.2,o),
(555,143,o),
(555,143,q),
(555,143,o),
(533.502,143,o),
(500.383,143,o),
(462.617,143,o),
(429.498,143,o),
(408,143,o),
(408,143,q),
(383,143,o),
(315,137,o),
(288,134,q),
(347,191,o),
(453,305,o),
(521,426,o),
(521,490,qs),
(521,559.278,o),
(459,662,o),
(350,719,o),
(278,719,qs),
(201,719,o),
(90,661,o),
(37,600,q),
(37,600,o),
(65,572,o),
(103,535,o),
(131,507,o),
(131,507,q),
(157,534,o),
(215,577,o),
(252,577,qs),
(280,577,o),
(322,554,o),
(346,510,o),
(346,475.514,qs),
(346,428,o),
(266,311,o),
(128,177,o),
(41,102,q),
(41,102,o),
(41,68.1,o),
(41,22.9,o),
(41,-11,o),
(41,-11,q),
(41,-11,o)
);
}
);
width = 605;
}
);
note = uni0032;
unicode = 50;
}
{
glyphname = three;
layers = (
{
layerId = m01;
shapes = (
{
closed = 1;
nodes = (
(403,24,o),
(458,112,o),
(458,172,qs),
(458,222,o),
(414,298,o),
(340,347,o),
(296,355,q),
(296,355,o),
(296,360,o),
(296,360,q),
(354,379,o),
(432,464,o),
(432,534,qs),
(432,587,o),
(383,661,o),
(300,700,o),
(249,700,qs),
(188,700,o),
(98,649,o),
(63,615,q),
(63,615,o),
(67,610,o),
(74,603,o),
(81,596,o),
(85,591,o),
(85,591,q),
(114,623,o),
(200,669,o),
(249,669,qs),
(316,669,o),
(397,594,o),
(397,532,qs),
(397,489,o),
(354,416,o),
(255,373,o),
(172,373,q),
(172,373,o),
(172,363,o),
(172,350,o),
(172,340,o),
(172,340,q),
(261,340,o),
(371,297,o),
(423,220,o),
(423,170,qs),
(423,121,o),
(379,47,o),
(302,6,o),
(253,6,qs),
(178,6,o),
(86,64,o),
(55,98,q),
(55,98,o),
(51,93,o),
(44,86,o),
(37,79,o),
(33,74,o),
(33,74,q),
(55,51,o),
(114,6,o),
(196,-24,o),
(251,-24,qs),
(310,-24,o)
);
}
);
width = 514;
},
{
layerId = "2B284C16-EA14-4761-8C41-B0F9D88443D8";
shapes = (
{
closed = 1;
nodes = (
(475,24,o),
(550,118,o),
(550,186,qs),
(550,231,o),
(515,300,o),
(452,347,o),
(410,359,q),
(410,359,o),
(410,363,o),
(410,363,q),
(468,388,o),
(528,467,o),
(528,519,qs),
(528,584,o),
(465,673,o),
(350,719,o),
(272,719,qs),
(206,719,o),
(94,671,o),
(43,627,q),
(43,627,o),
(61,605,o),
(89,572,o),
(116,539,o),
(134,517,o),
(134,517,q),
(169,546,o),
(227,577,o),
(264,577,qs),
(302,577,o),
(345,540,o),
(345,505,qs),
(345,479,o),
(315,440,o),
(245,418,o),
(183,418,q),
(183,418,o),
(183,379,o),
(183,329,o),
(183,290,o),
(183,290,q),
(260,290,o),
(339,268,o),
(367,227,o),
(367,198,qs),
(367,173,o),
(340,139,o),
(291,122,o),
(258,122,qs),
(217,122,o),
(139,161,o),
(107,192,q),
(107,192,o),
(90,169,o),
(65,135,o),
(41,100,o),
(24,77,o),
(24,77,q),
(51,46,o),
(124,0,o),
(219,-25,o),
(277,-25,qs),
(351,-25,o)
);
}
);
width = 605;
}
);
note = uni0033;
unicode = 51;
}
{
glyphname = four;
layers = (
{
layerId = m01;
shapes = (
{
closed = 1;
nodes = (
(347,-11,o),
(357,-11,o),
(366,-11,o),
(373,-11,o),
(373,-11,q),
(373,-11,o),
(373,48,o),
(373,148,o),
(373,272,o),
(373,404,o),
(373,528,o),
(373,628,o),
(373,687,o),
(373,687,q),
(373,687,o),
(369,687,o),
(362,687,o),
(355,687,o),
(351,687,o),
(351,687,q),
(351,687,o),
(315,636,o),
(255,553,o),
(184,454,o),
(113,354,o),
(53,271,o),
(17,220,o),
(17,220,q),
(17,220,o),
(17,215,o),
(17,208,o),
(17,203,o),
(17,203,q),
(17,203,o),
(67,203,o),
(150,203,o),
(249,203,o),
(347,203,o),
(430,203,o),
(480,203,o),
(480,203,q),
(480,203,o),
(480,209,o),
(480,218,o),
(480,227,o),
(480,233,o),
(480,233,q),
(480,233,o),
(420,233,o),
(325,233,o),
(218,233,o),
(123,233,o),
(63,233,o),
(63,233,q),
(63,233,o),
(95,277,o),
(145,348,o),
(201,426,o),
(251,497,o),
(283,541,o),
(283,541,q),
(298,564,o),
(327,602,o),
(340,623,q),
(340,623,o),
(344,623,o),
(344,623,q),
(343,601,o),
(340,531,o),
(340,508,q),
(340,508,o),
(340,452,o),
(340,359,o),
(340,249,o),
(340,138,o),
(340,45,o),
(340,-11,o),
(340,-11,q),
(340,-11,o)
);
}
);
width = 514;
},
{
layerId = "2B284C16-EA14-4761-8C41-B0F9D88443D8";
shapes = (
{
closed = 1;
nodes = (
(364,-11,o),
(415,-11,o),
(465,-11,o),
(499,-11,o),
(499,-11,q),
(499,-11,o),
(499,49,o),
(499,151.809,o),
(499,279.292,o),
(499,415,o),
(499,542.067,o),
(499,644.541,o),
(499,705,o),
(499,705,q),
(499,705,o),
(453,705,o),
(386,705,o),
(319,705,o),
(273,705,o),
(273,705,q),
(273,705,o),
(246.054,658.696,o),
(201.144,583.338,o),
(148,493.454,o),
(94.856,402.662,o),
(49.946,327.304,o),
(23,281,o),
(23,281,q),
(23,281,o),
(23,243,o),
(23,192,o),
(23,154,o),
(23,154,q),
(23,154,o),
(82.914,154,o),
(182.371,154,o),
(301,154,o),
(420,154,o),
(519,154,o),
(579,154,o),
(579,154,q),
(579,154,o),
(579,181.8,o),
(579,223.5,o),
(579,265.2,o),
(579,293,o),
(579,293,q),
(579,293,o),
(523.748,293,o),
(436.266,293,o),
(337.734,293,o),
(250.252,293,o),
(195,293,o),
(195,293,q),
(195,293,o),
(206,313,o),
(223.628,343.982,o),
(243.372,378.018,o),
(261,409,o),
(272,429,o),
(272,429,q),
(288,460,o),
(318,523,o),
(331,554,q),
(331,554,o),
(336,554,o),
(336,554,q),
(334,519,o),
(330,424,o),
(330,389,q),
(330,389,o),
(330,345.779,o),
(330,274,o),
(330,189.27,o),
(330,103.77,o),
(330,32.135,o),
(330,-11,o),
(330,-11,q),
(330,-11,o)
);
}
);
width = 605;
}
);
note = uni0034;
unicode = 52;
}
{
glyphname = six;
layers = (
{
layerId = m01;
shapes = (
{
closed = 1;
nodes = (
(416,32,o),
(467,130,o),
(467,192,qs),
(467,262,o),
(422,358,o),
(336,408,o),
(275,408,qs),
(223,408,o),
(127,350,o),
(89,303,q),
(89,303,o),
(89,290,o),
(89,272,o),
(89,259,o),
(89,259,q),
(135,323,o),
(233,377,o),
(273,377,qs),
(330,377,o),
(400,328,o),
(432,244,o),
(432,192,qs),
(432,141,o),
(393,56,o),
(326,6,o),
(283,6,qs),
(217,6,o),
(133,84,o),
(94,218,o),
(94,303,qs),
(94,439,o),
(154,599,o),
(252,669,o),
(310,669,qs),
(344,669,o),
(406,640,o),
(429,610,q),
(429,610,o),
(433,615,o),
(440,622,o),
(447,629,o),
(451,634,o),
(451,634,q),
(425,664,o),
(358,700,o),
(312,700,qs),
(262,700,o),
(171,659,o),
(100,566,o),
(59,414,o),
(59,303,qs),
(59,225,o),
(89,104,o),
(147,20,o),
(229,-24,o),
(281,-24,qs),
(332,-24,o)
);
}
);
width = 514;
},
{
layerId = "2B284C16-EA14-4761-8C41-B0F9D88443D8";
shapes = (
{
closed = 1;
nodes = (
(498,33,o),
(565,142,o),
(565,218,qs),
(565,295,o),
(508,393,o),
(411,440,o),
(350,440,qs),
(317,440,o),
(231,396,o),
(203,356,q),
(203,356,o),
(206,321,o),
(209,275,o),
(212,240,o),
(212,240,q),
(234,279,o),
(288,311,o),
(314,311,qs),
(337,311,o),
(376,294,o),
(399,254,o),
(399,218,qs),
(399,179,o),
(376,133,o),
(338,112,o),
(316,112,qs),
(291,112,o),
(242,148,o),
(210,244,o),
(210,334,qs),
(210,424,o),
(247,528,o),
(311,572,o),
(350,572,qs),
(381,572,o),
(442,542,o),
(460,522,q),
(460,522,o),
(479,544,o),
(508,577,o),
(537,609,o),
(556,631,o),
(556,631,q),
(522,666,o),
(412,719,o),
(338,719,qs),
(281,719,o),
(175,673,o),
(92,578,o),
(44,433,o),
(44,334,qs),
(44,238,o),
(91,101,o),
(170,15,o),
(269,-25,o),
(321,-25,qs),
(388,-25,o)
);
}
);
width = 605;
}
);
note = uni0036;
unicode = 54;
}
{
glyphname = seven;
layers = (
{
layerId = m01;
shapes = (
{
closed = 1;
nodes = (
(212,-11,o),
(224,-11,o),
(235,-11,o),
(242,-11,o),
(242,-11,q),
(246,91,o),
(271,266,o),
(321,426,o),
(405,583,o),
(469,667,q),
(469,667,o),
(469,673,o),
(469,681,o),
(469,687,o),
(469,687,q),
(469,687,o),
(423,687,o),
(348,687,o),
(259,687,o),
(169,687,o),
(94,687,o),
(48,687,o),
(48,687,q),
(48,687,o),
(48,681,o),
(48,672,o),
(48,662,o),
(48,656,o),
(48,656,q),
(48,656,o),
(102,656,o),
(188,656,o),
(285,656,o),
(371,656,o),
(425,656,o),
(425,656,q),
(370,582,o),
(291,435,o),
(238,277,o),
(209,97,o),
(205,-11,q),
(205,-11,o)
);
}
);
width = 514;
},
{
layerId = "2B284C16-EA14-4761-8C41-B0F9D88443D8";
shapes = (
{
closed = 1;
nodes = (
(201,-11,o),
(256,-11,o),
(310,-11,o),
(347,-11,o),
(347,-11,q),
(352,94,o),
(372,254,o),
(415,388,o),
(494,519,o),
(557,594,q),
(557,594,o),
(557,628,o),
(557,671,o),
(557,705,o),
(557,705,q),
(557,705,o),
(501.876,705,o),
(412,705,o),
(304.106,705,o),
(195,705,o),
(105.124,705,o),
(50,705,o),
(50,705,q),
(50,705,o),
(50,674,o),
(50,629,o),
(50,584,o),
(50,553,o),
(50,553,q),
(50,553,o),
(95.129,553,o),
(167,553,o),
(246,553,o),
(317.871,553,o),
(363,553,o),
(363,553,q),
(311,482,o),
(239,353,o),
(193,222,o),
(169,76,o),
(164,-11,q),
(164,-11,o)
);
}
);
width = 605;
}
);
note = uni0037;
unicode = 55;
}
{
glyphname = eight;
layers = (
{
layerId = m01;
shapes = (
{
closed = 1;
nodes = (
(417,25,o),
(469,107,o),
(469,157,qs),
(469,204,o),
(432,269,o),
(376,315,o),
(347,333,q),
(347,333,o),
(347,338,o),
(347,338,q),
(367,355,o),
(413,409,o),
(447,480,o),
(447,519,qs),
(447,570,o),
(403,652,o),
(321,700,o),
(262,700,qs),
(213,700,o),
(133,657,o),
(85,581,o),
(85,532,qs),
(85,477,o),
(148,397,o),
(185,373,q),
(185,373,o),
(185,368,o),
(185,368,q),
(153,351,o),
(87,293,o),
(44,216,o),
(44,168,qs),
(44,113,o),
(100,27,o),
(199,-24,o),
(262,-24,qs),
(324,-24,o)
);
},
{
closed = 1;
nodes = (
(178,412,o),
(120,480,o),
(120,532,qs),
(120,591,o),
(200,669,o),
(262,669,qs),
(310,669,o),
(377,627,o),
(412,559,o),
(412,519,qs),
(412,472,o),
(361,387,o),
(314,349,q),
(267,368,o)
);
},
{
closed = 1;
nodes = (
(125,50,o),
(78,123,o),
(78,168,qs),
(78,228,o),
(154,320,o),
(211,353,q),
(253,337,o),
(333,302,o),
(396,259,o),
(434,199,o),
(434,157,qs),
(434,116,o),
(391,47,o),
(314,6,o),
(262,6,qs),
(209,6,o)
);
}
);
width = 514;
},
{
layerId = "2B284C16-EA14-4761-8C41-B0F9D88443D8";
shapes = (
{
closed = 1;
nodes = (
(494,28,o),
(559,118,o),
(559,175,qs),
(559,223,o),
(526,294,o),
(471,346,o),
(436,364,q),
(436,364,o),
(436,369,o),
(436,369,q),
(461,385,o),
(503,431,o),
(529,488,o),
(529,521,qs),
(529,582,o),
(473,670,o),
(374,719,o),
(307,719,qs),
(238,719,o),
(132,671,o),
(71,581,o),
(71,518,qs),
(71,462,o),
(125,381,o),
(167,349,q),
(167,349,o),
(167,345,o),
(167,345,q),
(133,327,o),
(79,279,o),
(47,215,o),
(47,172,qs),
(47,114,o),
(114,25,o),
(229,-25,o),
(301,-25,qs),
(378,-25,o)
);
},
{
closed = 1;
nodes = (
(259,455,o),
(232,492,o),
(232,518,qs),
(232,557,o),
(274,594,o),
(303,594,qs),
(327,594,o),
(362,573,o),
(381,535,o),
(381,509,qs),
(381,484,o),
(362,436,o),
(345,413,q),
(310,427,o)
);
},
{
closed = 1;
nodes = (
(233,123,o),
(205,164,o),
(205,194,qs),
(205,223,o),
(230,277,o),
(249,297,q),
(282,283,o),
(334,259,o),
(371,235,o),
(390,203,o),
(390,182,qs),
(390,154,o),
(368,119,o),
(329,102,o),
(305,102,qs),
(278,102,o)
);
}
);
width = 605;
}
);
note = uni0038;
unicode = 56;
}
{
glyphname = nine;
layers = (
{
layerId = m01;
shapes = (
{
closed = 1;
nodes = (
(344,17,o),
(415,109,o),
(456,262,o),
(456,373,qs),
(456,451,o),
(426,572,o),
(368,656,o),
(286,700,o),
(233,700,qs),
(183,700,o),
(99,644,o),
(48,546,o),
(48,484,qs),
(48,414,o),
(93,318,o),
(179,268,o),
(240,268,qs),
(275,268,o),
(341,294,o),
(400,341,o),
(425,373,q),
(425,373,o),
(425,386,o),
(425,403,o),
(425,416,o),
(425,416,q),
(379,352,o),
(281,299,o),
(242,299,qs),
(186,299,o),
(115,348,o),
(83,432,o),
(83,484,qs),
(83,535,o),
(122,619,o),
(189,669,o),
(231,669,qs),
(298,669,o),
(381,592,o),
(421,458,o),
(421,373,qs),
(421,237,o),
(361,76,o),
(263,6,o),
(205,6,qs),
(171,6,o),
(109,36,o),
(85,65,q),
(85,65,o),
(81,60,o),
(74,53,o),
(67,46,o),
(63,41,o),
(63,41,q),
(89,12,o),
(157,-24,o),
(203,-24,qs),
(253,-24,o)
);
}
);
width = 514;
},
{
layerId = "2B284C16-EA14-4761-8C41-B0F9D88443D8";
shapes = (
{
closed = 1;
nodes = (
(427,22,o),
(510,118,o),
(558,263,o),
(558,362,qs),
(558,458,o),
(511,594,o),
(432,679,o),
(333,719,o),
(281,719,qs),
(215,719,o),
(104,661,o),
(37,553,o),
(37,477,qs),
(37,400,o),
(94,302,o),
(192,256,o),
(253,256,qs),
(275,256,o),
(330,275,o),
(382,312,o),
(399,338,q),
(399,338,o),
(396,373,o),
(393,420,o),
(390,455,o),
(390,455,q),
(369,416,o),
(315,383,o),
(288,383,qs),
(266,383,o),
(227,400,o),
(203,441,o),
(203,477,qs),
(203,516,o),
(226,563,o),
(264,583,o),
(286,583,qs),
(312,583,o),
(360,547,o),
(392,451,o),
(392,362,qs),
(392,272,o),
(355,167,o),
(292,122,o),
(252,122,qs),
(221,122,o),
(160,154,o),
(142,173,q),
(142,173,o),
(123,151,o),
(94,119,o),
(65,87,o),
(46,65,o),
(46,65,q),
(82,29,o),
(191,-25,o),
(264,-25,qs),
(321,-25,o)
);
}
);
width = 605;
}
);
note = uni0039;
unicode = 57;
}
{
glyphname = less;
layers = (
{
layerId = m01;
shapes = (
{
closed = 1;
nodes = (
(477,162,o),
(477,173,o),
(477,183,o),
(477,190,o),
(477,190,q),
(477,190,o),
(439,205,o),
(380,228,o),
(313,254,o),
(254,277,o),
(216,292,o),
(216,292,q),
(216,292,o),
(187,304,o),
(144,321,o),
(101,337,o),
(72,349,o),
(72,349,q),
(72,349,o),
(72,353,o),
(72,353,q),
(72,353,o),
(101,365,o),
(144,382,o),
(187,398,o),
(216,410,o),
(216,410,q),
(216,410,o),
(254,425,o),
(313,448,o),
(380,474,o),
(439,497,o),
(477,512,o),
(477,512,q),
(477,512,o),
(477,519,o),
(477,530,o),
(477,540,o),
(477,547,o),
(477,547,q),
(477,547,o),
(429,528,o),
(351,497,o),
(257,459,o),
(163,421,o),
(85,390,o),
(37,371,o),
(37,371,q),
(37,371,o),
(37,359,o),
(37,343,o),
(37,331,o),
(37,331,q),
(37,331,o),
(85,312,o),
(163,281,o),
(257,243,o),
(351,205,o),
(429,174,o),
(477,155,o),
(477,155,q),
(477,155,o)
);
}
);
width = 514;
},
{
layerId = "2B284C16-EA14-4761-8C41-B0F9D88443D8";
shapes = (
{
closed = 1;
nodes = (
(566,130,o),
(566,175,o),
(566,218.529,o),
(566,249,o),
(566,249,q),
(566,249,o),
(539,258,o),
(495,272,o),
(447,287,o),
(403,301,o),
(376,310,o),
(376,310,q),
(376,310,o),
(345.389,320.947,o),
(300,336.456,o),
(254.611,351.053,o),
(224,362,o),
(224,362,q),
(224,362,o),
(224,365.672,o),
(224,365.672,q),
(224,365.672,o),
(254.611,376.689,o),
(300,392.295,o),
(345.389,406.984,o),
(376,418,o),
(376,418,q),
(376,418,o),
(403,427,o),
(447,441,o),
(495,456,o),
(539,470,o),
(566,479,o),
(566,479,q),
(566,479,o),
(566,509,o),
(566,554,o),
(566,599,o),
(566,629,o),
(566,629,q),
(566,629,o),
(509,607,o),
(415.128,571.283,o),
(302,527.5,o),
(188.872,483.717,o),
(95,448,o),
(38,426,o),
(38,426,q),
(38,426,o),
(38,388.8,o),
(38,339.2,o),
(38,302,o),
(38,302,q),
(38,302,o),
(95,280,o),
(189,244,o),
(302,201,o),
(415,158,o),
(509,122,o),
(566,100,o),
(566,100,q),
(566,100,o)
);
}
);
width = 605;
}
);
note = uni003C;
unicode = 60;
}
{
glyphname = equal;
layers = (
{
layerId = m01;
shapes = (
{
closed = 1;
nodes = (
(85,442,o),
(163,442,o),
(257,442,o),
(351,442,o),
(429,442,o),
(477,442,o),
(477,442,q),
(477,442,o),
(477,451,o),
(477,464,o),
(477,473,o),
(477,473,q),
(477,473,o),
(429,473,o),
(351,473,o),
(257,473,o),
(163,473,o),
(85,473,o),
(37,473,o),
(37,473,q),
(37,473,o),
(37,464,o),
(37,451,o),
(37,442,o),
(37,442,q),
(37,442,o)
);
},
{
closed = 1;
nodes = (
(85,224,o),
(163,224,o),
(257,224,o),
(351,224,o),
(429,224,o),
(477,224,o),
(477,224,q),
(477,224,o),
(477,233,o),
(477,246,o),
(477,255,o),
(477,255,q),
(477,255,o),
(429,255,o),
(351,255,o),
(257,255,o),
(163,255,o),
(85,255,o),
(37,255,o),
(37,255,q),
(37,255,o),
(37,246,o),
(37,233,o),
(37,224,o),
(37,224,q),
(37,224,o)
);
}
);
width = 514;
},
{
layerId = "2B284C16-EA14-4761-8C41-B0F9D88443D8";
shapes = (
{
closed = 1;
nodes = (
(95,432,o),
(188.872,432,o),
(302,432,o),
(415.128,432,o),
(509,432,o),
(566,432,o),
(566,432,q),
(566,432,o),
(566,471,o),
(566,522,o),
(566,561,o),
(566,561,q),
(566,561,o),
(509,561,o),
(415.128,561,o),
(302,561,o),
(188.872,561,o),
(95,561,o),
(38,561,o),
(38,561,q),
(38,561,o),
(38,522,o),
(38,471,o),
(38,432,o),
(38,432,q),
(38,432,o)
);
},
{
closed = 1;
nodes = (
(95,163,o),
(188.872,163,o),
(302,163,o),
(415.128,163,o),
(509,163,o),
(566,163,o),
(566,163,q),
(566,163,o),
(566,202,o),
(566,253,o),
(566,292,o),
(566,292,q),
(566,292,o),
(509,292,o),
(415.128,292,o),
(302,292,o),
(188.872,292,o),
(95,292,o),
(38,292,o),
(38,292,q),
(38,292,o),
(38,253,o),
(38,202,o),
(38,163,o),
(38,163,q),
(38,163,o)
);
}
);
width = 605;
}
);
note = uni003D;
unicode = 61;
}
{
glyphname = greater;
layers = (
{
layerId = m01;
shapes = (
{
closed = 1;
nodes = (
(85,174,o),
(163,205,o),
(257,243,o),
(351,281,o),
(429,312,o),
(477,331,o),
(477,331,q),
(477,331,o),
(477,343,o),
(477,359,o),
(477,371,o),
(477,371,q),
(477,371,o),
(429,390,o),
(351,421,o),
(257,459,o),
(163,497,o),
(85,528,o),
(37,547,o),
(37,547,q),
(37,547,o),
(37,540,o),
(37,530,o),
(37,519,o),
(37,512,o),
(37,512,q),
(37,512,o),
(75,497,o),
(135,474,o),
(201,448,o),
(261,425,o),
(299,410,o),
(299,410,q),
(299,410,o),
(328,398,o),
(371,382,o),
(414,365,o),
(443,353,o),
(443,353,q),
(443,353,o),
(443,349,o),
(443,349,q),
(443,349,o),
(414,337,o),
(371,321,o),
(328,304,o),
(299,292,o),
(299,292,q),
(299,292,o),
(261,277,o),
(201,254,o),
(135,228,o),
(75,205,o),
(37,190,o),
(37,190,q),
(37,190,o),
(37,183,o),
(37,173,o),
(37,162,o),
(37,155,o),
(37,155,q),
(37,155,o)
);
}
);
width = 514;
},
{
layerId = "2B284C16-EA14-4761-8C41-B0F9D88443D8";
shapes = (
{
closed = 1;
nodes = (
(95,122,o),
(189,158,o),
(302,201,o),
(415,244,o),
(509,280,o),
(566,302,o),
(566,302,q),
(566,302,o),
(566,339.2,o),
(566,388.8,o),
(566,426,o),
(566,426,q),
(566,426,o),
(509,448,o),
(415.128,483.717,o),
(302,527.5,o),
(188.872,571.283,o),
(95,607,o),
(38,629,o),
(38,629,q),
(38,629,o),
(38,599,o),
(38,554,o),
(38,509,o),
(38,479,o),
(38,479,q),
(38,479,o),
(65,470,o),
(108.871,456.264,o),
(157.129,440.736,o),
(201,427,o),
(228,418,o),
(228,418,q),
(228,418,o),
(258.611,406.857,o),
(304,392,o),
(349.986,376.759,o),
(381,366,o),
(381,366,q),
(381,366,o),
(381,362.25,o),
(381,362.25,q),
(381,362.25,o),
(350.389,351,o),
(305,336,o),
(259.014,320.759,o),
(228,310,o),
(228,310,q),
(228,310,o),
(201,301,o),
(157.129,287.264,o),
(108.871,271.736,o),
(65,258,o),
(38,249,o),
(38,249,q),
(38,249,o),
(38,218.529,o),
(38,175,o),
(38,130,o),
(38,100,o),
(38,100,q),
(38,100,o)
);
}
);
width = 605;
}
);
note = uni003E;
unicode = 62;
}
{
glyphname = question;
kernLeft = question;
kernRight = question;
layers = (
{
layerId = m01;
shapes = (
{
closed = 1;
nodes = (
(185,176,o),
(194,176,o),
(203,176,o),
(209,176,o),
(209,176,q),
(202,228,o),
(232,310,o),
(282,381,o),
(336,449,o),
(373,524,o),
(373,569,qs),
(373,614,o),
(335,688,o),
(262,732,o),
(209,732,qs),
(154,732,o),
(71,684,o),
(39,650,q),
(39,650,o),
(46,644,o),
(54,636,o),
(61,630,o),
(61,630,q),
(89,665,o),
(167,702,o),
(207,702,qs),
(253,702,o),
(311,663,o),
(338,602,o),
(338,567,qs),
(338,524,o),
(301,454,o),
(249,389,o),
(200,318,o),
(172,232,o),
(179,176,q),
(179,176,o)
);
},
{
closed = 1;
nodes = (
(238,-2,o),
(238,17,qs),
(238,39,o),
(213,61,o),
(198,61,qs),
(184,61,o),
(159,39,o),
(159,17,qs),
(159,-2,o),
(184,-24,o),
(198,-24,qs),
(213,-24,o)
);
}
);
width = 429;
},
{
layerId = "2B284C16-EA14-4761-8C41-B0F9D88443D8";
shapes = (
{
closed = 1;
nodes = (
(205,259,o),
(253,259,o),
(300,259,o),
(332,259,o),
(332,259,q),
(328,297,o),
(358,356,o),
(405,407,o),
(453,460,o),
(487,522,o),
(487,563,qs),
(487,633,o),
(429,719,o),
(330,760,o),
(268,760,qs),
(200,760,o),
(88,702,o),
(47,655,q),
(47,655,o),
(77,627,o),
(117,591,o),
(147,563,o),
(147,563,q),
(170,584,o),
(215,613,o),
(244,613,qs),
(264,613,o),
(295,600,o),
(313,573,o),
(313,551,qs),
(313,528,o),
(281,482,o),
(234,433,o),
(190,375,o),
(166,304,o),
(173,259,q),
(173,259,o)
);
},
{
closed = 1;
nodes = (
(359,41,o),
(359,87,qs),
(359,135,o),
(299,200,o),
(252,200,qs),
(206,200,o),
(144,135,o),
(144,87,qs),
(144,41,o),
(206,-25,o),
(252,-25,qs),
(299,-25,o)
);
}
);
width = 533;
}
);
note = uni003F;
unicode = 63;
}
{
glyphname = at;
layers = (
{
layerId = m01;
shapes = (
{
closed = 1;
nodes = (
(573,-136,o),
(619,-107,q),
(619,-107,o),
(614,-99,o),
(609,-89,o),
(604,-81,o),
(604,-81,q),
(565,-105,o),
(475,-135,o),
(419,-135,qs),
(344,-135,o),
(223,-87,o),
(136,4,o),
(89,132,o),
(89,211,qs),
(89,309,o),
(154,468,o),
(265,582,o),
(405,643,o),
(480,643,qs),
(549,643,o),
(662,600,o),
(742,518,o),
(785,403,o),
(785,331,qs),
(785,252,o),
(734,141,o),
(661,83,o),
(626,83,qs),
(574,83,o),
(539,159,o),
(558,238,q),
(558,238,o),
(563,267,o),
(572,312,o),
(581,364,o),
(590,409,o),
(595,438,o),
(595,438,q),
(595,438,o),
(587,438,o),
(575,438,o),
(567,438,o),
(567,438,q),
(567,438,o),
(562,416,o),
(558,394,o),
(558,394,q),
(558,394,o),
(556,394,o),
(556,394,q),
(540,420,o),
(494,447,o),
(464,447,qs),
(416,447,o),
(342,401,o),
(290,328,o),
(264,243,o),
(264,205,qs),
(264,132,o),
(337,59,o),
(386,59,qs),
(424,59,o),
(490,104,o),
(519,135,q),
(519,135,o),
(521,135,o),
(521,135,q),
(524,92,o),
(581,52,o),
(623,52,qs),
(656,52,o),
(725,88,o),
(782,159,o),
(818,264,o),
(818,333,qs),
(818,436,o),
(736,589,o),
(586,674,o),
(482,674,qs),
(398,674,o),
(245,608,o),
(126,486,o),
(57,314,o),
(57,209,qs),
(57,121,o),
(110,-18,o),
(206,-115,o),
(338,-166,o),
(416,-166,qs),
(472,-166,o)
);
},
{
closed = 1;
nodes = (
(296,142,o),
(296,207,qs),
(296,243,o),
(319,317,o),
(362,378,o),
(424,416,o),
(462,416,qs),
(488,416,o),
(526,392,o),
(547,360,q),
(547,360,o),
(540,321,o),
(530,263,o),
(519,205,o),
(512,166,o),
(512,166,q),
(478,126,o),
(416,89,o),
(388,89,qs),
(351,89,o)
);
}
);
width = 874;
},
{
layerId = "2B284C16-EA14-4761-8C41-B0F9D88443D8";
shapes = (
{
closed = 1;
nodes = (
(661,-184,o),
(713,-157,q),
(713,-157,o),
(701,-126,o),
(685,-87,o),
(673,-56,o),
(673,-56,q),
(639,-74,o),
(546,-97,o),
(505,-97,qs),
(441,-97,o),
(324,-58,o),
(232,21,o),
(179,143,o),
(179,226,qs),
(179,320,o),
(243,472,o),
(351,581,o),
(487,639,o),
(558,639,qs),
(642,639,o),
(759,589,o),
(830,504,o),
(863,396,o),
(863,337,qs),
(863,279,o),
(827,191,o),
(769,142,o),
(735,142,qs),
(700,142,o),
(675,184,o),
(686,230,q),
(686,230,o),
(694,267,o),
(706,325,o),
(719,389,o),
(731,447,o),
(739,484,o),
(739,484,q),
(739,484,o),
(705,484,o),
(661,484,o),
(627,484,o),
(627,484,q),
(627,484,o),
(619,460,o),
(610,436,o),
(610,436,q),
(610,436,o),
(608,436,o),
(608,436,q),
(594,467,o),
(550,494,o),
(523,494,qs),
(474,494,o),
(390,447,o),
(327,367,o),
(292,266,o),
(292,213,qs),
(292,135,o),
(376,40,o),
(444,40,qs),
(478,40,o),
(558,81,o),
(580,116,q),
(580,116,o),
(582,116,o),
(582,116,q),
(591,74,o),
(666,29,o),
(715,29,qs),
(761,29,o),
(855,68,o),
(933,146,o),
(980,264,o),
(980,342,qs),
(980,462,o),
(880,646,o),
(698,751,o),
(573,751,qs),
(467,751,o),
(279,676,o),
(135,536,o),
(54,341,o),
(54,222,qs),
(54,111,o),
(125,-51,o),
(248,-157,o),
(405,-209,o),
(490,-209,qs),
(552,-209,o)
);
},
{
closed = 1;
nodes = (
(429,190,o),
(429,223,qs),
(429,247,o),
(443,301,o),
(469,347,o),
(507,377,o),
(530,377,qs),
(545,377,o),
(570,361,o),
(577,348,q),
(577,348,o),
(572,318,o),
(565,274,o),
(558,231,o),
(553,201,o),
(553,201,q),
(532,175,o),
(501,154,o),
(484,154,qs),
(459,154,o)
);
}
);
width = 1034;
}
);
note = uni0040;
unicode = 64;
}
{
glyphname = D;
kernRight = D;
layers = (
{
layerId = m01;
shapes = (
{
closed = 1;
nodes = (
(142,-11,o),
(190,-11,o),
(237,-11,o),
(270,-11,o),
(270,-11,q),
(382,-11,o),
(524,81,o),
(593,244,o),
(593,351,qs),
(593,458,o),
(524,619,o),
(382,708,o),
(270,708,q),
(270,708,o),
(237,708,o),
(190,708,o),
(142,708,o),
(109,708,o),
(109,708,q),
(109,708,o),
(109,647,o),
(109,545,o),
(109,417,o),
(109,280,o),
(109,152,o),
(109,50,o),
(109,-11,o),
(109,-11,q),
(109,-11,o)
);
},
{
closed = 1;
nodes = (
(144,75,o),
(144,169,o),
(144,287,o),
(144,411,o),
(144,529,o),
(144,623,o),
(144,678,o),
(144,678,q),
(144,678,o),
(181,678,o),
(229,678,o),
(266,678,o),
(266,678,q),
(369,678,o),
(496,594,o),
(556,446,o),
(556,351,qs),
(556,256,o),
(496,106,o),
(369,20,o),
(266,20,q),
(266,20,o),
(229,20,o),
(181,20,o),
(144,20,o),
(144,20,q),
(144,20,o)
);
}
);
width = 654;
},
{
layerId = "2B284C16-EA14-4761-8C41-B0F9D88443D8";
shapes = (
{
closed = 1;
nodes = (
(129,-11,o),
(196.2,-11,o),
(262,-11,o),
(307,-11,o),
(307,-11,q),
(414,-11,o),
(578,67,o),
(671,231,o),
(671,360,qs),
(671,489,o),
(577,650,o),
(409,725,o),
(297,725,q),
(297,725,o),
(254,725,o),
(190,725,o),
(127.185,725,o),
(84,725,o),
(84,725,q),
(84,725,o),
(84,662.533,o),
(84,558.079,o),
(84,427,o),
(84,286.799,o),
(84,155.808,o),
(84,51.425,o),
(84,-11,o),
(84,-11,q),
(84,-11,o)
);
},
{
closed = 1;
nodes = (
(267,172.955,o),
(267,236.114,o),
(267,315.399,o),
(267,398.715,o),
(267,478,o),
(267,541.087,o),
(267,578,o),
(267,578,q),
(267,578,o),
(272.762,578,o),
(280.238,578,o),
(286,578,o),
(286,578,q),
(343,578,o),
(433,542,o),
(484,447,o),
(484,360.5,qs),
(484,274,o),
(433,176,o),
(343,136,o),
(286,136,q),
(286,136,o),
(280.238,136,o),
(272.762,136,o),
(267,136,o),
(267,136,q),
(267,136,o)
);
}
);
width = 722;
}
);
note = uni0044;
unicode = 68;
}
{
glyphname = E;
kernRight = E;
layers = (
{
layerId = m01;
shapes = (
{
closed = 1;
nodes = (
(152,-11,o),
(223,-11,o),
(307,-11,o),
(392,-11,o),
(463,-11,o),
(506,-11,o),
(506,-11,q),
(506,-11,o),
(506,-5,o),
(506,5,o),
(506,14,o),
(506,20,o),
(506,20,q),
(506,20,o),
(454,20,o),
(371,20,o),
(279,20,o),
(196,20,o),
(144,20,o),
(144,20,q),
(144,20,o),
(144,69,o),
(144,145,o),
(144,232,o),
(144,308,o),
(144,357,o),
(144,357,q),
(144,357,o),
(186,357,o),
(253,357,o),
(329,357,o),
(396,357,o),
(438,357,o),
(438,357,q),
(438,357,o),
(438,363,o),
(438,372,o),
(438,382,o),
(438,388,o),
(438,388,q),
(438,388,o),
(396,388,o),
(329,388,o),
(253,388,o),
(186,388,o),
(144,388,o),
(144,388,q),
(144,388,o),
(144,430,o),
(144,496,o),
(144,570,o),
(144,636,o),
(144,678,o),
(144,678,q),
(144,678,o),
(195,678,o),
(275,678,o),
(364,678,o),
(444,678,o),
(495,678,o),
(495,678,q),
(495,678,o),
(495,684,o),
(495,693,o),
(495,702,o),
(495,708,o),
(495,708,q),
(495,708,o),
(453,708,o),
(384,708,o),
(302,708,o),
(220,708,o),
(151,708,o),
(109,708,o),
(109,708,q),
(109,708,o),
(109,647,o),
(109,545,o),
(109,417,o),
(109,280,o),
(109,152,o),
(109,50,o),
(109,-11,o),
(109,-11,q),
(109,-11,o)
);
}
);
width = 556;
},
{
layerId = "2B284C16-EA14-4761-8C41-B0F9D88443D8";
shapes = (
{
closed = 1;
nodes = (
(136.053,-11,o),
(222,-11,o),
(323.512,-11,o),
(426.233,-11,o),
(512.035,-11,o),
(564,-11,o),
(564,-11,q),
(564,-11,o),
(564,20,o),
(564,66,o),
(564,112.2,o),
(564,143,o),
(564,143,q),
(564,143,o),
(521.337,143,o),
(453.24,143,o),
(377.76,143,o),
(309.663,143,o),
(267,143,o),
(267,143,q),
(267,143,o),
(267,164.374,o),
(267,197.525,o),
(267,235.475,o),
(267,268.626,o),
(267,290,o),
(267,290,q),
(267,290,o),
(302,290,o),
(357.514,290,o),
(420.486,290,o),
(476,290,o),
(511,290,o),
(511,290,q),
(511,290,o),
(511,321,o),
(511,366,o),
(511,411,o),
(511,442,o),
(511,442,q),
(511,442,o),
(476,442,o),
(420.486,442,o),
(357.514,442,o),
(302,442,o),
(267,442,o),
(267,442,q),
(267,442,o),
(267,460.667,o),
(267,490,o),
(267,522.934,o),
(267,552.308,o),
(267,571,o),
(267,571,q),
(267,571,o),
(308.267,571,o),
(373,571,o),
(447,571,o),
(511.733,571,o),
(553,571,o),
(553,571,q),
(553,571,o),
(553,602,o),
(553,648.125,o),
(553,694.25,o),
(553,725,o),
(553,725,q),
(553,725,o),
(502.297,725,o),
(419,725,o),
(318.5,725,o),
(218,725,o),
(135,725,o),
(84,725,o),
(84,725,q),
(84,725,o),
(84,662.575,o),
(84,558.192,o),
(84,427.201,o),
(84,287,o),
(84,155.921,o),
(84,51.467,o),
(84,-11,o),
(84,-11,q),
(84,-11,o)
);
}
);
width = 625;
}
);
note = uni0045;
unicode = 69;
}
{
glyphname = P;
kernRight = P;
layers = (
{
layerId = m01;
shapes = (
{
closed = 1;
nodes = (
(116,-11,o),
(127,-11,o),
(137,-11,o),
(144,-11,o),
(144,-11,q),
(144,-11,o),
(144,35,o),
(144,107,o),
(144,189,o),
(144,261,o),
(144,307,o),
(144,307,q),
(144,307,o),
(173,307,o),
(215,307,o),
(257,307,o),
(286,307,o),
(286,307,q),
(367,307,o),
(479,352,o),
(538,444,o),
(538,512,qs),
(538,584,o),
(478,670,o),
(363,708,o),
(281,708,q),
(281,708,o),
(256,708,o),
(217,708,o),
(173,708,o),
(134,708,o),
(109,708,o),
(109,708,q),
(109,708,o),
(109,647,o),
(109,545,o),
(109,417,o),
(109,280,o),
(109,152,o),
(109,50,o),
(109,-11,o),
(109,-11,q),
(109,-11,o)
);
},
{
closed = 1;
nodes = (
(144,387,o),
(144,465,o),
(144,551,o),
(144,629,o),
(144,678,o),
(144,678,q),
(144,678,o),
(181,678,o),
(231,678,o),
(268,678,o),
(268,678,q),
(386,678,o),
(501,607,o),
(501,512,qs),
(501,419,o),
(389,338,o),
(273,338,q),
(273,338,o),
(234,338,o),
(183,338,o),
(144,338,o),
(144,338,q),
(144,338,o)
);
}
);
width = 591;
},
{
layerId = "2B284C16-EA14-4761-8C41-B0F9D88443D8";
shapes = (
{
closed = 1;
nodes = (
(121,-11,o),
(176,-11,o),
(230,-11,o),
(267,-11,o),
(267,-11,q),
(267,-11,o),
(267,23.669,o),
(267,77.934,o),
(267,139.735,o),
(267,194,o),
(267,229,o),
(267,229,q),
(267,229,o),
(283.951,229,o),
(308.5,229,o),
(333.049,229,o),
(350,229,o),
(350,229,q),
(428,229,o),
(561,283,o),
(642,395,o),
(642,483,qs),
(642,575,o),
(561,680,o),
(427,725,o),
(346,725,q),
(346,725,o),
(307.719,725,o),
(248,725,o),
(182,725,o),
(122.281,725,o),
(84,725,o),
(84,725,q),
(84,725,o),
(84,662.533,o),
(84,558.079,o),
(84,427,o),
(84,286.799,o),
(84,155.808,o),
(84,51.425,o),
(84,-11,o),
(84,-11,q),
(84,-11,o)
);
},
{
closed = 1;
nodes = (
(267,402.676,o),
(267,449.915,o),
(267,502,o),
(267,549.291,o),
(267,579,o),
(267,579,q),
(267,579,o),
(287.887,579,o),
(316.113,579,o),
(337,579,o),
(337,579,q),
(398,579,o),
(463,536,o),
(463,482.941,qs),
(463,431,o),
(403.07,373,o),
(341,373,q),
(341,373,o),
(318.628,373,o),
(289.372,373,o),
(267,373,o),
(267,373,q),
(267,373,o)
);
}
);
width = 681;
}
);
note = uni0050;
unicode = 80;
}
{
glyphname = Q;
kernLeft = C;
kernRight = D;
layers = (
{
layerId = m01;
shapes = (
{
closed = 1;
nodes = (
(570,69,o),
(645,237,o),
(645,351,qs),
(645,465,o),
(570,631,o),
(438,721,o),
(353,721,qs),
(268,721,o),
(136,631,o),
(61,465,o),
(61,351,qs),
(61,237,o),
(136,69,o),
(268,-24,o),
(353,-24,qs),
(438,-24,o)
);
},
{
closed = 1;
nodes = (
(162,92,o),
(98,248,o),
(98,351,qs),
(98,455,o),
(162,606,o),
(277,689,o),
(353,689,qs),
(430,689,o),
(544,606,o),
(608,455,o),
(608,351,qs),
(608,248,o),
(544,92,o),
(430,6,o),
(353,6,qs),
(277,6,o)
);
},
{
closed = 1;
nodes = (
(630,-168,o),
(643,-164,q),
(643,-164,o),
(640,-155,o),
(637,-142,o),
(634,-133,o),
(634,-133,q),
(621,-136,o),
(587,-142,o),
(562,-142,qs),
(513,-142,o),
(436,-111,o),
(382,-52,o),
(366,-11,q),
(366,-11,o),
(358,-11,o),
(346,-11,o),
(335,-11,o),
(327,-11,o),
(327,-11,q),
(343,-58,o),
(406,-133,o),
(499,-177,o),
(560,-177,qs),
(585,-177,o)
);
}
);
width = 706;
},
{
layerId = "2B284C16-EA14-4761-8C41-B0F9D88443D8";
shapes = (
{
closed = 1;
nodes = (
(643,67,o),
(728,240,o),
(728,360,qs),
(728,480,o),
(643,649,o),
(490,738,o),
(389,738,qs),
(289,738,o),
(136,649,o),
(51,481,o),
(51,360,qs),
(51,240,o),
(136,67,o),
(289,-25,o),
(389,-25,qs),
(490,-25,o)
);
},
{
closed = 1;
nodes = (
(275,180,o),
(238,285,o),
(238,360,qs),
(238,430,o),
(275,528,o),
(343,580,o),
(389,580,qs),
(436,580,o),
(504,528,o),
(540,430,o),
(540,360,qs),
(540,285,o),
(504,180,o),
(436,125,o),
(389,125,qs),
(343,125,o)
);
},
{
closed = 1;
nodes = (
(751,-206,o),
(772,-194,q),
(772,-194,o),
(762,-155,o),
(749,-103,o),
(739,-64,o),
(739,-64,q),
(723,-69,o),
(680,-75,o),
(657,-75,qs),
(624,-75,o),
(556,-58,o),
(501,-19,o),
(487,14,q),
(487,14,o),
(450,10,o),
(395,5,o),
(339,0,o),
(302,-4,o),
(302,-4,q),
(328,-67,o),
(421,-164,o),
(552,-220,o),
(635,-220,qs),
(680,-220,o)
);
}
);
width = 779;
}
);
note = uni0051;
unicode = 81;
}
{
glyphname = bracketleft;
kernRight = parenleft;
layers = (
{
layerId = m01;
shapes = (
{
closed = 1;
nodes = (
(143,-177,o),
(192,-177,o),
(241,-177,o),
(275,-177,o),
(275,-177,q),
(275,-177,o),
(275,-170,o),
(275,-160,o),
(275,-153,o),
(275,-153,q),
(275,-153,o),
(247,-153,o),
(205,-153,o),
(163,-153,o),
(135,-153,o),
(135,-153,q),
(135,-153,o),
(135,-78,o),
(135,49,o),
(135,208,o),
(135,376,o),
(135,535,o),
(135,662,o),
(135,737,o),
(135,737,q),
(135,737,o),
(163,737,o),
(205,737,o),
(247,737,o),
(275,737,o),
(275,737,q),
(275,737,o),
(275,744,o),
(275,754,o),
(275,761,o),
(275,761,q),
(275,761,o),
(241,761,o),
(192,761,o),
(143,761,o),
(109,761,o),
(109,761,q),
(109,761,o),
(109,698,o),
(109,588,o),
(109,448,o),
(109,292,o),
(109,136,o),
(109,-4,o),
(109,-114,o),
(109,-177,o),
(109,-177,q),
(109,-177,o)
);
}
);
width = 294;
},
{
layerId = "2B284C16-EA14-4761-8C41-B0F9D88443D8";
shapes = (
{
closed = 1;
nodes = (
(146,-183,o),
(220,-183,o),
(294,-183,o),
(344,-183,o),
(344,-183,q),
(344,-183,o),
(344,-154,o),
(344,-116,o),
(344,-87,o),
(344,-87,q),
(344,-87,o),
(322,-87,o),
(288.625,-87,o),
(255.25,-87,o),
(233,-87,o),
(233,-87,q),
(233,-87,o),
(233,-21.282,o),
(233,90,o),
(233,229.356,o),
(233,376.6,o),
(233,515.956,o),
(233,627.266,o),
(233,693,o),
(233,693,q),
(233,693,o),
(255.2,693,o),
(288.5,693,o),
(321.8,693,o),
(344,693,o),
(344,693,q),
(344,693,o),
(344,722,o),
(344,760,o),
(344,789,o),
(344,789,q),
(344,789,o),
(294,789,o),
(220,789,o),
(146,789,o),
(96,789,o),
(96,789,q),
(96,789,o),
(96,723,o),
(96,610,o),
(96,464.797,o),
(96,303,o),
(96,141.203,o),
(96,-4,o),
(96,-117,o),
(96,-183,o),
(96,-183,q),
(96,-183,o)
);
}
);
width = 400;
}
);
note = uni005B;
unicode = 91;
}
{
glyphname = backslash;
kernLeft = backslash;
layers = (
{
layerId = m01;
shapes = (
{
closed = 1;
nodes = (
(361,-185,o),
(374,-185,o),
(384,-185,o),
(384,-185,q),
(384,-185,o),
(360,-121,o),
(320,-10,o),
(267,131,o),
(210,289,o),
(152,447,o),
(99,588,o),
(59,699,o),
(35,763,o),
(35,763,q),
(35,763,o),
(25,763,o),
(12,763,o),
(2,763,o),
(2,763,q),
(2,763,o),
(26,699,o),
(66,588,o),
(119,447,o),
(177,289,o),
(234,131,o),
(287,-10,o),
(327,-121,o),
(351,-185,o),
(351,-185,q),
(351,-185,o)
);
}
);
width = 392;
},
{
layerId = "2B284C16-EA14-4761-8C41-B0F9D88443D8";
shapes = (
{
closed = 1;
nodes = (
(281.758,-192,o),
(328.242,-192,o),
(364,-192,o),
(364,-192,q),
(364,-192,o),
(350,-126,o),
(325,-11,o),
(294,136,o),
(259,299,o),
(224,463,o),
(193,610,o),
(168,725,o),
(154,791,o),
(154,791,q),
(154,791,o),
(118.242,791,o),
(71.758,791,o),
(36,791,o),
(36,791,q),
(36,791,o),
(50,725,o),
(75,610,o),
(106,463,o),
(141,300,o),
(176,136,o),
(207,-11,o),
(232,-126,o),
(246,-192,o),
(246,-192,q),
(246,-192,o)
);
}
);
width = 380;
}
);
note = uni005C;
unicode = 92;
}
{
glyphname = bracketright;
kernLeft = parenright;
layers = (
{
layerId = m01;
shapes = (
{
closed = 1;
nodes = (
(53,-177,o),
(103,-177,o),
(152,-177,o),
(185,-177,o),
(185,-177,q),
(185,-177,o),
(185,-114,o),
(185,-4,o),
(185,136,o),
(185,292,o),
(185,448,o),
(185,588,o),
(185,698,o),
(185,761,o),
(185,761,q),
(185,761,o),
(152,761,o),
(102,761,o),
(53,761,o),
(20,761,o),
(20,761,q),
(20,761,o),
(20,754,o),
(20,744,o),
(20,737,o),
(20,737,q),
(20,737,o),
(48,737,o),
(90,737,o),
(131,737,o),
(159,737,o),
(159,737,q),
(159,737,o),
(159,662,o),
(159,535,o),
(159,376,o),
(159,208,o),
(159,49,o),
(159,-78,o),
(159,-153,o),
(159,-153,q),
(159,-153,o),
(131,-153,o),
(89,-153,o),
(48,-153,o),
(20,-153,o),
(20,-153,q),
(20,-153,o),
(20,-160,o),
(20,-170,o),
(20,-177,o),
(20,-177,q),
(20,-177,o)
);
}
);
width = 294;
},
{
layerId = "2B284C16-EA14-4761-8C41-B0F9D88443D8";
shapes = (
{
closed = 1;
nodes = (
(107,-183,o),
(180,-183,o),
(253.5,-183,o),
(303,-183,o),
(303,-183,q),
(303,-183,o),
(303,-117,o),
(303,-4,o),
(303,142,o),
(303,303,o),
(303,464.655,o),
(303,609.729,o),
(303,723.716,o),
(303,789,o),
(303,789,q),
(303,789,o),
(253,789,o),
(180,789,o),
(106.5,789,o),
(57,789,o),
(57,789,q),
(57,789,o),
(57,760,o),
(57,722,o),
(57,693,o),
(57,693,q),
(57,693,o),
(79,693,o),
(112.297,693,o),
(144.802,693,o),
(167,693,o),
(167,693,q),
(167,693,o),
(167,627.282,o),
(167,516,o),
(167,376.644,o),
(167,229.4,o),
(167,90.044,o),
(167,-21.266,o),
(167,-87,o),
(167,-87,q),
(167,-87,o),
(144.842,-87,o),
(111.604,-87,o),
(79.158,-87,o),
(57,-87,o),
(57,-87,q),
(57,-87,o),
(57,-116,o),
(57,-154,o),
(57,-183,o),
(57,-183,q),
(57,-183,o)
);
}
);
width = 400;
}
);
note = uni005D;
unicode = 93;
}
{
glyphname = asciicircum;
layers = (
{
layerId = m01;
shapes = (
{
closed = 1;
nodes = (
(81,307,o),
(92,307,o),
(102,307,o),
(109,307,o),
(109,307,q),
(109,307,o),
(127,354,o),
(154,424,o),
(180,494,o),
(198,541,o),
(198,541,q),
(198,541,o),
(210,570,o),
(227,612,o),
(243,655,o),
(255,684,o),
(255,684,q),
(255,684,o),
(259,684,o),
(259,684,q),
(259,684,o),
(271,655,o),
(288,613,o),
(304,570,o),
(316,541,o),
(316,541,q),
(316,541,o),
(334,494,o),
(361,424,o),
(387,354,o),
(405,307,o),
(405,307,q),
(405,307,o),
(412,307,o),
(423,307,o),
(433,307,o),
(440,307,o),
(440,307,q),
(440,307,o),
(422,352,o),
(393,425,o),
(359,513,o),
(324,601,o),
(295,674,o),
(277,719,o),
(277,719,q),
(277,719,o),
(269,719,o),
(257,719,o),
(246,719,o),
(238,719,o),
(238,719,q),
(238,719,o),
(220,674,o),
(191,601,o),
(156,513,o),
(121,425,o),
(92,352,o),
(74,307,o),
(74,307,q),
(74,307,o)
);
}
);
width = 514;
},
{
layerId = "2B284C16-EA14-4761-8C41-B0F9D88443D8";
shapes = (
{
closed = 1;
nodes = (
(84,296,o),
(129,296,o),
(172.529,296,o),
(203,296,o),
(203,296,q),
(203,296,o),
(212,323,o),
(227,363,o),
(241,402,o),
(250,429,o),
(250,429,q),
(250,429,o),
(260,460,o),
(276,506,o),
(291,551,o),
(301,582,o),
(301,582,q),
(301,582,o),
(304.5,582,o),
(304.5,582,q),
(304.5,582,o),
(315,551,o),
(330.455,506.035,o),
(345,460,o),
(355,429,o),
(355,429,q),
(355,429,o),
(364.2,402.085,o),
(378,362,o),
(392,323,o),
(401,296,o),
(401,296,q),
(401,296,o),
(431,296,o),
(476,296,o),
(521,296,o),
(551,296,o),
(551,296,q),
(551,296,o),
(531.851,345.195,o),
(501,425,o),
(463,521,o),
(425.439,617.117,o),
(394.317,696.85,o),
(375,746,o),
(375,746,q),
(375,746,o),
(345.8,746,o),
(302,746,o),
(258,746,o),
(229,746,o),
(229,746,q),
(229,746,o),
(209.793,696.85,o),
(178.848,617.117,o),
(141.5,521,o),
(104.152,424.883,o),
(73.207,345.15,o),
(54,296,o),
(54,296,q),
(54,296,o)
);
}
);
width = 605;
}
);
note = uni005E;
unicode = 94;
}
{
glyphname = underscore;
layers = (
{
layerId = m01;
shapes = (
{
closed = 1;
nodes = (
(69,-135,o),
(162,-135,o),
(272,-135,o),
(383,-135,o),
(476,-135,o),
(532,-135,o),
(532,-135,q),
(532,-135,o),
(532,-124,o),
(532,-111,o),
(532,-100,o),
(532,-100,q),
(532,-100,o),
(476,-100,o),
(383,-100,o),
(273,-100,o),
(162,-100,o),
(69,-100,o),
(13,-100,o),
(13,-100,q),
(13,-100,o),
(13,-111,o),
(13,-124,o),
(13,-135,o),
(13,-135,q),
(13,-135,o)
);
}
);
width = 545;
},
{
layerId = "2B284C16-EA14-4761-8C41-B0F9D88443D8";
shapes = (
{
closed = 1;
nodes = (
(71.879,-174,o),
(168,-174,o),
(283,-174,o),
(397.415,-174,o),
(493.277,-174,o),
(551,-174,o),
(551,-174,q),
(551,-174,o),
(551,-143,o),
(551,-103,o),
(551,-72,o),
(551,-72,q),
(551,-72,o),
(493.121,-72,o),
(397,-72,o),
(283.135,-72,o),
(168.235,-72,o),
(71.968,-72,o),
(14,-72,o),
(14,-72,q),
(14,-72,o),
(14,-103,o),
(14,-143,o),
(14,-174,o),
(14,-174,q),
(14,-174,o)
);
}
);
width = 565;
}
);
note = uni005F;
unicode = 95;
}
{
glyphname = grave;
layers = (
{
layerId = m01;
shapes = (
{
closed = 1;
nodes = (
(340,610,o),
(350,610,o),
(360,610,o),
(366,610,o),
(366,610,q),
(366,610,o),
(335,643,o),
(290,692,o),
(245,741,o),
(214,774,o),
(214,774,q),
(214,774,o),
(206,774,o),
(193,774,o),
(180,774,o),
(172,774,o),
(172,774,q),
(172,774,o),
(170,769,o),
(170,769,q),
(170,769,o),
(194,746,o),
(231,710,o),
(273,669,o),
(310,633,o),
(334,610,o),
(334,610,q),
(334,610,o)
);
}
);
width = 580;
},
{
layerId = "2B284C16-EA14-4761-8C41-B0F9D88443D8";
shapes = (
{
closed = 1;
nodes = (
(305,633,o),
(346.5,633,o),
(388,633,o),
(416,633,o),
(416,633,q),
(416,633,o),
(390,676,o),
(352,738.5,o),
(314,801,o),
(288,844,o),
(288,844,q),
(288,844,o),
(249,844,o),
(192.5,844,o),
(136,844,o),
(97,844,o),
(97,844,q),
(97,844,o),
(86,825,o),
(86,825,q),
(86,825,o),
(113.951,797.226,o),
(157.043,753.755,o),
(205.957,704.245,o),
(249.049,660.774,o),
(277,633,o),
(277,633,q),
(277,633,o)
);
}
);
width = 631;
}
);
note = uni0060;
unicode = 96;
}
{
glyphname = b;
kernRight = b;
layers = (
{
layerId = m01;
shapes = (
{
closed = 1;
nodes = (
(466,43,o),
(530,169,o),
(530,257,qs),
(530,338,o),
(484,457,o),
(391,523,o),
(320,523,qs),
(271,523,o),
(176,473,o),
(135,438,q),
(135,438,o),
(136,470,o),
(136,511,o),
(137,543,o),
(137,543,q),
(137,543,o),
(137,590,o),
(137,660,o),
(137,729,o),
(137,776,o),
(137,776,q),
(137,776,o),
(131,776,o),
(121,776,o),
(111,776,o),
(105,776,o),
(105,776,q),
(105,776,o),
(105,710,o),
(105,597,o),
(105,457,o),
(105,308,o),
(105,168,o),
(105,55,o),
(105,-11,o),
(105,-11,q),
(105,-11,o),
(111,-11,o),
(119,-11,o),
(127,-11,o),
(133,-11,o),
(133,-11,q),
(133,-11,o),
(135,15,o),
(137,41,o),
(137,41,q),
(137,41,o),
(140,41,o),
(140,41,q),
(178,12,o),
(262,-24,o),
(299,-24,qs),
(361,-24,o)
);
},
{
closed = 1;
nodes = (
(183,39,o),
(137,78,q),
(137,78,o),
(137,125,o),
(137,198,o),
(137,281,o),
(137,354,o),
(137,401,o),
(137,401,q),
(187,445,o),
(278,493,o),
(318,493,qs),
(383,493,o),
(460,430,o),
(495,324,o),
(495,257,qs),
(495,184,o),
(445,71,o),
(358,6,o),
(301,6,qs),
(270,6,o)
);
}
);
width = 586;
},
{
layerId = "2B284C16-EA14-4761-8C41-B0F9D88443D8";
shapes = (
{
closed = 1;
nodes = (
(543,47,o),
(610,184,o),
(610,281,qs),
(610,367,o),
(556,495,o),
(457,565,o),
(390,565,qs),
(351.889,565,o),
(278,535,o),
(247,507,q),
(247,507,o),
(249,532,o),
(250,565,o),
(252,590,o),
(252,590,q),
(252,590,o),
(252,627.923,o),
(252,684.403,o),
(252,740.077,o),
(252,778,o),
(252,778,q),
(252,778,o),
(215,778,o),
(160.5,778,o),
(106,778,o),
(69,778,o),
(69,778,q),
(69,778,o),
(69,711.817,o),
(69,598.503,o),
(69,458.115,o),
(69,308.702,o),
(69,168.313,o),
(69,55,o),
(69,-11,o),
(69,-11,q),
(69,-11,o),
(98,-11,o),
(140,-11,o),
(182,-11,o),
(211,-11,o),
(211,-11,q),
(211,-11,o),
(219,19,o),
(226,50,o),
(226,50,q),
(226,50,o),
(231,50,o),
(231,50,q),
(264,13,o),
(337,-25,o),
(375,-25,qs),
(435,-25,o)
);
},
{
closed = 1;
nodes = (
(271,139,o),
(252,155,q),
(252,155,o),
(252,186,o),
(252,236,o),
(252,291,o),
(252,341,o),
(252,372,o),
(252,372,q),
(272,396,o),
(313,416,o),
(337,416,qs),
(366,416,o),
(404,387,o),
(423,325,o),
(423,277,qs),
(423,222,o),
(398,155,o),
(356,125,o),
(331,125,qs),
(312,125,o)
);
}
);
width = 652;
}
);
note = uni0062;
unicode = 98;
}
{
glyphname = c;
kernLeft = c;
kernRight = c;
layers = (
{
layerId = m01;
shapes = (
{
closed = 1;
nodes = (
(425,15,o),
(458,48,q),
(458,48,o),
(452,54,o),
(444,61,o),
(438,67,o),
(438,67,q),
(412,41,o),
(336,6,o),
(292,6,qs),
(232,6,o),
(143,67,o),
(94,177,o),
(94,248,qs),
(94,320,o),
(147,431,o),
(237,493,o),
(292,493,qs),
(335,493,o),
(400,463,o),
(425,438,q),
(425,438,o),
(429,442,o),
(435,448,o),
(441,454,o),
(445,458,o),
(445,458,q),
(419,486,o),
(346,523,o),
(292,523,qs),
(230,523,o),
(124,458,o),
(59,336,o),
(59,248,qs),
(59,162,o),
(120,40,o),
(226,-24,o),
(292,-24,qs),
(343,-24,o)
);
}
);
width = 486;
},
{
layerId = "2B284C16-EA14-4761-8C41-B0F9D88443D8";
shapes = (
{
closed = 1;
nodes = (
(472,11,o),
(506,43,q),
(506,43,o),
(485,77,o),
(456,122,o),
(435,156,o),
(435,156,q),
(415,140,o),
(368,122,o),
(342,122,qs),
(309,122,o),
(256,159,o),
(225,225,o),
(225,270,qs),
(225,316,o),
(255,382,o),
(310,418,o),
(347,418,qs),
(369,418,o),
(402,405,o),
(416,394,q),
(416,394,o),
(433,417,o),
(459,451,o),
(484,484,o),
(501,507,o),
(501,507,q),
(470,534,o),
(388,565,o),
(337,565,qs),
(258,565,o),
(122,496,o),
(38,364,o),
(38,270,qs),
(38,177,o),
(113,45,o),
(242,-25,o),
(324,-25,qs),
(375,-25,o)
);
}
);
width = 531;
}
);
note = uni0063;
unicode = 99;
}
{
glyphname = i;
kernLeft = i;
layers = (
{
layerId = m01;
shapes = (
{
closed = 1;
nodes = (
(111,-11,o),
(121,-11,o),
(131,-11,o),
(137,-11,o),
(137,-11,q),
(137,-11,o),
(137,45,o),
(137,138,o),
(137,249,o),
(137,361,o),
(137,454,o),
(137,510,o),
(137,510,q),
(137,510,o),
(131,510,o),
(121,510,o),
(111,510,o),
(105,510,o),
(105,510,q),
(105,510,o),
(105,454,o),
(105,361,o),
(105,250,o),
(105,138,o),
(105,45,o),
(105,-11,o),
(105,-11,q),
(105,-11,o)
);
},
{
closed = 1;
nodes = (
(155,664,o),
(155,682,qs),
(155,699,o),
(135,719,o),
(120,719,qs),
(105,719,o),
(85,699,o),
(85,682,qs),
(85,664,o),
(105,643,o),
(120,643,qs),
(135,643,o)
);
}
);
width = 242;
},
{
layerId = "2B284C16-EA14-4761-8C41-B0F9D88443D8";
shapes = (
{
closed = 1;
nodes = (
(106,-11,o),
(160.5,-11,o),
(215,-11,o),
(252,-11,o),
(252,-11,q),
(252,-11,o),
(252,49.51,o),
(252,150,o),
(252,269.952,o),
(252,390.984,o),
(252,491.484,o),
(252,552,o),
(252,552,q),
(252,552,o),
(215,552,o),
(160.5,552,o),
(106,552,o),
(69,552,o),
(69,552,q),
(69,552,o),
(69,491.49,o),
(69,391,o),
(69,271.048,o),
(69,150.016,o),
(69,49.516,o),
(69,-11,o),
(69,-11,q),
(69,-11,o)
);
},
{
closed = 1;
nodes = (
(262,678,o),
(262,720,qs),
(262,762.73,o),
(205,813,o),
(160.5,813,qs),
(116,813,o),
(59,762.73,o),
(59,720,qs),
(59,678,o),
(116,627,o),
(160.5,627,qs),
(205,627,o)
);
}
);
width = 320;
}
);
note = uni0069;
unicode = 105;
}
{
glyphname = j;
kernLeft = j;
layers = (
{
layerId = m01;
shapes = (
{
closed = 1;
nodes = (
(114,-236,o),
(137,-172,o),
(137,-122,q),
(137,-122,o),
(137,-54,o),
(137,59,o),
(137,194,o),
(137,329,o),
(137,442,o),
(137,510,o),
(137,510,q),
(137,510,o),
(131,510,o),
(121,510,o),
(111,510,o),
(105,510,o),
(105,510,q),
(105,510,o),
(105,442,o),
(105,330,o),
(105,196,o),
(105,62,o),
(105,-50,o),
(105,-118,o),
(105,-118,q),
(105,-168,o),
(79,-236,o),
(33,-236,qs),
(18,-236,o),
(-14,-228,o),
(-24,-225,q),
(-24,-225,o),
(-26,-230,o),
(-28,-238,o),
(-31,-246,o),
(-33,-251,o),
(-33,-251,q),
(-21,-258,o),
(16,-266,o),
(31,-266,qs),
(67,-266,o)
);
},
{
closed = 1;
nodes = (
(155,664,o),
(155,682,qs),
(155,699,o),
(135,719,o),
(120,719,qs),
(105,719,o),
(85,699,o),
(85,682,qs),
(85,664,o),
(105,643,o),
(120,643,qs),
(135,643,o)
);
}
);
width = 242;
},
{
layerId = "2B284C16-EA14-4761-8C41-B0F9D88443D8";
shapes = (
{
closed = 1;
nodes = (
(215,-162,o),
(253,-54,o),
(253,8,q),
(253,8,o),
(253,66.608,o),
(253,164,o),
(253,280.142,o),
(253,396.284,o),
(253,493.499,o),
(253,552,o),
(253,552,q),
(253,552,o),
(216,552,o),
(162,552,o),
(108,552,o),
(71,552,o),
(71,552,q),
(71,552,o),
(71,492.554,o),
(71,394.643,o),
(71,277.5,o),
(71,160.357,o),
(71,62.446,o),
(71,3,o),
(71,3,q),
(71,-44,o),
(44,-84,o),
(12,-84,qs),
(2.426,-84,o),
(-18,-81,o),
(-29,-78,q),
(-29,-78,o),
(-35,-105,o),
(-45,-144,o),
(-55,-184,o),
(-61,-211,o),
(-61,-211,q),
(-43,-218,o),
(5,-227,o),
(42,-227,qs),
(124,-227,o)
);
},
{
closed = 1;
nodes = (
(263,678,o),
(263,720,qs),
(263,762.73,o),
(206,813,o),
(161.5,813,qs),
(117,813,o),
(60,762.73,o),
(60,720,qs),
(60,678,o),
(117,627,o),
(161.5,627,qs),
(206,627,o)
);
}
);
width = 322;
}
);
note = uni006A;
unicode = 106;
}
{
glyphname = k;
kernRight = k;
layers = (
{
layerId = m01;
shapes = (
{
closed = 1;
nodes = (
(111,-11,o),
(121,-11,o),
(131,-11,o),
(137,-11,o),
(137,-11,q),
(137,-11,o),
(137,18,o),
(137,61,o),
(137,104,o),
(137,133,o),
(137,133,q),
(137,133,o),
(162,162,o),
(200,206,o),
(237,250,o),
(262,279,o),
(262,279,q),
(262,279,o),
(288,237,o),
(329,171,o),
(376,97,o),
(417,31,o),
(443,-11,o),
(443,-11,q),
(443,-11,o),
(450,-11,o),
(462,-11,o),
(473,-11,o),
(480,-11,o),
(480,-11,q),
(480,-11,o),
(451,35,o),
(406,107,o),
(355,187,o),
(310,259,o),
(281,305,o),
(281,305,q),
(281,305,o),
(305,335,o),
(344,381,o),
(386,434,o),
(425,480,o),
(449,510,o),
(449,510,q),
(449,510,o),
(441,510,o),
(429,510,o),
(418,510,o),
(410,510,o),
(410,510,q),
(410,510,o),
(381,474,o),
(333,415,o),
(275,345,o),
(217,274,o),
(169,215,o),
(140,179,o),
(140,179,q),
(140,179,o),
(137,179,o),
(137,179,q),
(137,179,o),
(137,244,o),
(137,350,o),
(137,478,o),
(137,605,o),
(137,711,o),
(137,776,o),
(137,776,q),
(137,776,o),
(131,776,o),
(121,776,o),
(111,776,o),
(105,776,o),
(105,776,q),
(105,776,o),
(105,710,o),
(105,597,o),
(105,457,o),
(105,308,o),
(105,168,o),
(105,55,o),
(105,-11,o),
(105,-11,q),
(105,-11,o)
);
}
);
width = 493;
},
{
layerId = "2B284C16-EA14-4761-8C41-B0F9D88443D8";
shapes = (
{
closed = 1;
nodes = (
(106,-11,o),
(159.5,-11,o),
(213,-11,o),
(250,-11,o),
(250,-11,q),
(250,-11,o),
(250,16.993,o),
(250,58.5,o),
(250,100.007,o),
(250,128,o),
(250,128,q),
(250,128,o),
(262,142,o),
(280.62,162.684,o),
(298.75,183.368,o),
(311,197,o),
(311,197,q),
(311,197,o),
(328.075,167.056,o),
(355,120,o),
(385,66,o),
(411.925,18.944,o),
(429,-11,o),
(429,-11,q),
(429,-11,o),
(469,-11,o),
(528,-11,o),
(587,-11,o),
(627,-11,o),
(627,-11,q),
(627,-11,o),
(597,36,o),
(549.128,111.214,o),
(494.872,194.786,o),
(447,270,o),
(417,317,o),
(417,317,q),
(417,317,o),
(446,351,o),
(491,404,o),
(541,465,o),
(586,518,o),
(615,552,o),
(615,552,q),
(615,552,o),
(575,552,o),
(515,552,o),
(455,552,o),
(415,552,o),
(415,552,q),
(415,552,o),
(397.72,529.729,o),
(369.119,493.229,o),
(334.56,449.924,o),
(300,406,o),
(271.325,369.358,o),
(254,347,o),
(254,347,q),
(254,347,o),
(250,347,o),
(250,347,q),
(250,347,o),
(250,394.135,o),
(250,471,o),
(250,562.859,o),
(250,654,o),
(250,730.865,o),
(250,778,o),
(250,778,q),
(250,778,o),
(213,778,o),
(159.5,778,o),
(106,778,o),
(69,778,o),
(69,778,q),
(69,778,o),
(69,711.817,o),
(69,598.503,o),
(69,458.115,o),
(69,308.702,o),
(69,168.313,o),
(69,55,o),
(69,-11,o),
(69,-11,q),
(69,-11,o)
);
}
);
width = 633;
}
);
note = uni006B;
unicode = 107;
}
{
glyphname = m;
kernLeft = m;
kernRight = h;
layers = (
{
layerId = m01;
shapes = (
{
closed = 1;
nodes = (
(111,-11,o),
(121,-11,o),
(131,-11,o),
(137,-11,o),
(137,-11,q),
(137,-11,o),
(137,47,o),
(137,138,o),
(137,239,o),
(137,330,o),
(137,388,o),
(137,388,q),
(229,493,o),
(303,493,qs),
(367,493,o),
(427,407,o),
(427,320,q),
(427,320,o),
(427,272,o),
(427,197,o),
(427,112,o),
(427,37,o),
(427,-11,o),
(427,-11,q),
(427,-11,o),
(434,-11,o),
(444,-11,o),
(453,-11,o),
(460,-11,o),
(460,-11,q),
(460,-11,o),
(460,47,o),
(460,138,o),
(460,239,o),
(460,330,o),
(460,388,o),
(460,388,q),
(506,441,o),
(586,493,o),
(626,493,qs),
(690,493,o),
(750,407,o),
(750,320,q),
(750,320,o),
(750,272,o),
(750,197,o),
(750,112,o),
(750,37,o),
(750,-11,o),
(750,-11,q),
(750,-11,o),
(757,-11,o),
(767,-11,o),
(776,-11,o),
(783,-11,o),
(783,-11,q),
(783,-11,o),
(783,38,o),
(783,114,o),
(783,200,o),
(783,276,o),
(783,325,o),
(783,325,q),
(783,426,o),
(705,523,o),
(628,523,qs),
(584,523,o),
(495,465,o),
(449,414,q),
(436,464,o),
(369,523,o),
(305,523,qs),
(263,523,o),
(175,468,o),
(140,427,q),
(140,427,o),
(137,427,o),
(137,427,q),
(137,427,o),
(136,452,o),
(134,485,o),
(133,510,o),
(133,510,q),
(133,510,o),
(127,510,o),
(119,510,o),
(111,510,o),
(105,510,o),
(105,510,q),
(105,510,o),
(105,454,o),
(105,361,o),
(105,250,o),
(105,138,o),
(105,45,o),
(105,-11,o),
(105,-11,q),
(105,-11,o)
);
}
);
width = 879;
},
{
layerId = "2B284C16-EA14-4761-8C41-B0F9D88443D8";
shapes = (
{
closed = 1;
nodes = (
(106,-11,o),
(160.5,-11,o),
(215,-11,o),
(252,-11,o),
(252,-11,q),
(252,-11,o),
(252,43.107,o),
(252,128,o),
(252,224,o),
(252,308.893,o),
(252,363,o),
(252,363,q),
(299.108,410,o),
(337,410,qs),
(369,410,o),
(399,370,o),
(399,313,q),
(399,313,o),
(399,265.78,o),
(399,192,o),
(399,110,o),
(399,36.22,o),
(399,-11,o),
(399,-11,q),
(399,-11,o),
(436.471,-11,o),
(490,-11,o),
(545,-11,o),
(582,-11,o),
(582,-11,q),
(582,-11,o),
(582,43.107,o),
(582,128,o),
(582,224,o),
(582,308.893,o),
(582,363,o),
(582,363,q),
(606,387,o),
(649,410,o),
(668,410,qs),
(700,410,o),
(729,370,o),
(729,313,q),
(729,313,o),
(729,265.78,o),
(729,192,o),
(729,110,o),
(729,36.22,o),
(729,-11,o),
(729,-11,q),
(729,-11,o),
(766,-11,o),
(821,-11,o),
(875,-11,o),
(912,-11,o),
(912,-11,q),
(912,-11,o),
(912,39,o),
(912,119,o),
(912,207,o),
(912,287,o),
(912,337,o),
(912,337,q),
(912,442,o),
(827,565,o),
(735,565,qs),
(678,565,o),
(596,510,o),
(560,474,q),
(538,519,o),
(464,565,o),
(405,565,qs),
(348,565,o),
(269,516,o),
(235,482,q),
(235,482,o),
(231,482,o),
(231,482,q),
(231,482,o),
(227,503,o),
(222,531,o),
(218,552,o),
(218,552,q),
(218,552,o),
(188,552,o),
(143.5,552,o),
(99,552,o),
(69,552,o),
(69,552,q),
(69,552,o),
(69,491.49,o),
(69,391,o),
(69,271.048,o),
(69,150.016,o),
(69,49.516,o),
(69,-11,o),
(69,-11,q),
(69,-11,o)
);
}
);
width = 976;
}
);
note = uni006D;
unicode = 109;
}
{
glyphname = o;
kernLeft = c;
kernRight = b;
layers = (
{
layerId = m01;
shapes = (
{
closed = 1;
nodes = (
(457,40,o),
(521,162,o),
(521,248,qs),
(521,336,o),
(457,458,o),
(352,523,o),
(290,523,qs),
(228,523,o),
(123,458,o),
(59,336,o),
(59,248,qs),
(59,184,o),
(96,83,o),
(160,12,o),
(244,-24,o),
(290,-24,qs),
(352,-24,o)
);
},
{
closed = 1;
nodes = (
(146,67,o),
(94,177,o),
(94,248,qs),
(94,320,o),
(146,431,o),
(235,493,o),
(290,493,qs),
(346,493,o),
(434,431,o),
(486,320,o),
(486,248,qs),
(486,177,o),
(434,67,o),
(346,6,o),
(290,6,qs),
(235,6,o)
);
}
);
width = 580;
},
{
layerId = "2B284C16-EA14-4761-8C41-B0F9D88443D8";
shapes = (
{
closed = 1;
nodes = (
(514,45,o),
(592,177,o),
(592,270,qs),
(592,364,o),
(514,496,o),
(387,565,o),
(315,565,qs),
(243,565,o),
(117,496,o),
(38,364,o),
(38,270,qs),
(38,200,o),
(84,91,o),
(162,15,o),
(261,-25,o),
(315,-25,qs),
(387,-25,o)
);
},
{
closed = 1;
nodes = (
(244,159,o),
(225,225,o),
(225,270,qs),
(225,316,o),
(244,382,o),
(284,418,o),
(315,418,qs),
(347,418,o),
(387,382,o),
(406,316,o),
(406,270,qs),
(406,225,o),
(387,159,o),
(347,122,o),
(315,122,qs),
(284,122,o)
);
}
);
width = 631;
}
);
note = uni006F;
unicode = 111;
}
{
glyphname = q;
kernLeft = c;
kernRight = q;
layers = (
{
layerId = m01;
shapes = (
{
closed = 1;
nodes = (
(458,-253,o),
(468,-253,o),
(477,-253,o),
(484,-253,o),
(484,-253,q),
(484,-253,o),
(484,-189,o),
(484,-80,o),
(484,56,o),
(484,201,o),
(484,337,o),
(484,446,o),
(484,510,o),
(484,510,q),
(484,510,o),
(478,510,o),
(470,510,o),
(462,510,o),
(456,510,o),
(456,510,q),
(456,510,o),
(454,486,o),
(451,462,o),
(451,462,q),
(451,462,o),
(449,462,o),
(449,462,q),
(412,490,o),
(339,523,o),
(292,523,qs),
(229,523,o),
(123,456,o),
(59,332,o),
(59,248,qs),
(59,160,o),
(112,39,o),
(210,-24,o),
(275,-24,qs),
(329,-24,o),
(417,27,o),
(453,61,q),
(453,61,o),
(452,29,o),
(452,-14,o),
(451,-46,o),
(451,-46,q),
(451,-46,o),
(451,-88,o),
(451,-149,o),
(451,-211,o),
(451,-253,o),
(451,-253,q),
(451,-253,o)
);
},
{
closed = 1;
nodes = (
(136,67,o),
(94,177,o),
(94,248,qs),
(94,316,o),
(146,427,o),
(235,493,o),
(290,493,qs),
(331,493,o),
(407,460,o),
(451,421,q),
(451,421,o),
(451,374,o),
(451,301,o),
(451,218,o),
(451,145,o),
(451,98,o),
(451,98,q),
(407,54,o),
(323,6,o),
(277,6,qs),
(218,6,o)
);
}
);
width = 589;
},
{
layerId = "2B284C16-EA14-4761-8C41-B0F9D88443D8";
shapes = (
{
closed = 1;
nodes = (
(438.471,-213,o),
(492,-213,o),
(546,-213,o),
(583,-213,o),
(583,-213,q),
(583,-213,o),
(583,-148.63,o),
(583,-39,o),
(583,97,o),
(583,242,o),
(583,378.44,o),
(583,487.793,o),
(583,552,o),
(583,552,q),
(583,552,o),
(554,552,o),
(512,552,o),
(470,552,o),
(441,552,o),
(441,552,q),
(441,552,o),
(433,524,o),
(425.8,496,o),
(425.8,496,q),
(425.8,496,o),
(421,496,o),
(421,496,q),
(388,533,o),
(318.042,565,o),
(273,565,qs),
(215,565,o),
(109,495,o),
(42,363,o),
(42,270,qs),
(42,179,o),
(99,46,o),
(202,-25,o),
(272,-25,qs),
(308,-25,o),
(381,8,o),
(407,34,q),
(407,34,o),
(405,9,o),
(403,-23,o),
(401,-48.081,o),
(401,-48.081,q),
(401,-48.081,o),
(401,-81,o),
(401,-131,o),
(401,-179.885,o),
(401,-213,o),
(401,-213,q),
(401,-213,o)
);
},
{
closed = 1;
nodes = (
(251,155,o),
(229,221,o),
(229,273,qs),
(229,324,o),
(254,387,o),
(295,416,o),
(318,416,qs),
(338,416,o),
(382,403,o),
(401,386,q),
(401,386,o),
(401,355,o),
(401,305,o),
(401,250,o),
(401,200,o),
(401,169,o),
(401,169,q),
(383,144,o),
(345,125,o),
(321,125,qs),
(291.709,125,o)
);
}
);
width = 652;
}
);
note = uni0071;
unicode = 113;
}
{
glyphname = r;
kernLeft = m;
kernRight = r;
layers = (
{
layerId = m01;
shapes = (
{
closed = 1;
nodes = (
(111,-11,o),
(121,-11,o),
(131,-11,o),
(137,-11,o),
(137,-11,q),
(137,-11,o),
(137,41,o),
(137,124,o),
(137,216,o),
(137,299,o),
(137,351,o),
(137,351,q),
(169,428,o),
(247,490,o),
(283,490,qs),
(298,490,o),
(317,487,o),
(327,484,q),
(327,484,o),
(329,490,o),
(333,498,o),
(336,506,o),
(338,512,o),
(338,512,q),
(325,519,o),
(301,523,o),
(288,523,qs),
(239,523,o),
(164,459,o),
(140,412,q),
(140,412,o),
(137,412,o),
(137,412,q),
(137,412,o),
(136,442,o),
(134,480,o),
(133,510,o),
(133,510,q),
(133,510,o),
(127,510,o),
(119,510,o),
(111,510,o),
(105,510,o),
(105,510,q),
(105,510,o),
(105,454,o),
(105,361,o),
(105,250,o),
(105,138,o),
(105,45,o),
(105,-11,o),
(105,-11,q),
(105,-11,o)
);
}
);
width = 334;
},
{
layerId = "2B284C16-EA14-4761-8C41-B0F9D88443D8";
shapes = (
{
closed = 1;
nodes = (
(106,-11,o),
(160.5,-11,o),
(215,-11,o),
(252,-11,o),
(252,-11,q),
(252,-11,o),
(252,34.823,o),
(252,107.964,o),
(252,189.036,o),
(252,262.177,o),
(252,308,o),
(252,308,q),
(273,362,o),
(340.737,406,o),
(372,406,qs),
(390,406,o),
(414,403,o),
(429,399,q),
(429,399,o),
(436,430,o),
(446,477,o),
(456,523,o),
(463,554,o),
(463,554,q),
(451,560,o),
(420,565,o),
(394,565,qs),
(353,565,o),
(266,511,o),
(234.889,455,q),
(234.889,455,o),
(231,455,o),
(231,455,q),
(231,455,o),
(227,484,o),
(222,523,o),
(218,552,o),
(218,552,q),
(218,552,o),
(188,552,o),
(143.5,552,o),
(99,552,o),
(69,552,o),
(69,552,q),
(69,552,o),
(69,491.49,o),
(69,391,o),
(69,271.048,o),
(69,150.016,o),
(69,49.516,o),
(69,-11,o),
(69,-11,q),
(69,-11,o)
);
}
);
width = 463;
}
);
note = uni0072;
unicode = 114;
}
{
glyphname = v;
kernLeft = v;
kernRight = v;
layers = (
{
layerId = m01;
shapes = (
{
closed = 1;
nodes = (
(219,-11,o),
(231,-11,o),
(243,-11,o),
(251,-11,o),
(251,-11,q),
(251,-11,o),
(272,45,o),
(307,138,o),
(349,249,o),
(391,361,o),
(426,454,o),
(447,510,o),
(447,510,q),
(447,510,o),
(440,510,o),
(430,510,o),
(419,510,o),
(412,510,o),
(412,510,q),
(412,510,o),
(394,461,o),
(366,384,o),
(334,298,o),
(306,221,o),
(288,172,o),
(288,172,q),
(275,135,o),
(247,59,o),
(233,24,q),
(233,24,o),
(229,24,o),
(229,24,q),
(216,59,o),
(188,135,o),
(174,172,q),
(174,172,o),
(156,221,o),
(128,298,o),
(96,384,o),
(68,461,o),
(50,510,o),
(50,510,q),
(50,510,o),
(43,510,o),
(32,510,o),
(20,510,o),
(13,510,o),
(13,510,q),
(13,510,o),
(34,454,o),
(70,361,o),
(112,250,o),
(154,138,o),
(190,45,o),
(211,-11,o),
(211,-11,q),
(211,-11,o)
);
}
);
width = 460;
},
{
layerId = "2B284C16-EA14-4761-8C41-B0F9D88443D8";
shapes = (
{
closed = 1;
nodes = (
(243,-11,o),
(305.5,-11,o),
(368,-11,o),
(411,-11,o),
(411,-11,q),
(411,-11,o),
(431,50,o),
(462.818,150.276,o),
(501,269.961,o),
(539.182,390.724,o),
(571,491,o),
(591,552,o),
(591,552,q),
(591,552,o),
(556,552,o),
(504,552,o),
(452,552,o),
(417,552,o),
(417,552,q),
(417,552,o),
(407.274,515.322,o),
(392.145,457.686,o),
(374.855,393.314,o),
(359.726,335.678,o),
(350,299,o),
(350,299,q),
(340.171,256.106,o),
(319,168,o),
(308,123,q),
(308,123,o),
(304,123,o),
(304,123,q),
(294,168,o),
(272.667,256.106,o),
(262,299,q),
(262,299,o),
(253,336,o),
(238.045,393.429,o),
(220.955,457.571,o),
(206,515,o),
(197,552,o),
(197,552,q),
(197,552,o),
(160,552,o),
(106,552,o),
(51,552,o),
(14,552,o),
(14,552,q),
(14,552,o),
(34,491,o),
(67,391,o),
(107,271.04,o),
(147,150,o),
(180,50,o),
(200,-11,o),
(200,-11,q),
(200,-11,o)
);
}
);
width = 605;
}
);
note = uni0076;
unicode = 118;
}
{
glyphname = x;
kernLeft = x;
kernRight = x;
layers = (
{
layerId = m01;
shapes = (
{
closed = 1;
nodes = (
(22,-11,o),
(33,-11,o),
(43,-11,o),
(50,-11,o),
(50,-11,q),
(50,-11,o),
(69,19,o),
(98,64,o),
(127,109,o),
(146,139,o),
(146,139,q),
(163,164,o),
(193,213,o),
(209,235,q),
(209,235,o),
(214,235,o),
(214,235,q),
(230,213,o),
(262,164,o),
(277,139,q),
(277,139,o),
(297,109,o),
(326,64,o),
(355,19,o),
(375,-11,o),
(375,-11,q),
(375,-11,o),
(382,-11,o),
(394,-11,o),
(405,-11,o),
(412,-11,o),
(412,-11,q),
(412,-11,o),
(386,28,o),
(345,90,o),
(300,159,o),
(259,220,o),
(233,259,o),
(233,259,q),
(233,259,o),
(257,295,o),
(294,352,o),
(336,417,o),
(373,474,o),
(397,510,o),
(397,510,q),
(397,510,o),
(390,510,o),
(380,510,o),
(369,510,o),
(362,510,o),
(362,510,q),
(362,510,o),
(344,482,o),
(319,441,o),
(293,399,o),
(275,371,o),
(275,371,q),
(260,349,o),
(233,307,o),
(218,285,q),
(218,285,o),
(214,285,o),
(214,285,q),
(199,307,o),
(170,349,o),
(157,371,q),
(157,371,o),
(139,399,o),
(113,441,o),
(86,482,o),
(68,510,o),
(68,510,q),
(68,510,o),
(61,510,o),
(50,510,o),
(38,510,o),
(31,510,o),
(31,510,q),
(31,510,o),
(55,474,o),
(92,418,o),
(133,354,o),
(170,298,o),
(194,262,o),
(194,262,q),
(194,262,o),
(168,223,o),
(127,160,o),
(82,91,o),
(41,28,o),
(15,-11,o),
(15,-11,q),
(15,-11,o)
);
}
);
width = 427;
},
{
layerId = "2B284C16-EA14-4761-8C41-B0F9D88443D8";
shapes = (
{
closed = 1;
nodes = (
(54,-11,o),
(111,-11,o),
(167,-11,o),
(205,-11,o),
(205,-11,q),
(205,-11,o),
(212,6,o),
(224,32,o),
(234.875,57.2,o),
(242,74,o),
(242,74,q),
(251,99,o),
(273,147,o),
(283,171,q),
(283,171,o),
(287.048,171,o),
(287.048,171,q),
(300,147,o),
(325,97,o),
(338,74,q),
(338,74,o),
(347.796,57,o),
(362,31.5,o),
(376.204,6,o),
(386,-11,o),
(386,-11,q),
(386,-11,o),
(426,-11,o),
(484,-11,o),
(542,-11,o),
(582,-11,o),
(582,-11,q),
(582,-11,o),
(557.164,28,o),
(518,90,o),
(475.009,159.817,o),
(435.839,221.538,o),
(411,261,o),
(411,261,q),
(411,261,o),
(434,303,o),
(471,368.916,o),
(513,444.084,o),
(550,510,o),
(573,552,o),
(573,552,q),
(573,552,o),
(535,552,o),
(478,552,o),
(421,552,o),
(383,552,o),
(383,552,q),
(383,552,o),
(377,535,o),
(367.196,510.301,o),
(357,485,o),
(351,468,o),
(351,468,q),
(344,444,o),
(324,396,o),
(316,372,q),
(316,372,o),
(312,372,o),
(312,372,q),
(300,396,o),
(277,444,o),
(266,468,q),
(266,468,o),
(256.899,484.921,o),
(243.753,510.302,o),
(230.101,535.079,o),
(221,552,o),
(221,552,q),
(221,552,o),
(181,552,o),
(123,552,o),
(65,552,o),
(25,552,o),
(25,552,q),
(25,552,o),
(48,513,o),
(85,452.333,o),
(126,383,o),
(163,321,o),
(186,282,o),
(186,282,q),
(186,282,o),
(161,240,o),
(123,173,o),
(79,98,o),
(41,31,o),
(16,-11,o),
(16,-11,q),
(16,-11,o)
);
}
);
width = 598;
}
);
note = uni0078;
unicode = 120;
}
{
glyphname = braceleft;
kernRight = parenleft;
layers = (
{
layerId = m01;
shapes = (
{
closed = 1;
nodes = (
(252,-177,o),
(265,-177,o),
(275,-177,o),
(275,-177,q),
(275,-177,o),
(275,-170,o),
(275,-160,o),
(275,-153,o),
(275,-153,q),
(275,-153,o),
(258,-153,o),
(240,-153,o),
(240,-153,q),
(188,-153,o),
(153,-93,o),
(153,-35,qs),
(153,19,o),
(159,118,o),
(159,179,qs),
(159,223,o),
(138,280,o),
(107,290,q),
(107,290,o),
(107,294,o),
(107,294,q),
(138,304,o),
(159,359,o),
(159,405,qs),
(159,466,o),
(153,565,o),
(153,619,qs),
(153,678,o),
(188,737,o),
(240,737,q),
(240,737,o),
(258,737,o),
(275,737,o),
(275,737,q),
(275,737,o),
(275,744,o),
(275,754,o),
(275,761,o),
(275,761,q),
(275,761,o),
(265,761,o),
(252,761,o),
(242,761,o),
(242,761,q),
(184,761,o),
(124,705,o),
(124,623,qs),
(124,583,o),
(128,507,o),
(133,432,o),
(133,392,qs),
(133,371,o),
(118,331,o),
(78,305,o),
(39,305,q),
(39,305,o),
(39,297,o),
(39,287,o),
(39,279,o),
(39,279,q),
(78,279,o),
(118,253,o),
(133,213,o),
(133,190,qs),
(133,152,o),
(128,77,o),
(124,1,o),
(124,-39,qs),
(124,-121,o),
(184,-177,o),
(242,-177,q),
(242,-177,o)
);
}
);
width = 294;
},
{
layerId = "2B284C16-EA14-4761-8C41-B0F9D88443D8";
shapes = (
{
closed = 1;
nodes = (
(291.03,-183,o),
(320.97,-183,o),
(344,-183,o),
(344,-183,q),
(344,-183,o),
(344,-154,o),
(344,-116,o),
(344,-87,o),
(344,-87,q),
(344,-87,o),
(334.286,-87,o),
(324,-87,o),
(324,-87,q),
(290.529,-87,o),
(268,-58,o),
(268,-13,qs),
(268,31,o),
(272,117,o),
(272,166,qs),
(272,233,o),
(228,291,o),
(184,301,q),
(184,301,o),
(184,305.286,o),
(184,305.286,q),
(228,316,o),
(272,373,o),
(272,440,qs),
(272,490,o),
(268,576,o),
(268,620,qs),
(268,664,o),
(290.529,693,o),
(324,693,q),
(324,693,o),
(334.286,693,o),
(344,693,o),
(344,693,q),
(344,693,o),
(344,722,o),
(344,760,o),
(344,789,o),
(344,789,q),
(344,789,o),
(320.97,789,o),
(291.03,789,o),
(268,789,o),
(268,789,q),
(191,789,o),
(121,718,o),
(121,625,qs),
(121,586,o),
(126,529,o),
(131,475,o),
(131,439,qs),
(131,419.377,o),
(113,382,o),
(71,358,o),
(34,356,q),
(34,356,o),
(34,324,o),
(34,282,o),
(34,250,o),
(34,250,q),
(71,249,o),
(113,224,o),
(131,188.444,o),
(131,168,qs),
(131,132,o),
(126,77,o),
(121,21,o),
(121,-19,qs),
(121,-112,o),
(191,-183,o),
(268,-183,q),
(268,-183,o)
);
}
);
width = 400;
}
);
note = uni007B;
unicode = 123;
}
{
glyphname = bar;
layers = (
{
layerId = m01;
shapes = (
{
closed = 1;
nodes = (
(114,-283,o),
(126,-283,o),
(135,-283,o),
(135,-283,q),
(135,-283,o),
(135,-210,o),
(135,-82,o),
(135,81,o),
(135,262,o),
(135,443,o),
(135,606,o),
(135,734,o),
(135,807,o),
(135,807,q),
(135,807,o),
(126,807,o),
(114,807,o),
(105,807,o),
(105,807,q),
(105,807,o),
(105,734,o),
(105,606,o),
(105,443,o),
(105,262,o),
(105,81,o),
(105,-82,o),
(105,-210,o),
(105,-283,o),
(105,-283,q),
(105,-283,o)
);
}
);
width = 240;
},
{
layerId = "2B284C16-EA14-4761-8C41-B0F9D88443D8";
shapes = (
{
closed = 1;
nodes = (
(132,-293,o),
(178,-293,o),
(214,-293,o),
(214,-293,q),
(214,-293,o),
(214,-217.321,o),
(214,-84.624,o),
(214,84.358,o),
(214,272,o),
(214,459.642,o),
(214,628.624,o),
(214,761.321,o),
(214,837,o),
(214,837,q),
(214,837,o),
(178,837,o),
(132,837,o),
(96,837,o),
(96,837,q),
(96,837,o),
(96,761.321,o),
(96,628.624,o),
(96,459.642,o),
(96,272,o),
(96,84.358,o),
(96,-84.624,o),
(96,-217.321,o),
(96,-293,o),
(96,-293,q),
(96,-293,o)
);
}
);
width = 310;
}
);
note = uni007C;
unicode = 124;
}
{
glyphname = braceright;
kernLeft = parenright;
layers = (
{
layerId = m01;
shapes = (
{
closed = 1;
nodes = (
(30,-177,o),
(42,-177,o),
(52,-177,o),
(52,-177,q),
(111,-177,o),
(170,-121,o),
(170,-39,qs),
(170,1,o),
(165,77,o),
(161,152,o),
(161,190,qs),
(161,213,o),
(176,253,o),
(217,279,o),
(255,279,q),
(255,279,o),
(255,287,o),
(255,297,o),
(255,305,o),
(255,305,q),
(217,305,o),
(176,331,o),
(161,371,o),
(161,392,qs),
(161,432,o),
(165,507,o),
(170,583,o),
(170,623,qs),
(170,705,o),
(111,761,o),
(52,761,q),
(52,761,o),
(42,761,o),
(30,761,o),
(20,761,o),
(20,761,q),
(20,761,o),
(20,754,o),
(20,744,o),
(20,737,o),
(20,737,q),
(20,737,o),
(38,737,o),
(55,737,o),
(55,737,q),
(107,737,o),
(142,678,o),
(142,619,qs),
(142,565,o),
(135,466,o),
(135,405,qs),
(135,359,o),
(156,304,o),
(187,294,q),
(187,294,o),
(187,290,o),
(187,290,q),
(156,280,o),
(135,223,o),
(135,179,qs),
(135,118,o),
(142,19,o),
(142,-35,qs),
(142,-93,o),
(107,-153,o),
(55,-153,q),
(55,-153,o),
(38,-153,o),
(20,-153,o),
(20,-153,q),
(20,-153,o),
(20,-160,o),
(20,-170,o),
(20,-177,o),
(20,-177,q),
(20,-177,o)
);
}
);
width = 294;
},
{
layerId = "2B284C16-EA14-4761-8C41-B0F9D88443D8";
shapes = (
{
closed = 1;
nodes = (
(80.438,-183,o),
(108.562,-183,o),
(132,-183,o),
(132,-183,q),
(209,-183,o),
(279,-112,o),
(279,-19,qs),
(279,21,o),
(274,77,o),
(268,132,o),
(268,168,qs),
(268,188.444,o),
(287,224,o),
(329,249,o),
(365,250,q),
(365,250,o),
(365,282,o),
(365,324,o),
(365,356,o),
(365,356,q),
(329,358,o),
(287,382,o),
(268,419.377,o),
(268,439,qs),
(268,475,o),
(274,529,o),
(279,586,o),
(279,625,qs),
(279,718,o),
(209,789,o),
(132,789,q),
(132,789,o),
(108.562,789,o),
(80.438,789,o),
(57,789,o),
(57,789,q),
(57,789,o),
(57,760,o),
(57,722,o),
(57,693,o),
(57,693,q),
(57,693,o),
(66.771,693,o),
(76,693,o),
(76,693,q),
(109.471,693,o),
(132,664,o),
(132,620,qs),
(132,576,o),
(128,490,o),
(128,440,qs),
(128,373,o),
(172,316,o),
(216,305,q),
(216,305,o),
(216,301,o),
(216,301,q),
(172,291,o),
(128,233,o),
(128,166,qs),
(128,117,o),
(132,31,o),
(132,-13,qs),
(132,-58,o),
(109.471,-87,o),
(76,-87,q),
(76,-87,o),
(66.771,-87,o),
(57,-87,o),
(57,-87,q),
(57,-87,o),
(57,-116,o),
(57,-154,o),
(57,-183,o),
(57,-183,q),
(57,-183,o)
);
}
);
width = 400;
}
);
note = uni007D;
unicode = 125;
}
{
glyphname = asciitilde;
layers = (
{
layerId = m01;
shapes = (
{
closed = 1;
nodes = (
(447,326,o),
(469,368,q),
(469,368,o),
(462,373,o),
(452,379,o),
(445,384,o),
(445,384,q),
(426,344,o),
(382,314,o),
(358,314,qs),
(334,314,o),
(289,344,o),
(242,384,o),
(190,414,o),
(159,414,qs),
(128,414,o),
(67,371,o),
(46,327,q),
(46,327,o),
(53,323,o),
(63,318,o),
(70,314,o),
(70,314,q),
(90,353,o),
(132,384,o),
(157,384,qs),
(181,384,o),
(226,353,o),
(272,314,o),
(324,283,o),
(355,283,qs),
(387,283,o)
);
}
);
width = 514;
},
{
layerId = "2B284C16-EA14-4761-8C41-B0F9D88443D8";
shapes = (
{
closed = 1;
nodes = (
(530,309,o),
(574,375,q),
(574,375,o),
(546,397,o),
(508,427,o),
(480,449,o),
(480,449,q),
(463,419,o),
(423,385,o),
(400,385,qs),
(377,385,o),
(337,410,o),
(295,442,o),
(243,467,o),
(207,467,qs),
(164,467,o),
(75,414,o),
(31,347,q),
(31,347,o),
(59,325,o),
(96,297,o),
(124,275,o),
(124,275,q),
(142,304,o),
(183,339,o),
(205,339,qs),
(228,339,o),
(268,314,o),
(310,282,o),
(363,257,o),
(398,257,qs),
(441,257,o)
);
}
);
width = 605;
}
);
note = uni007E;
unicode = 126;
}
{
glyphname = exclamdown;
kernLeft = exclamdown;
layers = (
{
layerId = m01;
shapes = (
{
closed = 1;
nodes = (
(125,-220,o),
(136,-220,o),
(146,-220,o),
(153,-220,o),
(153,-220,q),
(153,-220,o),
(153,-206,o),
(153,-187,o),
(153,-167,o),
(153,-153,o),
(153,-153,q),
(153,-153,o),
(152,-101,o),
(152,-17,o),
(151,85,o),
(149,187,o),
(149,271,o),
(148,323,o),
(148,323,q),
(148,323,o),
(140,323,o),
(130,323,o),
(122,323,o),
(122,323,q),
(122,323,o),
(122,271,o),
(121,187,o),
(120,85,o),
(119,-17,o),
(118,-101,o),
(118,-153,o),
(118,-153,q),
(118,-153,o),
(118,-167,o),
(118,-186,o),
(118,-206,o),
(118,-220,o),
(118,-220,q),
(118,-220,o)
);
},
{
closed = 1;
nodes = (
(174,460,o),
(174,482,qs),
(174,502,o),
(150,523,o),
(135,523,qs),
(121,523,o),
(96,502,o),
(96,482,qs),
(96,460,o),
(121,438,o),
(135,438,qs),
(150,438,o)
);
}
);
width = 270;
},
{
layerId = "2B284C16-EA14-4761-8C41-B0F9D88443D8";
shapes = (
{
closed = 1;
nodes = (
(144,-205,o),
(199,-205,o),
(253,-205,o),
(290,-205,o),
(290,-205,q),
(290,-205,o),
(289,-173,o),
(287,-125,o),
(285,-77,o),
(284,-45,o),
(284,-45,q),
(284,-45,o),
(281,-9,o),
(277,49,o),
(272,119,o),
(266,189,o),
(262,247,o),
(259,283,o),
(259,283,q),
(259,283,o),
(223,283,o),
(175,283,o),
(139,283,o),
(139,283,q),
(139,283,o),
(136,247,o),
(132,189,o),
(127,119,o),
(121,49,o),
(117,-9,o),
(114,-45,o),
(114,-45,q),
(114,-45,o),
(113,-77,o),
(111,-125,o),
(108,-173,o),
(107,-205,o),
(107,-205,q),
(107,-205,o)
);
},
{
closed = 1;
nodes = (
(306,406,o),
(306,453,qs),
(306,501,o),
(246,565,o),
(199,565,qs),
(153,565,o),
(92,501,o),
(92,453,qs),
(92,406,o),
(153,342,o),
(199,342,qs),
(246,342,o)
);
}
);
width = 398;
}
);
note = uni00A1;
unicode = 161;
}
{
glyphname = cent;
layers = (
{
layerId = m01;
shapes = (
{
closed = 1;
nodes = (
(434,121,o),
(467,150,q),
(467,150,o),
(463,154,o),
(457,161,o),
(451,168,o),
(447,172,o),
(447,172,q),
(419,147,o),
(345,111,o),
(301,111,qs),
(241,111,o),
(152,165,o),
(102,264,o),
(102,329,qs),
(102,395,o),
(155,493,o),
(246,547,o),
(301,547,qs),
(342,547,o),
(408,515,o),
(434,490,q),
(434,490,o),
(438,494,o),
(444,501,o),
(449,508,o),
(453,512,o),
(453,512,q),
(428,537,o),
(355,578,o),
(301,578,qs),
(239,578,o),
(133,521,o),
(68,410,o),
(68,329,qs),
(68,250,o),
(129,139,o),
(235,81,o),
(301,81,qs),
(351,81,o)
);
},
{
closed = 1;
nodes = (
(284,-39,o),
(296,-39,o),
(305,-39,o),
(305,-39,q),
(305,-39,o),
(305,23,o),
(305,129,o),
(305,260,o),
(305,401,o),
(305,532,o),
(305,638,o),
(305,700,o),
(305,700,q),
(305,700,o),
(296,700,o),
(284,700,o),
(275,700,o),
(275,700,q),
(275,700,o),
(275,638,o),
(275,532,o),
(275,401,o),
(275,260,o),
(275,129,o),
(275,23,o),
(275,-39,o),
(275,-39,q),
(275,-39,o)
);
}
);
width = 514;
},
{
layerId = "2B284C16-EA14-4761-8C41-B0F9D88443D8";
shapes = (
{
closed = 1;
nodes = (
(518,76,o),
(559,112,q),
(559,112,o),
(544,135,o),
(523,170,o),
(501,204,o),
(486,227,o),
(486,227,q),
(467,213,o),
(420,189,o),
(392,189,qs),
(345,189,o),
(278,225,o),
(244,291,o),
(244,335,qs),
(244,380,o),
(277,446,o),
(346,482,o),
(398,482,qs),
(415,482,o),
(450,469,o),
(469,452,q),
(469,452,o),
(486,475,o),
(510,509,o),
(534,542,o),
(551,565,o),
(551,565,q),
(523,594,o),
(438,629,o),
(388,629,qs),
(298,629,o),
(153,560,o),
(68,428,o),
(68,335,qs),
(68,242,o),
(144,111,o),
(280,42,o),
(371,42,qs),
(416,42,o)
);
},
{
closed = 1;
nodes = (
(344,-60,o),
(382,-60,o),
(412,-60,o),
(412,-60,q),
(412,-60,o),
(412,7,o),
(412,119,o),
(412,260,o),
(412,410,o),
(412,551,o),
(412,663,o),
(412,730,o),
(412,730,q),
(412,730,o),
(382,730,o),
(344,730,o),
(314,730,o),
(314,730,q),
(314,730,o),
(314,663,o),
(314,551,o),
(314,410,o),
(314,260,o),
(314,119,o),
(314,7,o),
(314,-60,o),
(314,-60,q),
(314,-60,o)
);
}
);
width = 605;
}
);
note = uni00A2;
unicode = 162;
}
{
glyphname = sterling;
layers = (
{
layerId = m01;
shapes = (
{
closed = 1;
nodes = (
(106,-11,o),
(176,-11,o),
(260,-11,o),
(343,-11,o),
(413,-11,o),
(456,-11,o),
(456,-11,q),
(456,-11,o),
(456,-5,o),
(456,5,o),
(456,14,o),
(456,20,o),
(456,20,q),
(456,20,o),
(409,20,o),
(334,20,o),
(251,20,o),
(176,20,o),
(129,20,o),
(129,20,q),
(129,20,o),
(129,24,o),
(129,24,q),
(168,62,o),
(211,155,o),
(211,227,qs),
(211,285,o),
(184,381,o),
(157,472,o),
(157,521,qs),
(157,582,o),
(229,669,o),
(299,669,qs),
(346,669,o),
(409,635,o),
(432,604,q),
(432,604,o),
(438,609,o),
(447,616,o),
(453,621,o),
(453,621,q),
(431,656,o),
(355,700,o),
(301,700,qs),
(246,700,o),
(165,656,o),
(122,575,o),
(122,519,qs),
(122,469,o),
(151,373,o),
(179,278,o),
(179,227,qs),
(179,163,o),
(125,45,o),
(63,9,q),
(63,9,o),
(63,3,o),
(63,-5,o),
(63,-11,o),
(63,-11,q),
(63,-11,o)
);
},
{
closed = 1;
nodes = (
(105,312,o),
(177,312,o),
(259,312,o),
(331,312,o),
(377,312,o),
(377,312,q),
(377,312,o),
(377,321,o),
(377,333,o),
(377,342,o),
(377,342,q),
(377,342,o),
(341,342,o),
(285,342,o),
(223,342,o),
(167,342,o),
(131,342,o),
(131,342,q),
(131,342,o),
(109,341,o),
(81,341,o),
(59,340,o),
(59,340,q),
(59,340,o),
(59,332,o),
(59,320,o),
(59,312,o),
(59,312,q),
(59,312,o)
);
}
);
width = 514;
},
{
layerId = "2B284C16-EA14-4761-8C41-B0F9D88443D8";
shapes = (
{
closed = 1;
nodes = (
(109,-11,o),
(201.727,-11,o),
(313,-11,o),
(423.667,-11,o),
(517,-11,o),
(573,-11,o),
(573,-11,q),
(573,-11,o),
(573,20,o),
(573,66,o),
(573,112.2,o),
(573,143,o),
(573,143,q),
(573,143,o),
(532,143,o),
(466.107,143,o),
(393.186,143,o),
(327.293,143,o),
(286,143,o),
(286,143,q),
(286,143,o),
(286,147,o),
(286,147,q),
(312,177,o),
(332,230,o),
(332,267,qs),
(332,304,o),
(316,372,o),
(299,439,o),
(299,472,qs),
(299,522,o),
(351,572,o),
(393,572,qs),
(419,572,o),
(460,553,o),
(479,530,q),
(479,530,o),
(507,558,o),
(545,594,o),
(573,622,o),
(573,622,q),
(540,665,o),
(441.2,719,o),
(371,719,qs),
(301,719,o),
(189,662,o),
(124,555.577,o),
(124,482,qs),
(124,449,o),
(149,377,o),
(173,304,o),
(173,269,qs),
(173,209,o),
(102,123,o),
(53,102,q),
(53,102,o),
(53,68.1,o),
(53,22.9,o),
(53,-11,o),
(53,-11,q),
(53,-11,o)
);
},
{
closed = 1;
nodes = (
(119.034,292,o),
(213,292,o),
(318,292,o),
(411.966,292,o),
(472,292,o),
(472,292,q),
(472,292,o),
(472,325.6,o),
(472,370.4,o),
(472,404,o),
(472,404,q),
(472,404,o),
(423.087,404,o),
(347,404,o),
(261,404,o),
(184.913,404,o),
(136,404,o),
(136,404,q),
(136,404,o),
(113,402,o),
(82,399,o),
(59,397,o),
(59,397,q),
(59,397,o),
(59,365,o),
(59,324,o),
(59,292,o),
(59,292,q),
(59,292,o)
);
}
);
width = 605;
}
);
note = uni00A3;
unicode = 163;
}
{
glyphname = currency;
layers = (
{
layerId = m01;
shapes = (
{
closed = 1;
nodes = (
(78,140,o),
(107,170,o),
(128,192,o),
(128,192,q),
(181,139,o),
(257,139,qs),
(293,139,o),
(361,167,o),
(386,192,q),
(386,192,o),
(408,170,o),
(436,140,o),
(458,118,o),
(458,118,q),
(458,118,o),
(465,125,o),
(473,135,o),
(480,142,o),
(480,142,q),
(480,142,o),
(458,164,o),
(430,194,o),
(408,216,o),
(408,216,q),
(427,242,o),
(449,308,o),
(449,347,qs),
(449,387,o),
(427,455,o),
(407,481,q),
(407,481,o),
(429,504,o),
(458,533,o),
(480,556,o),
(480,556,q),
(480,556,o),
(473,563,o),
(465,573,o),
(458,580,o),
(458,580,q),
(458,580,o),
(436,557,o),
(408,528,o),
(386,505,o),
(386,505,q),
(360,529,o),
(293,556,o),
(257,556,qs),
(220,556,o),
(154,529,o),
(129,505,q),
(129,505,o),
(107,528,o),
(79,557,o),
(57,580,o),
(57,580,q),
(57,580,o),
(50,573,o),
(42,563,o),
(35,556,o),
(35,556,q),
(35,556,o),
(57,533,o),
(85,504,o),
(107,481,o),
(107,481,q),
(88,455,o),
(65,387,o),
(65,347,qs),
(65,308,o),
(88,242,o),
(107,216,q),
(107,216,o),
(85,194,o),
(57,164,o),
(35,142,o),
(35,142,q),
(35,142,o),
(42,135,o),
(50,125,o),
(57,118,o),
(57,118,q),
(57,118,o)
);
},
{
closed = 1;
nodes = (
(143,215,o),
(100,295,o),
(100,347,qs),
(100,399,o),
(143,479,o),
(215,525,o),
(257,525,qs),
(300,525,o),
(371,479,o),
(414,399,o),
(414,347,qs),
(414,295,o),
(371,215,o),
(300,170,o),
(257,170,qs),
(215,170,o)
);
}
);
width = 514;
},
{
layerId = "2B284C16-EA14-4761-8C41-B0F9D88443D8";
shapes = (
{
closed = 1;
nodes = (
(134.662,102.081,o),
(167.338,134.919,o),
(191,159,o),
(191,159,q),
(244,135,o),
(303,135,qs),
(330,135,o),
(388,147,o),
(414,159,q),
(414,159,o),
(438.444,134.919,o),
(469.556,102.081,o),
(494,78,o),
(494,78,q),
(494,78,o),
(521,105,o),
(557,142,o),
(584,169,o),
(584,169,q),
(584,169,o),
(562.917,189.514,o),
(536.083,217.486,o),
(515,238,o),
(515,238,q),
(533,264,o),
(554,325,o),
(554,362,qs),
(554,397,o),
(534,459,o),
(516,484,q),
(516,484,o),
(537,505,o),
(563,532,o),
(584,553,o),
(584,553,q),
(584,553,o),
(557,580,o),
(521,616,o),
(494,643,o),
(494,643,q),
(494,643,o),
(469.861,618.773,o),
(439.139,588.227,o),
(415,564,o),
(415,564,q),
(389,576,o),
(331,589,o),
(302.89,589,qs),
(274,589,o),
(216,576,o),
(190,564,q),
(190,564,o),
(165.861,588.227,o),
(135.139,618.773,o),
(111,643,o),
(111,643,q),
(111,643,o),
(84,616,o),
(47,580,o),
(20,553,o),
(20,553,q),
(20,553,o),
(40.778,531.84,o),
(67.222,505.16,o),
(88,484,o),
(88,484,q),
(70,459,o),
(51,397,o),
(51,362,qs),
(51,325,o),
(70,264,o),
(89,238,q),
(89,238,o),
(67.917,217.486,o),
(41.083,189.514,o),
(20,169,o),
(20,169,q),
(20,169,o),
(47,142,o),
(84,105,o),
(111,78,o),
(111,78,q),
(111,78,o)
);
},
{
closed = 1;
nodes = (
(237,285,o),
(214,331,o),
(214,362,qs),
(214,393,o),
(237,439,o),
(278,464,o),
(303,464,qs),
(327.518,464,o),
(368,439,o),
(392,393,o),
(392,362,qs),
(392,331,o),
(368,285,o),
(328,260,o),
(302.706,260,qs),
(278,260,o)
);
}
);
width = 605;
}
);
note = uni00A4;
unicode = 164;
}
{
glyphname = yen;
layers = (
{
layerId = m01;
shapes = (
{
closed = 1;
nodes = (
(247,-11,o),
(257,-11,o),
(266,-11,o),
(273,-11,o),
(273,-11,q),
(273,-11,o),
(273,25,o),
(273,78,o),
(273,130,o),
(273,166,o),
(273,166,q),
(273,166,o),
(310,166,o),
(366,166,o),
(421,166,o),
(458,166,o),
(458,166,q),
(458,166,o),
(458,175,o),
(458,187,o),
(458,196,o),
(458,196,q),
(458,196,o),
(421,196,o),
(366,196,o),
(310,196,o),
(273,196,o),
(273,196,q),
(273,196,o),
(273,222,o),
(273,257,o),
(273,283,o),
(273,283,q),
(273,283,o),
(310,283,o),
(366,283,o),
(421,283,o),
(458,283,o),
(458,283,q),
(458,283,o),
(458,292,o),
(458,305,o),
(458,314,o),
(458,314,q),
(458,314,o),
(423,314,o),
(372,314,o),
(321,314,o),
(286,314,o),
(286,314,q),
(286,314,o),
(314,368,o),
(358,453,o),
(408,548,o),
(452,633,o),
(480,687,o),
(480,687,q),
(480,687,o),
(473,687,o),
(463,687,o),
(452,687,o),
(445,687,o),
(445,687,q),
(445,687,o),
(423,642,o),
(391,577,o),
(358,511,o),
(336,466,o),
(336,466,q),
(318,429,o),
(281,357,o),
(259,316,q),
(259,316,o),
(255,316,o),
(255,316,q),
(236,357,o),
(199,430,o),
(181,466,q),
(181,466,o),
(159,511,o),
(127,577,o),
(94,642,o),
(72,687,o),
(72,687,q),
(72,687,o),
(65,687,o),
(54,687,o),
(42,687,o),
(35,687,o),
(35,687,q),
(35,687,o),
(63,633,o),
(106,548,o),
(156,453,o),
(199,368,o),
(227,314,o),
(227,314,q),
(227,314,o),
(193,314,o),
(142,314,o),
(91,314,o),
(57,314,o),
(57,314,q),
(57,314,o),
(57,305,o),
(57,292,o),
(57,283,o),
(57,283,q),
(57,283,o),
(94,283,o),
(149,283,o),
(203,283,o),
(240,283,o),
(240,283,q),
(240,283,o),
(240,257,o),
(240,222,o),
(240,196,o),
(240,196,q),
(240,196,o),
(203,196,o),
(148,196,o),
(94,196,o),
(57,196,o),
(57,196,q),
(57,196,o),
(57,187,o),
(57,175,o),
(57,166,o),
(57,166,q),
(57,166,o),
(94,166,o),
(149,166,o),
(203,166,o),
(240,166,o),
(240,166,q),
(240,166,o),
(240,130,o),
(240,77,o),
(240,25,o),
(240,-11,o),
(240,-11,q),
(240,-11,o)
);
}
);
width = 514;
},
{
layerId = "2B284C16-EA14-4761-8C41-B0F9D88443D8";
shapes = (
{
closed = 1;
nodes = (
(248.471,-11,o),
(302,-11,o),
(356,-11,o),
(393,-11,o),
(393,-11,q),
(393,-11,o),
(393,21.339,o),
(393,68.949,o),
(393,115.661,o),
(393,148,o),
(393,148,q),
(393,148,o),
(428,148,o),
(479,148,o),
(530.413,148,o),
(565,148,o),
(565,148,q),
(565,148,o),
(565,175.6,o),
(565,212.4,o),
(565,240,o),
(565,240,q),
(565,240,o),
(530,240,o),
(479.459,240,o),
(428,240,o),
(393,240,o),
(393,240,q),
(393,240,o),
(393,255.54,o),
(393,276.46,o),
(393,292,o),
(393,292,q),
(393,292,o),
(428,292,o),
(479,292,o),
(530.413,292,o),
(565,292,o),
(565,292,q),
(565,292,o),
(565,319,o),
(565,356,o),
(565,383,o),
(565,383,q),
(565,383,o),
(538.14,383,o),
(499,383,o),
(459.86,383,o),
(433,383,o),
(433,383,q),
(433,383,o),
(456,430,o),
(493,503,o),
(533,585,o),
(570,658,o),
(593,705,o),
(593,705,q),
(593,705,o),
(555.529,705,o),
(502,705,o),
(447,705,o),
(410,705,o),
(410,705,q),
(410,705,o),
(400,677,o),
(385,635,o),
(370,593.378,o),
(360,565,o),
(360,565,q),
(348,529,o),
(320,455,o),
(306,418,q),
(306,418,o),
(302,418,o),
(302,418,q),
(289,454,o),
(262.091,528.339,o),
(249,565,q),
(249,565,o),
(239,593,o),
(224.231,635.321,o),
(209,677,o),
(199,705,o),
(199,705,q),
(199,705,o),
(161,705,o),
(105,705,o),
(49,705,o),
(11,705,o),
(11,705,q),
(11,705,o),
(34,658,o),
(71,585,o),
(112,503,o),
(149,430,o),
(172,383,o),
(172,383,q),
(172,383,o),
(145,383,o),
(106,383,o),
(67,383,o),
(40,383,o),
(40,383,q),
(40,383,o),
(40,356,o),
(40,319,o),
(40,292,o),
(40,292,q),
(40,292,o),
(74.574,292,o),
(125.967,292,o),
(176.426,292,o),
(211,292,o),
(211,292,q),
(211,292,o),
(211,276.46,o),
(211,255.54,o),
(211,240,o),
(211,240,q),
(211,240,o),
(176,240,o),
(126,240,o),
(74.967,240,o),
(40,240,o),
(40,240,q),
(40,240,o),
(40,212.4,o),
(40,175.6,o),
(40,148,o),
(40,148,q),
(40,148,o),
(74.587,148,o),
(126,148,o),
(176.44,148,o),
(211,148,o),
(211,148,q),
(211,148,o),
(211,116.045,o),
(211,69,o),
(211,21,o),
(211,-11,o),
(211,-11,q),
(211,-11,o)
);
}
);
width = 605;
}
);
note = uni00A5;
unicode = 165;
}
{
glyphname = brokenbar;
layers = (
{
layerId = m01;
shapes = (
{
closed = 1;
nodes = (
(114,288,o),
(126,288,o),
(135,288,o),
(135,288,q),
(135,288,o),
(135,344,o),
(135,437,o),
(135,548,o),
(135,658,o),
(135,751,o),
(135,807,o),
(135,807,q),
(135,807,o),
(126,807,o),
(114,807,o),
(105,807,o),
(105,807,q),
(105,807,o),
(105,751,o),
(105,658,o),
(105,548,o),
(105,437,o),
(105,344,o),
(105,288,o),
(105,288,q),
(105,288,o)
);
},
{
closed = 1;
nodes = (
(114,-283,o),
(126,-283,o),
(135,-283,o),
(135,-283,q),
(135,-283,o),
(135,-227,o),
(135,-136,o),
(135,-26,o),
(135,84,o),
(135,175,o),
(135,231,o),
(135,231,q),
(135,231,o),
(126,231,o),
(114,231,o),
(105,231,o),
(105,231,q),
(105,231,o),
(105,175,o),
(105,84,o),
(105,-26,o),
(105,-136,o),
(105,-227,o),
(105,-283,o),
(105,-283,q),
(105,-283,o)
);
}
);
width = 240;
},
{
layerId = "2B284C16-EA14-4761-8C41-B0F9D88443D8";
shapes = (
{
closed = 1;
nodes = (
(132,347,o),
(178,347,o),
(214,347,o),
(214,347,q),
(214,347,o),
(214,399.617,o),
(214,487,o),
(214,592.475,o),
(214,697,o),
(214,784.383,o),
(214,837,o),
(214,837,q),
(214,837,o),
(178,837,o),
(132,837,o),
(96,837,o),
(96,837,q),
(96,837,o),
(96,784.383,o),
(96,697,o),
(96,592,o),
(96,487.404,o),
(96,399.769,o),
(96,347,o),
(96,347,q),
(96,347,o)
);
},
{
closed = 1;
nodes = (
(132,-293,o),
(178,-293,o),
(214,-293,o),
(214,-293,q),
(214,-293,o),
(214,-238,o),
(214,-147.453,o),
(214,-38,o),
(214,71.453,o),
(214,162,o),
(214,217,o),
(214,217,q),
(214,217,o),
(178,217,o),
(132,217,o),
(96,217,o),
(96,217,q),
(96,217,o),
(96,162,o),
(96,71.453,o),
(96,-38,o),
(96,-147.453,o),
(96,-238,o),
(96,-293,o),
(96,-293,q),
(96,-293,o)
);
}
);
width = 310;
}
);
note = uni00A6;
unicode = 166;
}
{
glyphname = section;
layers = (
{
layerId = m01;
shapes = (
{
closed = 1;
nodes = (
(359,-30,o),
(401,29,o),
(401,67,qs),
(401,113,o),
(356,172,o),
(285,211,o),
(205,244,o),
(134,281,o),
(89,336,o),
(89,379,qs),
(89,425,o),
(143,479,o),
(183,501,q),
(183,501,o),
(179,509,o),
(174,519,o),
(170,527,o),
(170,527,q),
(124,505,o),
(57,436,o),
(57,377,qs),
(57,328,o),
(102,264,o),
(173,222,o),
(252,189,o),
(323,154,o),
(368,104,o),
(368,65,qs),
(368,26,o),
(306,-33,o),
(253,-33,qs),
(201,-33,o),
(135,0,o),
(107,26,q),
(107,26,o),
(102,21,o),
(95,14,o),
(88,7,o),
(83,2,o),
(83,2,q),
(114,-26,o),
(198,-63,o),
(253,-63,qs),
(291,-63,o)
);
},
{
closed = 1;
nodes = (
(425,200,o),
(458,256,o),
(458,299,qs),
(458,350,o),
(414,415,o),
(343,457,o),
(265,490,o),
(194,524,o),
(150,572,o),
(150,610,qs),
(150,643,o),
(201,700,o),
(259,700,qs),
(302,700,o),
(360,671,o),
(386,650,q),
(386,650,o),
(390,655,o),
(396,662,o),
(401,669,o),
(405,674,o),
(405,674,q),
(376,698,o),
(302,730,o),
(259,730,qs),
(210,730,o),
(148,693,o),
(118,637,o),
(118,608,qs),
(118,564,o),
(162,507,o),
(232,469,o),
(311,436,o),
(381,397,o),
(425,340,o),
(425,296,qs),
(425,245,o),
(370,196,o),
(320,174,q),
(320,174,o),
(325,166,o),
(331,154,o),
(336,146,o),
(336,146,q),
(370,163,o)
);
}
);
width = 514;
},
{
layerId = "2B284C16-EA14-4761-8C41-B0F9D88443D8";
shapes = (
{
closed = 1;
nodes = (
(447,-63,o),
(497,21,o),
(497,73,qs),
(497,122,o),
(453,188,o),
(384,234,o),
(306,268,o),
(237,300,o),
(193,338,o),
(193,366,qs),
(193,392,o),
(228,431,o),
(263,442,q),
(263,442,o),
(236,465,o),
(199,495,o),
(172,518,o),
(172,518,q),
(112,498,o),
(40,404,o),
(40,354,qs),
(40,300,o),
(82,226,o),
(149,175,o),
(224,141,o),
(291,113,o),
(333,84,o),
(333,64,qs),
(333,45,o),
(304,23,o),
(272,23,qs),
(242,23,o),
(180,51,o),
(153,79,q),
(153,79,o),
(132,61,o),
(101,34,o),
(70,6,o),
(49,-12,o),
(49,-12,q),
(87,-63,o),
(211,-112,o),
(272,-112,qs),
(347,-112,o)
);
},
{
closed = 1;
nodes = (
(537,212,o),
(565,273,o),
(565,310,qs),
(565,361,o),
(521,433,o),
(452,485,o),
(374,522,o),
(305,551,o),
(261,580,o),
(261,597,qs),
(261,617,o),
(288,635,o),
(315,635,qs),
(342,635,o),
(406,604,o),
(432,581,q),
(432,581,o),
(449,604,o),
(474,637,o),
(498,671,o),
(515,694,o),
(515,694,q),
(480,722,o),
(372,770,o),
(305,770,qs),
(239,770,o),
(146,725,o),
(97,645,o),
(97,591,qs),
(97,542,o),
(142,475,o),
(214,429,o),
(294,395,o),
(366,363,o),
(411,324,o),
(411,295,qs),
(411,267,o),
(378,229,o),
(340,217,q),
(340,217,o),
(371,195,o),
(413,166,o),
(444,144,o),
(444,144,q),
(484,163,o)
);
}
);
width = 605;
}
);
note = uni00A7;
unicode = 167;
}
{
glyphname = dieresis;
layers = (
{
layerId = m01;
shapes = (
{
closed = 1;
nodes = (
(231,665,o),
(231,680,qs),
(231,695,o),
(211,715,o),
(196,715,qs),
(182,715,o),
(161,695,o),
(161,680,qs),
(161,665,o),
(182,645,o),
(196,645,qs),
(211,645,o)
);
},
{
closed = 1;
nodes = (
(419,665,o),
(419,680,qs),
(419,695,o),
(398,715,o),
(384,715,qs),
(369,715,o),
(349,695,o),
(349,680,qs),
(349,665,o),
(369,645,o),
(384,645,qs),
(398,645,o)
);
}
);
width = 580;
},
{
layerId = "2B284C16-EA14-4761-8C41-B0F9D88443D8";
shapes = (
{
closed = 1;
nodes = (
(276,677,o),
(276,713,qs),
(276,750,o),
(227,800,o),
(189,800,qs),
(151,800,o),
(102,750,o),
(102,713,qs),
(102,677,o),
(151,627,o),
(189,627,qs),
(227,627,o)
);
},
{
closed = 1;
nodes = (
(529,677,o),
(529,713,qs),
(529,750,o),
(480,800,o),
(442,800,qs),
(404,800,o),
(355,750,o),
(355,713,qs),
(355,677,o),
(404,627,o),
(442,627,qs),
(480,627,o)
);
}
);
width = 631;
}
);
note = uni00A8;
unicode = 168;
}
{
glyphname = ordfeminine;
layers = (
{
layerId = m01;
shapes = (
{
closed = 1;
nodes = (
(248,460,o),
(270,480,q),
(270,480,o),
(275,480,o),
(275,480,q),
(275,480,o),
(278,458,o),
(281,436,o),
(281,436,q),
(281,436,o),
(288,436,o),
(298,436,o),
(305,436,o),
(305,436,q),
(305,436,o),
(305,480,o),
(305,546,o),
(305,612,o),
(305,656,o),
(305,656,q),
(305,715,o),
(260,789,o),
(198,789,qs),
(156,789,o),
(83,757,o),
(63,743,q),
(63,743,o),
(67,736,o),
(72,726,o),
(76,719,o),
(76,719,q),
(94,733,o),
(162,761,o),
(196,761,qs),
(243,761,o),
(275,698,o),
(275,654,q),
(157,643,o),
(48,583,o),
(48,525,qs),
(48,478,o),
(107,427,o),
(153,427,qs),
(189,427,o)
);
},
{
closed = 1;
nodes = (
(81,490,o),
(81,527,qs),
(81,567,o),
(167,619,o),
(275,630,q),
(275,630,o),
(275,594,o),
(275,548,o),
(275,512,o),
(275,512,q),
(244,483,o),
(185,456,o),
(159,456,qs),
(123,456,o)
);
}
);
width = 364;
},
{
layerId = "2B284C16-EA14-4761-8C41-B0F9D88443D8";
shapes = (
{
closed = 1;
nodes = (
(228,425,o),
(249,446,q),
(249,446,o),
(253,446,o),
(253,446,q),
(253,446,o),
(259,427,o),
(264,408,o),
(264,408,q),
(264,408,o),
(295,408,o),
(336,408,o),
(367,408,o),
(367,408,q),
(367,408,o),
(367,451,o),
(367,514,o),
(367,577,o),
(367,620,o),
(367,620,q),
(367,708,o),
(282,791,o),
(210,791,qs),
(166,791,o),
(82,765,o),
(42,742,q),
(42,742,o),
(56,717,o),
(73,683,o),
(87,658,o),
(87,658,q),
(117,673,o),
(165,690,o),
(186,690,qs),
(211,690,o),
(236,671,o),
(238,650,q),
(129,640,o),
(31,574,o),
(31,513,qs),
(31,467,o),
(93,399,o),
(146,399,qs),
(176,399,o)
);
},
{
closed = 1;
nodes = (
(154,510,o),
(154,523,qs),
(154,540,o),
(190,570,o),
(238,575,q),
(238,575,o),
(238,559,o),
(238,537,o),
(238,521,o),
(238,521,q),
(227,509,o),
(205,496,o),
(189,496,qs),
(172,496,o)
);
}
);
width = 409;
}
);
note = uni00AA;
unicode = 170;
}
{
glyphname = guillemetleft;
kernLeft = guilsinglleft;
kernRight = guilsinglleft;
layers = (
{
layerId = m01;
shapes = (
{
closed = 1;
nodes = (
(203,75,o),
(211,82,o),
(218,87,o),
(218,87,q),
(218,87,o),
(191,123,o),
(150,176,o),
(110,228,o),
(83,264,o),
(83,264,q),
(83,264,o),
(110,299,o),
(151,351,o),
(191,403,o),
(218,438,o),
(218,438,q),
(218,438,o),
(211,444,o),
(203,452,o),
(196,458,o),
(196,458,q),
(196,458,o),
(166,422,o),
(121,368,o),
(76,315,o),
(46,279,o),
(46,279,q),
(46,279,o),
(46,270,o),
(46,257,o),
(46,248,o),
(46,248,q),
(46,248,o),
(76,212,o),
(121,159,o),
(166,106,o),
(196,70,o),
(196,70,q),
(196,70,o)
);
},
{
closed = 1;
nodes = (
(349,75,o),
(357,82,o),
(364,87,o),
(364,87,q),
(364,87,o),
(337,123,o),
(297,176,o),
(256,228,o),
(229,264,o),
(229,264,q),
(229,264,o),
(256,299,o),
(296,351,o),
(337,403,o),
(364,438,o),
(364,438,q),
(364,438,o),
(357,444,o),
(349,452,o),
(342,458,o),
(342,458,q),
(342,458,o),
(312,422,o),
(267,368,o),
(222,315,o),
(192,279,o),
(192,279,q),
(192,279,o),
(192,270,o),
(192,257,o),
(192,248,o),
(192,248,q),
(192,248,o),
(222,212,o),
(267,159,o),
(312,106,o),
(342,70,o),
(342,70,q),
(342,70,o)
);
}
);
width = 423;
},
{
layerId = "2B284C16-EA14-4761-8C41-B0F9D88443D8";
shapes = (
{
closed = 1;
nodes = (
(228,66,o),
(255,87,o),
(275,103,o),
(275,103,q),
(275,103,o),
(250.2,137.78,o),
(212.541,188.983,o),
(175.8,239.22,o),
(151,274,o),
(151,274,q),
(151,274,o),
(175.8,308.195,o),
(213.459,359,o),
(250.2,409.805,o),
(275,444,o),
(275,444,q),
(275,444,o),
(255,460,o),
(228,482,o),
(208,498,o),
(208,498,q),
(208,498,o),
(177,466,o),
(132,418,o),
(85.8,370.36,o),
(55,338,o),
(55,338,q),
(55,338,o),
(55,299,o),
(55,248,o),
(55,209,o),
(55,209,q),
(55,209,o),
(85.8,176.64,o),
(132,129,o),
(177,82,o),
(208,50,o),
(208,50,q),
(208,50,o)
);
},
{
closed = 1;
nodes = (
(448,66,o),
(475,87,o),
(495,103,o),
(495,103,q),
(495,103,o),
(470.4,137.78,o),
(433.956,188.983,o),
(396.6,239.22,o),
(372,274,o),
(372,274,q),
(372,274,o),
(396.985,308.195,o),
(434,359,o),
(470,410,o),
(495,444,o),
(495,444,q),
(495,444,o),
(475,460,o),
(448,482,o),
(428,498,o),
(428,498,q),
(428,498,o),
(397,466,o),
(352,417.551,o),
(307,370,o),
(276,338,o),
(276,338,q),
(276,338,o),
(276,299,o),
(276,248,o),
(276,209,o),
(276,209,q),
(276,209,o),
(307,177,o),
(352,129.5,o),
(397,82,o),
(428,50,o),
(428,50,q),
(428,50,o)
);
}
);
width = 556;
}
);
note = uni00AB;
unicode = 171;
}
{
glyphname = logicalnot;
layers = (
{
layerId = m01;
shapes = (
{
closed = 1;
nodes = (
(453,111,o),
(467,111,o),
(477,111,o),
(477,111,q),
(477,111,o),
(477,148,o),
(477,205,o),
(477,270,o),
(477,327,o),
(477,364,o),
(477,364,q),
(477,364,o),
(429,364,o),
(351,364,o),
(257,364,o),
(163,364,o),
(85,364,o),
(37,364,o),
(37,364,q),
(37,364,o),
(37,355,o),
(37,342,o),
(37,333,o),
(37,333,q),
(37,333,o),
(96,333,o),
(188,333,o),
(292,333,o),
(384,333,o),
(443,333,o),
(443,333,q),
(443,333,o),
(443,288,o),
(443,222,o),
(443,156,o),
(443,111,o),
(443,111,q),
(443,111,o)
);
}
);
width = 514;
},
{
layerId = "2B284C16-EA14-4761-8C41-B0F9D88443D8";
shapes = (
{
closed = 1;
nodes = (
(474,93,o),
(526,93,o),
(566,93,o),
(566,93,q),
(566,93,o),
(566,141,o),
(566,217,o),
(566,302,o),
(566,378,o),
(566,426,o),
(566,426,q),
(566,426,o),
(509,426,o),
(415.128,426,o),
(302,426,o),
(188.872,426,o),
(95,426,o),
(38,426,o),
(38,426,q),
(38,426,o),
(38,387,o),
(38,336,o),
(38,297,o),
(38,297,q),
(38,297,o),
(95,297,o),
(185.122,297,o),
(287,297,o),
(376.563,297,o),
(434,297,o),
(434,297,q),
(434,297,o),
(434,255.649,o),
(434,195,o),
(434,134.351,o),
(434,93,o),
(434,93,q),
(434,93,o)
);
}
);
width = 605;
}
);
note = uni00AC;
unicode = 172;
}
{
glyphname = registered;
kernLeft = registered;
layers = (
{
layerId = m01;
shapes = (
{
closed = 1;
nodes = (
(356,396,o),
(410,491,o),
(410,554,qs),
(410,617,o),
(356,712,o),
(267,765,o),
(214,765,qs),
(161,765,o),
(71,712,o),
(17,617,o),
(17,554,qs),
(17,491,o),
(71,396,o),
(161,344,o),
(214,344,qs),
(267,344,o)
);
},
{
closed = 1;
nodes = (
(93,420,o),
(48,502,o),
(48,554,qs),
(48,606,o),
(93,689,o),
(168,737,o),
(214,737,qs),
(260,737,o),
(334,689,o),
(379,606,o),
(379,554,qs),
(379,502,o),
(334,420,o),
(260,373,o),
(214,373,qs),
(168,373,o)
);
},
{
closed = 1;
nodes = (
(151,445,o),
(163,445,o),
(172,445,o),
(172,445,q),
(172,445,o),
(172,471,o),
(172,504,o),
(172,530,o),
(172,530,q),
(172,530,o),
(200,530,o),
(227,530,o),
(227,530,q),
(227,530,o),
(240,504,o),
(257,471,o),
(270,445,o),
(270,445,q),
(270,445,o),
(281,445,o),
(296,445,o),
(307,445,o),
(307,445,q),
(307,445,o),
(291,474,o),
(269,512,o),
(253,541,o),
(253,541,q),
(271,546,o),
(296,580,o),
(296,602,qs),
(296,643,o),
(245,671,o),
(214,671,q),
(214,671,o),
(192,671,o),
(164,671,o),
(142,671,o),
(142,671,q),
(142,671,o),
(142,625,o),
(142,558,o),
(142,491,o),
(142,445,o),
(142,445,q),
(142,445,o)
);
},
{
closed = 1;
nodes = (
(172,584,o),
(172,617,o),
(172,643,o),
(172,643,q),
(172,643,o),
(191,643,o),
(209,643,o),
(209,643,q),
(241,643,o),
(264,619,o),
(264,599,qs),
(264,577,o),
(231,558,o),
(205,558,q),
(205,558,o),
(188,558,o),
(172,558,o),
(172,558,q),
(172,558,o)
);
}
);
width = 427;
},
{
layerId = "2B284C16-EA14-4761-8C41-B0F9D88443D8";
shapes = (
{
closed = 1;
nodes = (
(431,398,o),
(492,501,o),
(492,568,qs),
(492,635,o),
(431,738,o),
(329,798,o),
(266,798,qs),
(203,798,o),
(100,738,o),
(40,635,o),
(40,568,qs),
(40,501,o),
(100,398,o),
(203,338,o),
(266,338,qs),
(329,338,o)
);
},
{
closed = 1;
nodes = (
(145,439,o),
(104,516,o),
(104,568.5,qs),
(104,621,o),
(145,697,o),
(219,739,o),
(266,739,qs),
(313,739,o),
(386,697,o),
(427,621,o),
(427,568.5,qs),
(427,516,o),
(386,439,o),
(313,397,o),
(266,397,qs),
(219,397,o)
);
},
{
closed = 1;
nodes = (
(193,459,o),
(221,459,o),
(242,459,o),
(242,459,q),
(242,459,o),
(242,479.188,o),
(242,504.812,o),
(242,525,o),
(242,525,q),
(242,525,o),
(256.764,525,o),
(271,525,o),
(271,525,q),
(271,525,o),
(280.674,504.812,o),
(293.326,479.188,o),
(303,459,o),
(303,459,q),
(303,459,o),
(325,459,o),
(353,459,o),
(375,459,o),
(375,459,q),
(375,459,o),
(361.37,484.677,o),
(342.63,518.323,o),
(329,544,o),
(329,544,q),
(349,554,o),
(368,586,o),
(368,605,qs),
(368,643,o),
(317,679,o),
(276,679,q),
(276,679,o),
(245,679,o),
(203,679,o),
(172,679,o),
(172,679,q),
(172,679,o),
(172,635,o),
(172,569,o),
(172,503,o),
(172,459,o),
(172,459,q),
(172,459,o)
);
},
{
closed = 1;
nodes = (
(242,589.435,o),
(242,611.565,o),
(242,629,o),
(242,629,q),
(242,629,o),
(252,629,o),
(263,629,o),
(263,629,q),
(278,629,o),
(295,612,o),
(295,600,qs),
(295,590,o),
(280,572,o),
(263.254,572,q),
(263.254,572,o),
(252.305,572,o),
(242,572,o),
(242,572,q),
(242,572,o)
);
}
);
width = 532;
}
);
note = uni00AE;
unicode = 174;
}
{
glyphname = macron;
layers = (
{
layerId = m01;
shapes = (
{
closed = 1;
nodes = (
(197,652,o),
(257,652,o),
(323,652,o),
(383,652,o),
(421,652,o),
(421,652,q),
(421,652,o),
(421,661,o),
(421,673,o),
(421,682,o),
(421,682,q),
(421,682,o),
(383,682,o),
(323,682,o),
(257,682,o),
(197,682,o),
(159,682,o),
(159,682,q),
(159,682,o),
(159,673,o),
(159,661,o),
(159,652,o),
(159,652,q),
(159,652,o)
);
}
);
width = 580;
},
{
layerId = "2B284C16-EA14-4761-8C41-B0F9D88443D8";
shapes = (
{
closed = 1;
nodes = (
(193.817,655,o),
(272.476,655,o),
(359,655,o),
(437.367,655,o),
(487,655,o),
(487,655,q),
(487,655,o),
(487,689.8,o),
(487,736.2,o),
(487,771,o),
(487,771,q),
(487,771,o),
(437,771,o),
(358.518,771,o),
(272.188,771,o),
(193.705,771,o),
(144,771,o),
(144,771,q),
(144,771,o),
(144,736,o),
(144,689.714,o),
(144,655,o),
(144,655,q),
(144,655,o)
);
}
);
width = 631;
}
);
note = uni00AF;
unicode = 175;
}
{
glyphname = degree;
layers = (
{
layerId = m01;
shapes = (
{
closed = 1;
nodes = (
(251,514,o),
(286,569,o),
(286,608,qs),
(286,649,o),
(251,705,o),
(197,735,o),
(166,735,qs),
(136,735,o),
(81,705,o),
(46,649,o),
(46,608,qs),
(46,569,o),
(81,514,o),
(136,484,o),
(166,484,qs),
(197,484,o)
);
},
{
closed = 1;
nodes = (
(76,568,o),
(76,608,qs),
(76,651,o),
(126,706,o),
(166,706,qs),
(205,706,o),
(255,651,o),
(255,608,qs),
(255,568,o),
(205,512,o),
(166,512,qs),
(126,512,o)
);
}
);
width = 331;
},
{
layerId = "2B284C16-EA14-4761-8C41-B0F9D88443D8";
shapes = (
{
closed = 1;
nodes = (
(335,474,o),
(380,549,o),
(380,597,qs),
(380,645,o),
(335,721,o),
(259,764,o),
(211,764,qs),
(164,764,o),
(87,721,o),
(43,645,o),
(43,597,qs),
(43,549,o),
(87,474,o),
(164,431,o),
(211,431,qs),
(259,431,o)
);
},
{
closed = 1;
nodes = (
(138,561,o),
(138,597,qs),
(138,634,o),
(179,678,o),
(211,678,qs),
(244,678,o),
(286,634,o),
(286,597,qs),
(286,561,o),
(244,517,o),
(211,517,qs),
(179,517,o)
);
}
);
width = 421;
}
);
note = uni00B0;
unicode = 176;
}
{
glyphname = plusminus;
layers = (
{
layerId = m01;
shapes = (
{
closed = 1;
nodes = (
(251,111,o),
(264,111,o),
(275,111,o),
(275,111,q),
(275,111,o),
(275,156,o),
(275,222,o),
(275,288,o),
(275,333,o),
(275,333,q),
(275,333,o),
(316,333,o),
(376,333,o),
(436,333,o),
(477,333,o),
(477,333,q),
(477,333,o),
(477,342,o),
(477,355,o),
(477,364,o),
(477,364,q),
(477,364,o),
(436,364,o),
(376,364,o),
(316,364,o),
(275,364,o),
(275,364,q),
(275,364,o),
(275,409,o),
(275,475,o),
(275,541,o),
(275,586,o),
(275,586,q),
(275,586,o),
(264,586,o),
(251,586,o),
(240,586,o),
(240,586,q),
(240,586,o),
(240,541,o),
(240,475,o),
(240,409,o),
(240,364,o),
(240,364,q),
(240,364,o),
(199,364,o),
(139,364,o),
(78,364,o),
(37,364,o),
(37,364,q),
(37,364,o),
(37,355,o),
(37,342,o),
(37,333,o),
(37,333,q),
(37,333,o),
(78,333,o),
(139,333,o),
(199,333,o),
(240,333,o),
(240,333,q),
(240,333,o),
(240,288,o),
(240,222,o),
(240,156,o),
(240,111,o),
(240,111,q),
(240,111,o)
);
},
{
closed = 1;
nodes = (
(85,-11,o),
(163,-11,o),
(257,-11,o),
(351,-11,o),
(429,-11,o),
(477,-11,o),
(477,-11,q),
(477,-11,o),
(477,-2,o),
(477,11,o),
(477,20,o),
(477,20,q),
(477,20,o),
(429,20,o),
(351,20,o),
(257,20,o),
(163,20,o),
(85,20,o),
(37,20,o),
(37,20,q),
(37,20,o),
(37,11,o),
(37,-2,o),
(37,-11,o),
(37,-11,q),
(37,-11,o)
);
}
);
width = 514;
},
{
layerId = "2B284C16-EA14-4761-8C41-B0F9D88443D8";
shapes = (
{
closed = 1;
nodes = (
(276,177,o),
(328,177,o),
(368,177,o),
(368,177,q),
(368,177,o),
(368,205.784,o),
(368,248,o),
(368,290.216,o),
(368,319,o),
(368,319,q),
(368,319,o),
(408.188,319,o),
(467,319,o),
(525.812,319,o),
(566,319,o),
(566,319,q),
(566,319,o),
(566,358,o),
(566,408,o),
(566,447,o),
(566,447,q),
(566,447,o),
(525.812,447,o),
(467,447,o),
(408.188,447,o),
(368,447,o),
(368,447,q),
(368,447,o),
(368,484.297,o),
(368,539,o),
(368,593.703,o),
(368,631,o),
(368,631,q),
(368,631,o),
(328,631,o),
(276,631,o),
(236,631,o),
(236,631,q),
(236,631,o),
(236,593.703,o),
(236,539,o),
(236,484.297,o),
(236,447,o),
(236,447,q),
(236,447,o),
(196.01,447,o),
(137.488,447,o),
(77.99,447,o),
(38,447,o),
(38,447,q),
(38,447,o),
(38,408,o),
(38,358,o),
(38,319,o),
(38,319,q),
(38,319,o),
(77.99,319,o),
(137.488,319,o),
(196.01,319,o),
(236,319,o),
(236,319,q),
(236,319,o),
(236,290.216,o),
(236,248,o),
(236,205.784,o),
(236,177,o),
(236,177,q),
(236,177,o)
);
},
{
closed = 1;
nodes = (
(95,-11,o),
(188.872,-11,o),
(302,-11,o),
(415.128,-11,o),
(509,-11,o),
(566,-11,o),
(566,-11,q),
(566,-11,o),
(566,28,o),
(566,78,o),
(566,117,o),
(566,117,q),
(566,117,o),
(509,117,o),
(415.128,117,o),
(302,117,o),
(188.872,117,o),
(95,117,o),
(38,117,o),
(38,117,q),
(38,117,o),
(38,78,o),
(38,28,o),
(38,-11,o),
(38,-11,q),
(38,-11,o)
);
}
);
width = 605;
}
);
note = uni00B1;
unicode = 177;
}
{
glyphname = twosuperior;
layers = (
{
layerId = m01;
shapes = (
{
closed = 1;
nodes = (
(102,436,o),
(165,436,o),
(234,436,o),
(297,436,o),
(336,436,o),
(336,436,q),
(336,436,o),
(336,444,o),
(336,456,o),
(336,464,o),
(336,464,q),
(336,464,o),
(292,464,o),
(226,464,o),
(160,464,o),
(116,464,o),
(116,464,q),
(174,521,o),
(261,612,o),
(310,696,o),
(310,741,qs),
(310,808,o),
(238,874,o),
(181,874,qs),
(142,874,o),
(72,827,o),
(55,796,q),
(55,796,o),
(61,790,o),
(70,782,o),
(76,776,o),
(76,776,q),
(94,804,o),
(148,846,o),
(179,846,qs),
(223,846,o),
(277,788,o),
(277,739,qs),
(277,702,o),
(233,626,o),
(139,529,o),
(63,458,q),
(63,458,o),
(63,451,o),
(63,443,o),
(63,436,o),
(63,436,q),
(63,436,o)
);
}
);
width = 392;
},
{
layerId = "2B284C16-EA14-4761-8C41-B0F9D88443D8";
shapes = (
{
closed = 1;
nodes = (
(96.571,408,o),
(173.418,408,o),
(257.582,408,o),
(334.429,408,o),
(382,408,o),
(382,408,q),
(382,408,o),
(382,442,o),
(382,485,o),
(382,519,o),
(382,519,q),
(382,519,o),
(357,519,o),
(321,519,o),
(285,519,o),
(260,519,o),
(260,519,q),
(288,551,o),
(336,613,o),
(367,678,o),
(367,712,qs),
(367,783,o),
(276,862,o),
(200,862,qs),
(148,862,o),
(63,817,o),
(27,771,q),
(27,771,o),
(50,750,o),
(79,723,o),
(102,702,o),
(102,702,q),
(121,726,o),
(157,753,o),
(179,753,qs),
(208,753,o),
(238,719,o),
(238,688,qs),
(238,663,o),
(188,599,o),
(103,522,o),
(49,479,q),
(49,479,o),
(49,458,o),
(49,429,o),
(49,408,o),
(49,408,q),
(49,408,o)
);
}
);
width = 428;
}
);
note = uni00B2;
unicode = 178;
}
{
glyphname = threesuperior;
layers = (
{
layerId = m01;
shapes = (
{
closed = 1;
nodes = (
(294,452,o),
(331,508,o),
(331,547,qs),
(331,593,o),
(268,647,o),
(229,654,q),
(265,667,o),
(314,722,o),
(314,763,qs),
(314,798,o),
(280,848,o),
(222,874,o),
(187,874,qs),
(148,874,o),
(85,835,o),
(63,807,q),
(63,807,o),
(70,801,o),
(78,793,o),
(85,787,o),
(85,787,q),
(106,813,o),
(159,846,o),
(185,846,qs),
(229,846,o),
(281,799,o),
(281,761,qs),
(281,724,o),
(209,665,o),
(142,665,q),
(142,665,o),
(142,657,o),
(142,647,o),
(142,639,o),
(142,639,q),
(214,639,o),
(299,591,o),
(299,547,qs),
(299,501,o),
(237,451,o),
(194,451,qs),
(157,451,o),
(92,492,o),
(72,523,q),
(72,523,o),
(64,517,o),
(54,509,o),
(46,503,o),
(46,503,q),
(67,472,o),
(143,423,o),
(192,423,qs),
(231,423,o)
);
}
);
width = 392;
},
{
layerId = "2B284C16-EA14-4761-8C41-B0F9D88443D8";
shapes = (
{
closed = 1;
nodes = (
(336,429,o),
(385,491,o),
(385,531,qs),
(385,569,o),
(342,623,o),
(308,639,q),
(338,656,o),
(370,705,o),
(370,739,qs),
(370,777,o),
(326,832,o),
(255,862,o),
(214,862,qs),
(160,862,o),
(84,826,o),
(46,786,q),
(46,786,o),
(69,766,o),
(99,740,o),
(122,720,o),
(122,720,q),
(136,737,o),
(170,762,o),
(190,762,qs),
(212,762,o),
(240,740,o),
(240,720,qs),
(240,694,o),
(195,670,o),
(157,670,q),
(157,670,o),
(157,648,o),
(157,618,o),
(157,596,o),
(157,596,q),
(208,596,o),
(255,569,o),
(255,543,qs),
(255,520,o),
(221,495,o),
(197,495,qs),
(171,495,o),
(129,519,o),
(108,547,q),
(108,547,o),
(84,528,o),
(52,504,o),
(28,485,o),
(28,485,q),
(59,440,o),
(153,395,o),
(211,395,qs),
(257,395,o)
);
}
);
width = 428;
}
);
note = uni00B3;
unicode = 179;
}
{
glyphname = acute;
layers = (
{
layerId = m01;
shapes = (
{
closed = 1;
nodes = (
(220,610,o),
(230,610,o),
(240,610,o),
(246,610,o),
(246,610,q),
(246,610,o),
(270,633,o),
(307,669,o),
(349,710,o),
(386,746,o),
(410,769,o),
(410,769,q),
(410,769,o),
(408,774,o),
(408,774,q),
(408,774,o),
(400,774,o),
(387,774,o),
(374,774,o),
(366,774,o),
(366,774,q),
(366,774,o),
(335,741,o),
(290,692,o),
(245,643,o),
(214,610,o),
(214,610,q),
(214,610,o)
);
}
);
width = 580;
},
{
layerId = "2B284C16-EA14-4761-8C41-B0F9D88443D8";
shapes = (
{
closed = 1;
nodes = (
(243,633,o),
(284.5,633,o),
(326,633,o),
(354,633,o),
(354,633,q),
(354,633,o),
(381.951,660.774,o),
(425.043,704.245,o),
(473.957,753.755,o),
(517.049,797.226,o),
(545,825,o),
(545,825,q),
(545,825,o),
(533,844,o),
(533,844,q),
(533,844,o),
(494,844,o),
(437.5,844,o),
(381,844,o),
(342,844,o),
(342,844,q),
(342,844,o),
(316,801,o),
(279,739,o),
(241.105,675.659,o),
(215,633,o),
(215,633,q),
(215,633,o)
);
}
);
width = 631;
}
);
note = uni00B4;
unicode = 180;
}
{
glyphname = micro;
kernLeft = micro;
kernRight = iota;
layers = (
{
layerId = m01;
shapes = (
{
closed = 1;
nodes = (
(111,-207,o),
(121,-207,o),
(131,-207,o),
(137,-207,o),
(137,-207,q),
(136,-174,o),
(134,-120,o),
(133,-65,o),
(133,2,o),
(133,48,q),
(156,4,o),
(221,-24,o),
(264,-24,qs),
(313,-24,o),
(400,31,o),
(436,89,q),
(436,89,o),
(438,89,o),
(438,89,q),
(437,31,o),
(461,-20,o),
(497,-20,qs),
(508,-20,o),
(528,-14,o),
(536,-11,q),
(536,-11,o),
(534,-3,o),
(532,9,o),
(530,17,o),
(530,17,q),
(520,14,o),
(507,11,o),
(499,11,qs),
(486,11,o),
(469,31,o),
(469,50,qs),
(469,128,o),
(469,279,o),
(470,432,o),
(471,510,q),
(471,510,o),
(464,510,o),
(455,510,o),
(445,510,o),
(438,510,o),
(438,510,q),
(438,510,o),
(438,456,o),
(438,370,o),
(438,275,o),
(438,189,o),
(438,135,o),
(438,135,q),
(405,78,o),
(345,23,o),
(288,6,o),
(259,6,qs),
(194,6,o),
(137,99,o),
(137,179,q),
(137,179,o),
(137,227,o),
(137,302,o),
(137,387,o),
(137,462,o),
(137,510,o),
(137,510,q),
(137,510,o),
(131,510,o),
(121,510,o),
(111,510,o),
(105,510,o),
(105,510,q),
(105,510,o),
(105,450,o),
(105,347,o),
(105,220,o),
(105,83,o),
(105,-44,o),
(105,-147,o),
(105,-207,o),
(105,-207,q),
(105,-207,o)
);
}
);
width = 584;
},
{
layerId = "2B284C16-EA14-4761-8C41-B0F9D88443D8";
shapes = (
{
closed = 1;
nodes = (
(106,-210,o),
(161,-210,o),
(216,-210,o),
(253,-210,o),
(253,-210,q),
(250,-181,o),
(246,-130,o),
(243,-79,o),
(242,-27,o),
(241,1,q),
(254,-12,o),
(286,-18,o),
(303,-18,qs),
(338,-18,o),
(396,26,o),
(415,66,q),
(415,66,o),
(418,66,o),
(418,66,q),
(435,22,o),
(513,-25,o),
(574,-25,qs),
(613,-25,o),
(661,-13,o),
(680,-4,q),
(680,-4,o),
(674,36,o),
(665,89,o),
(659,129,o),
(659,129,q),
(649,126,o),
(630,122,o),
(623,122,qs),
(598,122,o),
(570,144,o),
(570,172,qs),
(570,215,o),
(575,345,o),
(581,489,o),
(583,552,q),
(583,552,o),
(546,552,o),
(491,552,o),
(435,552,o),
(398,552,o),
(398,552,q),
(398,552,o),
(398,501,o),
(398,419.509,o),
(398,329.491,o),
(398,248,o),
(398,197,o),
(398,197,q),
(386,174,o),
(361,145,o),
(331,131,o),
(313,131,qs),
(282,131,o),
(252,172,o),
(252,227,q),
(252,227,o),
(252,274,o),
(252,347.675,o),
(252,431.173,o),
(252,504.848,o),
(252,552,o),
(252,552,q),
(252,552,o),
(215,552,o),
(160.5,552,o),
(106,552,o),
(69,552,o),
(69,552,q),
(69,552,o),
(69,488.319,o),
(69,379,o),
(69,243,o),
(69,99,o),
(69,-37,o),
(69,-146.319,o),
(69,-210,o),
(69,-210,q),
(69,-210,o)
);
}
);
width = 679;
}
);
note = uni00B5;
unicode = (181,956);
}
{
glyphname = paragraph;
layers = (
{
layerId = m01;
shapes = (
{
closed = 1;
nodes = (
(410,-98,o),
(421,-98,o),
(431,-98,o),
(438,-98,o),
(438,-98,q),
(438,-98,o),
(438,-30,o),
(438,85,o),
(438,229,o),
(438,381,o),
(438,525,o),
(438,640,o),
(438,708,o),
(438,708,q),
(438,708,o),
(431,708,o),
(421,708,o),
(410,708,o),
(403,708,o),
(403,708,q),
(403,708,o),
(403,640,o),
(403,525,o),
(403,381,o),
(403,229,o),
(403,85,o),
(403,-30,o),
(403,-98,o),
(403,-98,q),
(403,-98,o)
);
},
{
closed = 1;
nodes = (
(330,262,o),
(344,262,o),
(344,262,q),
(344,262,o),
(344,310,o),
(344,390,o),
(344,485,o),
(344,580,o),
(344,660,o),
(344,708,o),
(344,708,q),
(344,708,o),
(320,708,o),
(296,708,o),
(296,708,q),
(222,708,o),
(109,663,o),
(46,565,o),
(46,484,qs),
(46,404,o),
(114,306,o),
(235,262,o),
(316,262,q),
(316,262,o)
);
}
);
width = 543;
},
{
layerId = "2B284C16-EA14-4761-8C41-B0F9D88443D8";
shapes = (
{
closed = 1;
nodes = (
(484,-101,o),
(539,-101,o),
(594,-101,o),
(631,-101,o),
(631,-101,q),
(631,-101,o),
(631,-31.313,o),
(631,86.541,o),
(631,234.114,o),
(631,389.886,o),
(631,537.459,o),
(631,655.313,o),
(631,725,o),
(631,725,q),
(631,725,o),
(594,725,o),
(539,725,o),
(484,725,o),
(447,725,o),
(447,725,q),
(447,725,o),
(447,655.313,o),
(447,537.459,o),
(447,389.886,o),
(447,234.114,o),
(447,86.541,o),
(447,-31.313,o),
(447,-101,o),
(447,-101,q),
(447,-101,o)
);
},
{
closed = 1;
nodes = (
(360,205,o),
(384,205,o),
(384,205,q),
(384,205,o),
(384,260.875,o),
(384,354,o),
(384,464.833,o),
(384,575.667,o),
(384,669,o),
(384,725,o),
(384,725,q),
(384,725,o),
(359,725,o),
(333.531,725,o),
(333.531,725,q),
(255,725,o),
(123,678,o),
(43,566,o),
(43,470,qs),
(43,383,o),
(123,265,o),
(257,205,o),
(336,205,q),
(336,205,o)
);
}
);
width = 739;
}
);
note = uni00B6;
unicode = 182;
}
{
glyphname = periodcentered;
kernLeft = periodcentered;
kernRight = periodcentered;
layers = (
{
layerId = m01;
shapes = (
{
closed = 1;
nodes = (
(153,321,o),
(153,340,qs),
(153,361,o),
(128,384,o),
(113,384,qs),
(99,384,o),
(74,361,o),
(74,340,qs),
(74,321,o),
(99,299,o),
(113,299,qs),
(128,299,o)
);
}
);
width = 227;
},
{
layerId = "2B284C16-EA14-4761-8C41-B0F9D88443D8";
shapes = (
{
closed = 1;
nodes = (
(284,304,o),
(284,351,qs),
(284,398,o),
(223,464,o),
(176,464,qs),
(130,464,o),
(69,398,o),
(69,351,qs),
(69,304,o),
(130,239,o),
(176,239,qs),
(223,239,o)
);
}
);
width = 353;
}
);
note = uni00B7;
unicode = 183;
}
{
glyphname = cedilla;
layers = (
{
layerId = m01;
shapes = (
{
closed = 1;
nodes = (
(371,-198,o),
(371,-157,qs),
(371,-124,o),
(329,-91,o),
(294,-83,q),
(294,-83,o),
(304,-61,o),
(317,-31,o),
(327,-9,o),
(327,-9,q),
(327,-9,o),
(318,-9,o),
(305,-9,o),
(296,-9,o),
(296,-9,q),
(296,-9,o),
(283,-37,o),
(266,-75,o),
(253,-103,o),
(253,-103,q),
(297,-109,o),
(338,-135,o),
(338,-159,qs),
(338,-184,o),
(286,-213,o),
(214,-218,q),
(214,-218,o),
(216,-226,o),
(218,-238,o),
(220,-246,o),
(220,-246,q),
(294,-241,o)
);
}
);
width = 580;
},
{
layerId = "2B284C16-EA14-4761-8C41-B0F9D88443D8";
shapes = (
{
closed = 1;
nodes = (
(428,-224,o),
(428,-165,qs),
(428,-129,o),
(385,-89,o),
(341,-79,q),
(341,-79,o),
(351,-57,o),
(363,-28,o),
(373,-6,o),
(373,-6,q),
(373,-6,o),
(341,-6,o),
(300,-6,o),
(268,-6,o),
(268,-6,q),
(268,-6,o),
(251,-40,o),
(229,-84,o),
(212,-118,o),
(212,-118,q),
(264,-125,o),
(298,-148,o),
(298,-165,qs),
(298,-188,o),
(249,-210,o),
(184,-213,q),
(184,-213,o),
(188,-234,o),
(193,-263,o),
(197,-284,o),
(197,-284,q),
(306,-281,o)
);
}
);
width = 631;
}
);
note = uni00B8;
unicode = 184;
}
{
glyphname = onesuperior;
layers = (
{
layerId = m01;
shapes = (
{
closed = 1;
nodes = (
(203,436,o),
(216,436,o),
(225,436,o),
(225,436,q),
(225,436,o),
(225,482,o),
(225,558,o),
(225,649,o),
(225,739,o),
(225,815,o),
(225,861,o),
(225,861,q),
(225,861,o),
(216,861,o),
(205,861,o),
(196,861,o),
(196,861,q),
(178,846,o),
(134,826,o),
(105,820,q),
(105,820,o),
(105,813,o),
(105,803,o),
(105,796,o),
(105,796,q),
(105,796,o),
(132,796,o),
(167,796,o),
(194,796,o),
(194,796,q),
(194,796,o),
(194,744,o),
(194,662,o),
(194,570,o),
(194,488,o),
(194,436,o),
(194,436,q),
(194,436,o)
);
}
);
width = 392;
},
{
layerId = "2B284C16-EA14-4761-8C41-B0F9D88443D8";
shapes = (
{
closed = 1;
nodes = (
(225,408,o),
(278,408,o),
(319,408,o),
(319,408,q),
(319,408,o),
(319,455.508,o),
(319,534,o),
(319,629.022,o),
(319,723,o),
(319,801.492,o),
(319,849,o),
(319,849,q),
(319,849,o),
(287,849,o),
(246,849,o),
(214,849,o),
(214,849,q),
(184,829,o),
(131,806,o),
(84,799,q),
(84,799,o),
(84,775.375,o),
(84,741.625,o),
(84,718,o),
(84,718,q),
(84,718,o),
(114.337,718,o),
(153.663,718,o),
(184,718,o),
(184,718,q),
(184,718,o),
(184,673.222,o),
(184,602.611,o),
(184,523.389,o),
(184,452.778,o),
(184,408,o),
(184,408,q),
(184,408,o)
);
}
);
width = 428;
}
);
note = uni00B9;
unicode = 185;
}
{
glyphname = ordmasculine;
layers = (
{
layerId = m01;
shapes = (
{
closed = 1;
nodes = (
(309,470,o),
(351,552,o),
(351,608,qs),
(351,666,o),
(309,747,o),
(238,789,o),
(194,789,qs),
(151,789,o),
(79,747,o),
(37,666,o),
(37,608,qs),
(37,552,o),
(79,470,o),
(151,427,o),
(194,427,qs),
(238,427,o)
);
},
{
closed = 1;
nodes = (
(70,541,o),
(70,608,qs),
(70,677,o),
(139,761,o),
(194,761,qs),
(250,761,o),
(318,677,o),
(318,608,qs),
(318,541,o),
(250,456,o),
(194,456,qs),
(139,456,o)
);
}
);
width = 390;
},
{
layerId = "2B284C16-EA14-4761-8C41-B0F9D88443D8";
shapes = (
{
closed = 1;
nodes = (
(345,446,o),
(398,534,o),
(398,595,qs),
(398,657,o),
(345,744,o),
(260,791,o),
(211,791,qs),
(163,791,o),
(79,744,o),
(26,657,o),
(26,595,qs),
(26,534,o),
(79,446,o),
(163,399,o),
(211,399,qs),
(260,399,o)
);
},
{
closed = 1;
nodes = (
(156,552,o),
(156,595,qs),
(156,638,o),
(182,691,o),
(211,691,qs),
(242,691,o),
(267,638,o),
(267,595,qs),
(267,552,o),
(242,500,o),
(211,500,qs),
(182,500,o)
);
}
);
width = 424;
}
);
note = uni00BA;
unicode = 186;
}
{
glyphname = guillemetright;
kernLeft = guilsinglright;
kernRight = guilsinglright;
layers = (
{
layerId = m01;
shapes = (
{
closed = 1;
nodes = (
(111,106,o),
(156,159,o),
(201,212,o),
(231,248,o),
(231,248,q),
(231,248,o),
(231,257,o),
(231,270,o),
(231,279,o),
(231,279,q),
(231,279,o),
(201,315,o),
(156,369,o),
(111,422,o),
(81,458,o),
(81,458,q),
(81,458,o),
(74,452,o),
(66,444,o),
(59,438,o),
(59,438,q),
(59,438,o),
(86,403,o),
(127,351,o),
(167,299,o),
(194,264,o),
(194,264,q),
(194,264,o),
(167,228,o),
(126,176,o),
(86,123,o),
(59,87,o),
(59,87,q),
(59,87,o),
(66,82,o),
(74,75,o),
(81,70,o),
(81,70,q),
(81,70,o)
);
},
{
closed = 1;
nodes = (
(257,106,o),
(302,159,o),
(347,212,o),
(377,248,o),
(377,248,q),
(377,248,o),
(377,257,o),
(377,270,o),
(377,279,o),
(377,279,q),
(377,279,o),
(347,315,o),
(302,369,o),
(257,422,o),
(227,458,o),
(227,458,q),
(227,458,o),
(220,452,o),
(212,444,o),
(205,438,o),
(205,438,q),
(205,438,o),
(232,403,o),
(273,351,o),
(313,299,o),
(340,264,o),
(340,264,q),
(340,264,o),
(313,228,o),
(273,176,o),
(232,123,o),
(205,87,o),
(205,87,q),
(205,87,o),
(212,82,o),
(220,75,o),
(227,70,o),
(227,70,q),
(227,70,o)
);
}
);
width = 423;
},
{
layerId = "2B284C16-EA14-4761-8C41-B0F9D88443D8";
shapes = (
{
closed = 1;
nodes = (
(159,82,o),
(204,130,o),
(248,177,o),
(279,209,o),
(279,209,q),
(279,209,o),
(279,248,o),
(279,299,o),
(279,338,o),
(279,338,q),
(279,338,o),
(248,370,o),
(203,418,o),
(159,466,o),
(128,498,o),
(128,498,q),
(128,498,o),
(108,482,o),
(81,460,o),
(61,444,o),
(61,444,q),
(61,444,o),
(86,410,o),
(122,359,o),
(159.015,308.195,o),
(184,274,o),
(184,274,q),
(184,274,o),
(159,239,o),
(123,189,o),
(85.985,137.787,o),
(61,103,o),
(61,103,q),
(61,103,o),
(81,87,o),
(108,66,o),
(128,50,o),
(128,50,q),
(128,50,o)
);
},
{
closed = 1;
nodes = (
(379,82,o),
(424,130,o),
(468,177,o),
(499,209,o),
(499,209,q),
(499,209,o),
(499,248,o),
(499,299,o),
(499,338,o),
(499,338,q),
(499,338,o),
(468,370,o),
(424,418,o),
(379,466,o),
(348,498,o),
(348,498,q),
(348,498,o),
(328,482,o),
(301,460,o),
(281,444,o),
(281,444,q),
(281,444,o),
(305.8,409.805,o),
(343.459,359,o),
(380.2,308.195,o),
(405,274,o),
(405,274,q),
(405,274,o),
(380.2,239.22,o),
(343.459,188.983,o),
(305.8,137.78,o),
(281,103,o),
(281,103,q),
(281,103,o),
(301,87,o),
(328,66,o),
(348,50,o),
(348,50,q),
(348,50,o)
);
}
);
width = 556;
}
);
note = uni00BB;
unicode = 187;
}
{
glyphname = onequarter;
layers = (
{
layerId = m01;
shapes = (
{
closed = 1;
nodes = (
(181,283,o),
(194,283,o),
(203,283,o),
(203,283,q),
(203,283,o),
(203,329,o),
(203,405,o),
(203,495,o),
(203,586,o),
(203,662,o),
(203,708,o),
(203,708,q),
(203,708,o),
(194,708,o),
(183,708,o),
(174,708,o),
(174,708,q),
(156,694,o),
(112,674,o),
(83,667,q),
(83,667,o),
(83,660,o),
(83,650,o),
(83,643,o),
(83,643,q),
(83,643,o),
(110,643,o),
(145,643,o),
(172,643,o),
(172,643,q),
(172,643,o),
(172,591,o),
(172,509,o),
(172,417,o),
(172,335,o),
(172,283,o),
(172,283,q),
(172,283,o)
);
},
{
closed = 1;
nodes = (
(203,-24,o),
(216,-24,o),
(227,-24,o),
(227,-24,q),
(227,-24,o),
(261,39,o),
(319,145,o),
(390,278,o),
(467,419,o),
(538,552,o),
(596,658,o),
(630,721,o),
(630,721,q),
(630,721,o),
(619,721,o),
(606,721,o),
(595,721,o),
(595,721,q),
(595,721,o),
(561,658,o),
(503,552,o),
(432,419,o),
(355,278,o),
(284,145,o),
(226,39,o),
(192,-24,o),
(192,-24,q),
(192,-24,o)
);
},
{
closed = 1;
nodes = (
(687,-11,o),
(700,-11,o),
(709,-11,o),
(709,-11,q),
(709,-11,o),
(709,35,o),
(709,111,o),
(709,202,o),
(709,292,o),
(709,368,o),
(709,414,o),
(709,414,q),
(709,414,o),
(704,414,o),
(697,414,o),
(690,414,o),
(685,414,o),
(685,414,q),
(685,414,o),
(656,374,o),
(611,310,o),
(560,239,o),
(515,175,o),
(486,135,o),
(486,135,q),
(486,135,o),
(486,130,o),
(486,123,o),
(486,118,o),
(486,118,q),
(486,118,o),
(527,118,o),
(592,118,o),
(666,118,o),
(731,118,o),
(772,118,o),
(772,118,q),
(772,118,o),
(772,126,o),
(772,138,o),
(772,146,o),
(772,146,q),
(772,146,o),
(737,146,o),
(682,146,o),
(620,146,o),
(565,146,o),
(530,146,o),
(530,146,q),
(530,146,o),
(547,171,o),
(572,207,o),
(598,243,o),
(615,268,o),
(615,268,q),
(615,268,o),
(634,296,o),
(659,332,o),
(678,360,o),
(678,360,q),
(678,360,o),
(682,360,o),
(682,360,q),
(682,360,o),
(681,326,o),
(679,282,o),
(678,248,o),
(678,248,q),
(678,248,o),
(678,211,o),
(678,152,o),
(678,85,o),
(678,26,o),
(678,-11,o),
(678,-11,q),
(678,-11,o)
);
}
);
width = 826;
},
{
layerId = "2B284C16-EA14-4761-8C41-B0F9D88443D8";
shapes = (
{
closed = 1;
nodes = (
(190,284,o),
(243,284,o),
(284,284,o),
(284,284,q),
(284,284,o),
(284,331.508,o),
(284,410,o),
(284,503.978,o),
(284,599,o),
(284,677.492,o),
(284,725,o),
(284,725,q),
(284,725,o),
(252,725,o),
(211,725,o),
(179,725,o),
(179,725,q),
(149,705,o),
(96,682,o),
(49,675,q),
(49,675,o),
(49,651.375,o),
(49,617.625,o),
(49,594,o),
(49,594,q),
(49,594,o),
(79.337,594,o),
(118.663,594,o),
(149,594,o),
(149,594,q),
(149,594,o),
(149,549.222,o),
(149,478.611,o),
(149,399.389,o),
(149,328.778,o),
(149,284,o),
(149,284,q),
(149,284,o)
);
},
{
closed = 1;
nodes = (
(243,-25,o),
(284,-25,o),
(315,-25,o),
(315,-25,q),
(315,-25,o),
(348,39,o),
(405.134,147.74,o),
(475.075,284.178,o),
(550.925,428.822,o),
(620.866,565.26,o),
(678,674,o),
(711,738,o),
(711,738,q),
(711,738,o),
(680,738,o),
(638,738,o),
(607,738,o),
(607,738,q),
(607,738,o),
(574,674,o),
(517.039,565.26,o),
(447.31,428.822,o),
(371.69,284.178,o),
(301.961,147.74,o),
(245,39,o),
(212,-25,o),
(212,-25,q),
(212,-25,o)
);
},
{
closed = 1;
nodes = (
(770,-11,o),
(817,-11,o),
(852,-11,o),
(852,-11,q),
(852,-11,o),
(852,36.508,o),
(852,115,o),
(852,210.022,o),
(852,304,o),
(852,382.492,o),
(852,430,o),
(852,430,q),
(852,430,o),
(818,430,o),
(768.5,430,o),
(719,430,o),
(685,430,o),
(685,430,q),
(685,430,o),
(663,389,o),
(627.894,324.678,o),
(588.106,253.322,o),
(553,189,o),
(531,148,o),
(531,148,q),
(531,148,o),
(531,128,o),
(531,103,o),
(531,83,o),
(531,83,q),
(531,83,o),
(587,83,o),
(674.623,83,o),
(774.377,83,o),
(862,83,o),
(918,83,o),
(918,83,q),
(918,83,o),
(918,109,o),
(918,143,o),
(918,169,o),
(918,169,q),
(918,169,o),
(879.529,169,o),
(819.074,169,o),
(750.926,169,o),
(690.471,169,o),
(652,169,o),
(652,169,q),
(652,169,o),
(660,187,o),
(673,213,o),
(685.698,238.377,o),
(694,256,o),
(694,256,q),
(694,256,o),
(706.968,282.174,o),
(724.032,315.826,o),
(737,342,o),
(737,342,q),
(737,342,o),
(741,342,o),
(741,342,q),
(741,342,o),
(739,301,o),
(737,248,o),
(735,207,o),
(735,207,q),
(735,207,o),
(735,176,o),
(735,126.302,o),
(735,69.865,o),
(735,20.167,o),
(735,-11,o),
(735,-11,q),
(735,-11,o)
);
}
);
width = 922;
}
);
note = uni00BC;
unicode = 188;
}
{
glyphname = onehalf;
layers = (
{
layerId = m01;
shapes = (
{
closed = 1;
nodes = (
(181,283,o),
(194,283,o),
(203,283,o),
(203,283,q),
(203,283,o),
(203,329,o),
(203,405,o),
(203,495,o),
(203,586,o),
(203,662,o),
(203,708,o),
(203,708,q),
(203,708,o),
(194,708,o),
(183,708,o),
(174,708,o),
(174,708,q),
(156,694,o),
(112,674,o),
(83,667,q),
(83,667,o),
(83,660,o),
(83,650,o),
(83,643,o),
(83,643,q),
(83,643,o),
(110,643,o),
(145,643,o),
(172,643,o),
(172,643,q),
(172,643,o),
(172,591,o),
(172,509,o),
(172,417,o),
(172,335,o),
(172,283,o),
(172,283,q),
(172,283,o)
);
},
{
closed = 1;
nodes = (
(177,-24,o),
(190,-24,o),
(201,-24,o),
(201,-24,q),
(201,-24,o),
(235,39,o),
(293,145,o),
(364,278,o),
(441,419,o),
(512,552,o),
(570,658,o),
(604,721,o),
(604,721,q),
(604,721,o),
(593,721,o),
(580,721,o),
(569,721,o),
(569,721,q),
(569,721,o),
(535,658,o),
(477,552,o),
(406,419,o),
(329,278,o),
(258,145,o),
(200,39,o),
(166,-24,o),
(166,-24,q),
(166,-24,o)
);
},
{
closed = 1;
nodes = (
(558,-11,o),
(620,-11,o),
(690,-11,o),
(752,-11,o),
(791,-11,o),
(791,-11,q),
(791,-11,o),
(791,-3,o),
(791,9,o),
(791,17,o),
(791,17,q),
(791,17,o),
(747,17,o),
(681,17,o),
(615,17,o),
(571,17,o),
(571,17,q),
(629,74,o),
(716,165,o),
(765,249,o),
(765,294,qs),
(765,362,o),
(694,427,o),
(637,427,qs),
(597,427,o),
(528,380,o),
(510,349,q),
(510,349,o),
(517,343,o),
(525,335,o),
(532,329,o),
(532,329,q),
(550,357,o),
(603,399,o),
(634,399,qs),
(678,399,o),
(732,341,o),
(732,292,qs),
(732,255,o),
(688,180,o),
(594,82,o),
(519,11,q),
(519,11,o),
(519,4,o),
(519,-4,o),
(519,-11,o),
(519,-11,q),
(519,-11,o)
);
}
);
width = 848;
},
{
layerId = "2B284C16-EA14-4761-8C41-B0F9D88443D8";
shapes = (
{
closed = 1;
nodes = (
(190,284,o),
(243,284,o),
(284,284,o),
(284,284,q),
(284,284,o),
(284,331.508,o),
(284,410,o),
(284,503.978,o),
(284,599,o),
(284,677.492,o),
(284,725,o),
(284,725,q),
(284,725,o),
(252,725,o),
(211,725,o),
(179,725,o),
(179,725,q),
(149,705,o),
(96,682,o),
(49,675,q),
(49,675,o),
(49,651.375,o),
(49,617.625,o),
(49,594,o),
(49,594,q),
(49,594,o),
(79.337,594,o),
(118.663,594,o),
(149,594,o),
(149,594,q),
(149,594,o),
(149,549.222,o),
(149,478.611,o),
(149,399.389,o),
(149,328.778,o),
(149,284,o),
(149,284,q),
(149,284,o)
);
},
{
closed = 1;
nodes = (
(226,-25,o),
(267,-25,o),
(298,-25,o),
(298,-25,q),
(298,-25,o),
(331,39,o),
(388.134,147.74,o),
(458.075,284.178,o),
(533.925,428.822,o),
(603.866,565.26,o),
(661,674,o),
(694,738,o),
(694,738,q),
(694,738,o),
(663,738,o),
(621,738,o),
(590,738,o),
(590,738,q),
(590,738,o),
(557,674,o),
(500.039,565.26,o),
(430.31,428.822,o),
(354.69,284.178,o),
(284.961,147.74,o),
(228,39,o),
(195,-25,o),
(195,-25,q),
(195,-25,o)
);
},
{
closed = 1;
nodes = (
(634,-11,o),
(710.103,-11,o),
(796.026,-11,o),
(872.129,-11,o),
(920,-11,o),
(920,-11,q),
(920,-11,o),
(920,23,o),
(920,66,o),
(920,100,o),
(920,100,q),
(920,100,o),
(895,100,o),
(859,100,o),
(823,100,o),
(798,100,o),
(798,100,q),
(826,132,o),
(874,194,o),
(905,259,o),
(905,293,qs),
(905,364,o),
(813,443,o),
(738.371,443,qs),
(686,443,o),
(600,398,o),
(565,352,q),
(565,352,o),
(588,331,o),
(617,304,o),
(640,283,o),
(640,283,q),
(658,306,o),
(695,334,o),
(715.667,334,qs),
(745,334,o),
(776,300,o),
(776,269,qs),
(776,244,o),
(726,179,o),
(640,103,o),
(586,60,q),
(586,60,o),
(586,39,o),
(586,10,o),
(586,-11,o),
(586,-11,q),
(586,-11,o)
);
}
);
width = 965;
}
);
note = uni00BD;
unicode = 189;
}
{
glyphname = threequarters;
layers = (
{
layerId = m01;
shapes = (
{
closed = 1;
nodes = (
(294,299,o),
(331,355,o),
(331,394,qs),
(331,441,o),
(268,495,o),
(229,501,q),
(265,515,o),
(314,570,o),
(314,610,qs),
(314,645,o),
(280,695,o),
(222,721,o),
(187,721,qs),
(148,721,o),
(85,682,o),
(63,654,q),
(63,654,o),
(70,648,o),
(78,640,o),
(85,634,o),
(85,634,q),
(106,660,o),
(159,693,o),
(185,693,qs),
(229,693,o),
(281,646,o),
(281,608,qs),
(281,571,o),
(209,512,o),
(142,512,q),
(142,512,o),
(142,504,o),
(142,494,o),
(142,486,o),
(142,486,q),
(214,486,o),
(299,438,o),
(299,394,qs),
(299,348,o),
(237,299,o),
(194,299,qs),
(157,299,o),
(92,340,o),
(72,371,q),
(72,371,o),
(64,365,o),
(54,357,o),
(46,351,o),
(46,351,q),
(67,320,o),
(143,270,o),
(192,270,qs),
(231,270,o)
);
},
{
closed = 1;
nodes = (
(257,-24,o),
(270,-24,o),
(281,-24,o),
(281,-24,q),
(281,-24,o),
(315,39,o),
(373,145,o),
(445,278,o),
(521,419,o),
(593,552,o),
(651,658,o),
(685,721,o),
(685,721,q),
(685,721,o),
(674,721,o),
(661,721,o),
(650,721,o),
(650,721,q),
(650,721,o),
(616,658,o),
(558,552,o),
(486,419,o),
(410,278,o),
(338,145,o),
(280,39,o),
(246,-24,o),
(246,-24,q),
(246,-24,o)
);
},
{
closed = 1;
nodes = (
(709,-11,o),
(721,-11,o),
(730,-11,o),
(730,-11,q),
(730,-11,o),
(730,35,o),
(730,111,o),
(730,202,o),
(730,292,o),
(730,368,o),
(730,414,o),
(730,414,q),
(730,414,o),
(725,414,o),
(718,414,o),
(711,414,o),
(706,414,o),
(706,414,q),
(706,414,o),
(677,374,o),
(632,310,o),
(582,239,o),
(537,175,o),
(508,135,o),
(508,135,q),
(508,135,o),
(508,130,o),
(508,123,o),
(508,118,o),
(508,118,q),
(508,118,o),
(549,118,o),
(614,118,o),
(688,118,o),
(753,118,o),
(794,118,o),
(794,118,q),
(794,118,o),
(794,126,o),
(794,138,o),
(794,146,o),
(794,146,q),
(794,146,o),
(759,146,o),
(704,146,o),
(642,146,o),
(587,146,o),
(552,146,o),
(552,146,q),
(552,146,o),
(569,171,o),
(594,207,o),
(620,243,o),
(637,268,o),
(637,268,q),
(637,268,o),
(656,296,o),
(681,332,o),
(700,360,o),
(700,360,q),
(700,360,o),
(704,360,o),
(704,360,q),
(704,360,o),
(703,326,o),
(701,282,o),
(700,248,o),
(700,248,q),
(700,248,o),
(700,211,o),
(700,152,o),
(700,85,o),
(700,26,o),
(700,-11,o),
(700,-11,q),
(700,-11,o)
);
}
);
width = 848;
},
{
layerId = "2B284C16-EA14-4761-8C41-B0F9D88443D8";
shapes = (
{
closed = 1;
nodes = (
(332,305,o),
(381,367,o),
(381,407,qs),
(381,445,o),
(337,499,o),
(304,514,q),
(334,532,o),
(365,581,o),
(365,615,qs),
(365,653.294,o),
(322,708,o),
(251,738,o),
(209,738,qs),
(156,738,o),
(80,701,o),
(42,661,q),
(42,661,o),
(65,641,o),
(95,616,o),
(118,596,o),
(118,596,q),
(132,613,o),
(165,638,o),
(185,638,qs),
(207.917,638,o),
(235,616,o),
(235,596,qs),
(235,570,o),
(190,546,o),
(153,546,q),
(153,546,o),
(153,524,o),
(153,494,o),
(153,472,o),
(153,472,q),
(203,472,o),
(251,443.826,o),
(251,418,qs),
(251,396,o),
(217,371,o),
(192,371,qs),
(166,371,o),
(124,395,o),
(104,423,q),
(104,423,o),
(80,404,o),
(48,380,o),
(24,361,o),
(24,361,q),
(54,316,o),
(149,270,o),
(206.909,270,qs),
(253,270,o)
);
},
{
closed = 1;
nodes = (
(264,-25,o),
(305,-25,o),
(336,-25,o),
(336,-25,q),
(336,-25,o),
(369,39,o),
(425.792,147.74,o),
(496.292,284.178,o),
(570.708,428.822,o),
(641.208,565.26,o),
(698,674,o),
(731,738,o),
(731,738,q),
(731,738,o),
(700,738,o),
(658,738,o),
(627,738,o),
(627,738,q),
(627,738,o),
(594,674,o),
(538,565,o),
(467.309,428.732,o),
(392.691,284.268,o),
(322,148,o),
(266,39,o),
(233,-25,o),
(233,-25,q),
(233,-25,o)
);
},
{
closed = 1;
nodes = (
(778,-11,o),
(824,-11,o),
(860,-11,o),
(860,-11,q),
(860,-11,o),
(860,36.508,o),
(860,115,o),
(860,210.022,o),
(860,304,o),
(860,382.492,o),
(860,430,o),
(860,430,q),
(860,430,o),
(826,430,o),
(776.5,430,o),
(727,430,o),
(693,430,o),
(693,430,q),
(693,430,o),
(671,389,o),
(635.643,324.678,o),
(596.357,253.322,o),
(561,189,o),
(539,148,o),
(539,148,q),
(539,148,o),
(539,128,o),
(539,103,o),
(539,83,o),
(539,83,q),
(539,83,o),
(594.698,83,o),
(683,83,o),
(781,83,o),
(869.302,83,o),
(925,83,o),
(925,83,q),
(925,83,o),
(925,109,o),
(925,143,o),
(925,169,o),
(925,169,q),
(925,169,o),
(886.674,169,o),
(826.446,169,o),
(758.554,169,o),
(698.326,169,o),
(660,169,o),
(660,169,q),
(660,169,o),
(668,187,o),
(681,213,o),
(693.698,238.377,o),
(702,256,o),
(702,256,q),
(702,256,o),
(714.968,282.174,o),
(732.032,315.826,o),
(745,342,o),
(745,342,q),
(745,342,o),
(749,342,o),
(749,342,q),
(749,342,o),
(747.25,301.018,o),
(743.75,247.982,o),
(742,207,o),
(742,207,q),
(742,207,o),
(742,176,o),
(742,126.302,o),
(742,69.865,o),
(742,20.167,o),
(742,-11,o),
(742,-11,q),
(742,-11,o)
);
}
);
width = 930;
}
);
note = uni00BE;
unicode = 190;
}
{
glyphname = questiondown;
kernLeft = questiondown;
kernRight = questiondown;
layers = (
{
layerId = m01;
shapes = (
{
closed = 1;
nodes = (
(359,-185,o),
(390,-151,q),
(390,-151,o),
(383,-145,o),
(375,-137,o),
(368,-131,o),
(368,-131,q),
(340,-165,o),
(263,-203,o),
(222,-203,qs),
(177,-203,o),
(119,-164,o),
(92,-102,o),
(92,-68,qs),
(92,-25,o),
(129,45,o),
(181,110,o),
(230,181,o),
(258,267,o),
(251,323,q),
(251,323,o),
(245,323,o),
(236,323,o),
(226,323,o),
(220,323,o),
(220,323,q),
(227,271,o),
(198,189,o),
(147,118,o),
(94,50,o),
(57,-25,o),
(57,-70,qs),
(57,-114,o),
(95,-189,o),
(168,-233,o),
(220,-233,qs),
(276,-233,o)
);
},
{
closed = 1;
nodes = (
(270,460,o),
(270,482,qs),
(270,502,o),
(246,523,o),
(231,523,qs),
(216,523,o),
(192,502,o),
(192,482,qs),
(192,460,o),
(216,438,o),
(231,438,qs),
(246,438,o)
);
}
);
width = 429;
},
{
layerId = "2B284C16-EA14-4761-8C41-B0F9D88443D8";
shapes = (
{
closed = 1;
nodes = (
(445,-160,o),
(486,-114,q),
(486,-114,o),
(456,-86,o),
(416,-50,o),
(386,-22,o),
(386,-22,q),
(364,-44,o),
(319,-72,o),
(289,-72,qs),
(270,-72,o),
(239,-58,o),
(220,-30,o),
(220,-9,qs),
(220,14,o),
(252,60,o),
(299,109,o),
(343,167,o),
(367,238,o),
(360,283,q),
(360,283,o),
(328,283,o),
(280,283,o),
(233,283,o),
(201,283,o),
(201,283,q),
(205,244,o),
(176,185,o),
(129,134,o),
(80,82,o),
(46,20,o),
(46,-21,qs),
(46,-90,o),
(104,-178,o),
(204,-219,o),
(266,-219,qs),
(334,-219,o)
);
},
{
closed = 1;
nodes = (
(390,406,o),
(390,453,qs),
(390,501,o),
(328,565,o),
(281,565,qs),
(235,565,o),
(174,501,o),
(174,453,qs),
(174,406,o),
(235,342,o),
(281,342,qs),
(328,342,o)
);
}
);
width = 533;
}
);
note = uni00BF;
unicode = 191;
}
{
glyphname = Agrave;
kernLeft = A;
kernRight = A;
layers = (
{
layerId = m01;
shapes = (
{
closed = 1;
nodes = (
(18,-11,o),
(29,-11,o),
(39,-11,o),
(46,-11,o),
(46,-11,q),
(46,-11,o),
(62,36,o),
(90,113,o),
(122,205,o),
(154,297,o),
(182,374,o),
(198,421,o),
(198,421,q),
(221,486,o),
(262,604,o),
(281,671,q),
(281,671,o),
(286,671,o),
(286,671,q),
(306,604,o),
(346,486,o),
(368,421,q),
(368,421,o),
(384,374,o),
(411,297,o),
(444,205,o),
(476,113,o),
(503,36,o),
(519,-11,o),
(519,-11,q),
(519,-11,o),
(526,-11,o),
(538,-11,o),
(549,-11,o),
(556,-11,o),
(556,-11,q),
(556,-11,o),
(534,50,o),
(498,152,o),
(452,280,o),
(403,417,o),
(357,545,o),
(321,647,o),
(299,708,o),
(299,708,q),
(299,708,o),
(293,708,o),
(284,708,o),
(274,708,o),
(268,708,o),
(268,708,q),
(268,708,o),
(246,647,o),
(210,545,o),
(164,417,o),
(115,280,o),
(69,152,o),
(33,50,o),
(11,-11,o),
(11,-11,q),
(11,-11,o)
);
},
{
closed = 1;
nodes = (
(168,246,o),
(241,246,o),
(322,246,o),
(395,246,o),
(441,246,o),
(441,246,q),
(441,246,o),
(441,252,o),
(441,261,o),
(441,271,o),
(441,277,o),
(441,277,q),
(441,277,o),
(395,277,o),
(322,277,o),
(241,277,o),
(168,277,o),
(122,277,o),
(122,277,q),
(122,277,o),
(122,271,o),
(122,262,o),
(122,252,o),
(122,246,o),
(122,246,q),
(122,246,o)
);
},
{
closed = 1;
nodes = (
(328,763,o),
(340,763,o),
(352,763,o),
(360,763,o),
(360,763,q),
(360,763,o),
(329,789,o),
(284,829,o),
(238,868,o),
(207,894,o),
(207,894,q),
(207,894,o),
(196,894,o),
(181,894,o),
(166,894,o),
(155,894,o),
(155,894,q),
(155,894,o),
(153,889,o),
(153,889,q),
(153,889,o),
(177,871,o),
(215,842,o),
(258,810,o),
(296,781,o),
(320,763,o),
(320,763,q),
(320,763,o)
);
}
);
width = 567;
},
{
layerId = "2B284C16-EA14-4761-8C41-B0F9D88443D8";
shapes = (
{
closed = 1;
nodes = (
(28,-11,o),
(84,-11,o),
(138.706,-11,o),
(177,-11,o),
(177,-11,q),
(177,-11,o),
(187,28,o),
(203.333,93.154,o),
(222,171,o),
(240.667,248.846,o),
(257,314,o),
(266.846,352.607,o),
(266.846,352.607,q),
(281,406,o),
(308,530,o),
(321,588,q),
(321,588,o),
(324.8,588,o),
(324.8,588,q),
(340,531,o),
(368,406,o),
(381.895,352.607,q),
(381.895,352.607,o),
(392,314,o),
(407.655,248.846,o),
(426.79,171,o),
(445.345,93.154,o),
(461,28,o),
(471,-11,o),
(471,-11,q),
(471,-11,o),
(510,-11,o),
(568,-11,o),
(625,-11,o),
(664,-11,o),
(664,-11,q),
(664,-11,o),
(645,51,o),
(612,156,o),
(571.872,286.931,o),
(529.128,427.069,o),
(489,558,o),
(456,663,o),
(437,725,o),
(437,725,q),
(437,725,o),
(393,725,o),
(327,725,o),
(261,725,o),
(217,725,o),
(217,725,q),
(217,725,o),
(198,663,o),
(165,558,o),
(124.872,427.069,o),
(82.128,286.931,o),
(42,156,o),
(9,51,o),
(-10,-11,o),
(-10,-11,q),
(-10,-11,o)
);
},
{
closed = 1;
nodes = (
(200,153,o),
(281,153,o),
(371.72,153,o),
(453.48,153,o),
(505,153,o),
(505,153,q),
(505,153,o),
(505,181.4,o),
(505,224,o),
(505,266,o),
(505,294,o),
(505,294,q),
(505,294,o),
(453,294,o),
(372,294,o),
(281.28,294,o),
(199.52,294,o),
(148,294,o),
(148,294,q),
(148,294,o),
(148,266,o),
(148,224,o),
(148,181,o),
(148,153,o),
(148,153,q),
(148,153,o)
);
},
{
closed = 1;
nodes = (
(306,781,o),
(351,781,o),
(396,781,o),
(426,781,o),
(426,781,q),
(426,781,o),
(398,817,o),
(357,870,o),
(315.779,923.4,o),
(288,959,o),
(288,959,q),
(288,959,o),
(247,959,o),
(186.5,959,o),
(126,959,o),
(85,959,o),
(85,959,q),
(85,959,o),
(75,939,o),
(75,939,q),
(75,939,o),
(103.886,916.429,o),
(149.623,880.063,o),
(201.377,839.937,o),
(247.114,803.571,o),
(276,781,o),
(276,781,q),
(276,781,o)
);
}
);
width = 654;
}
);
note = uni00C0;
unicode = 192;
}
{
glyphname = Ccedilla;
kernLeft = C;
kernRight = C;
layers = (
{
layerId = m01;
shapes = (
{
closed = 1;
nodes = (
(528,31,o),
(569,78,q),
(569,78,o),
(565,82,o),
(559,88,o),
(552,93,o),
(548,97,o),
(548,97,q),
(508,51,o),
(417,9,o),
(360,9,qs),
(279,9,o),
(162,94,o),
(98,248,o),
(98,351,qs),
(98,455,o),
(162,606,o),
(281,689,o),
(364,689,qs),
(413,689,o),
(496,649,o),
(525,615,q),
(525,615,o),
(529,619,o),
(536,626,o),
(543,632,o),
(547,636,o),
(547,636,q),
(519,671,o),
(425,721,o),
(364,721,qs),
(295,721,o),
(184,670,o),
(104,573,o),
(61,436,o),
(61,351,qs),
(61,266,o),
(104,128,o),
(183,29,o),
(292,-24,o),
(358,-24,qs),
(429,-24,o)
);
},
{
closed = 1;
nodes = (
(440,-198,o),
(440,-157,qs),
(440,-124,o),
(399,-91,o),
(364,-83,q),
(364,-83,o),
(374,-61,o),
(387,-31,o),
(397,-9,o),
(397,-9,q),
(397,-9,o),
(388,-9,o),
(375,-9,o),
(366,-9,o),
(366,-9,q),
(366,-9,o),
(353,-37,o),
(336,-75,o),
(323,-103,o),
(323,-103,q),
(367,-109,o),
(408,-135,o),
(408,-159,qs),
(408,-184,o),
(355,-213,o),
(283,-218,q),
(283,-218,o),
(285,-226,o),
(288,-238,o),
(290,-246,o),
(290,-246,q),
(364,-241,o)
);
}
);
width = 613;
},
{
layerId = "2B284C16-EA14-4761-8C41-B0F9D88443D8";
shapes = (
{
closed = 1;
nodes = (
(587,27,o),
(636,82,q),
(636,82,o),
(618,104,o),
(591,136,o),
(563,168,o),
(545,190,o),
(545,190,q),
(521,167,o),
(456,134,o),
(415,134,qs),
(363,134,o),
(283,186,o),
(238,286,o),
(238,357,qs),
(238,426,o),
(285,526,o),
(362,580,o),
(407,580,qs),
(445,580,o),
(505,555,o),
(532,530,q),
(532,530,o),
(551,552,o),
(580,586,o),
(609,619,o),
(628,641,o),
(628,641,q),
(590,682,o),
(474,738,o),
(402,738,qs),
(333,738,o),
(206,686,o),
(108,587,o),
(51,444,o),
(51,352,qs),
(51,258,o),
(107,117,o),
(204,22,o),
(331,-25,o),
(402,-25,qs),
(470,-25,o)
);
},
{
closed = 1;
nodes = (
(506,-224,o),
(506,-165,qs),
(506,-129,o),
(463,-89,o),
(419,-79,q),
(419,-79,o),
(429,-57,o),
(441,-28,o),
(451,-6,o),
(451,-6,q),
(451,-6,o),
(419,-6,o),
(378,-6,o),
(346,-6,o),
(346,-6,q),
(346,-6,o),
(329,-40,o),
(307,-84,o),
(290,-118,o),
(290,-118,q),
(342,-125,o),
(376,-148,o),
(376,-165,qs),
(376,-188,o),
(327,-210,o),
(262,-213,q),
(262,-213,o),
(266,-234,o),
(271,-263,o),
(275,-284,o),
(275,-284,q),
(384,-281,o)
);
}
);
width = 660;
}
);
note = uni00C7;
unicode = 199;
}
{
glyphname = Igrave;
kernRight = I;
layers = (
{
layerId = m01;
shapes = (
{
closed = 1;
nodes = (
(116,-11,o),
(127,-11,o),
(137,-11,o),
(144,-11,o),
(144,-11,q),
(144,-11,o),
(144,50,o),
(144,152,o),
(144,280,o),
(144,417,o),
(144,545,o),
(144,647,o),
(144,708,o),
(144,708,q),
(144,708,o),
(137,708,o),
(126,708,o),
(116,708,o),
(109,708,o),
(109,708,q),
(109,708,o),
(109,647,o),
(109,545,o),
(109,417,o),
(109,280,o),
(109,152,o),
(109,50,o),
(109,-11,o),
(109,-11,q),
(109,-11,o)
);
},
{
closed = 1;
nodes = (
(172,763,o),
(184,763,o),
(195,763,o),
(203,763,o),
(203,763,q),
(203,763,o),
(172,789,o),
(127,829,o),
(81,868,o),
(50,894,o),
(50,894,q),
(50,894,o),
(39,894,o),
(24,894,o),
(9,894,o),
(-2,894,o),
(-2,894,q),
(-2,894,o),
(-4,889,o),
(-4,889,q),
(-4,889,o),
(20,871,o),
(59,842,o),
(101,810,o),
(140,781,o),
(164,763,o),
(164,763,q),
(164,763,o)
);
}
);
width = 253;
},
{
layerId = "2B284C16-EA14-4761-8C41-B0F9D88443D8";
shapes = (
{
closed = 1;
nodes = (
(121,-11,o),
(176,-11,o),
(229.529,-11,o),
(267,-11,o),
(267,-11,q),
(267,-11,o),
(267,51.467,o),
(267,155.921,o),
(267,287,o),
(267,427.201,o),
(267,558.192,o),
(267,662.575,o),
(267,725,o),
(267,725,q),
(267,725,o),
(230,725,o),
(175,725,o),
(121.471,725,o),
(84,725,o),
(84,725,q),
(84,725,o),
(84,662.533,o),
(84,558.079,o),
(84,427,o),
(84,286.799,o),
(84,155.808,o),
(84,51.425,o),
(84,-11,o),
(84,-11,q),
(84,-11,o)
);
},
{
closed = 1;
nodes = (
(158,781,o),
(203,781,o),
(248,781,o),
(278,781,o),
(278,781,q),
(278,781,o),
(250,817,o),
(209,870,o),
(167.779,923.4,o),
(140,959,o),
(140,959,q),
(140,959,o),
(99,959,o),
(38.5,959,o),
(-22,959,o),
(-63,959,o),
(-63,959,q),
(-63,959,o),
(-73,939,o),
(-73,939,q),
(-73,939,o),
(-44,916,o),
(2.475,879.911,o),
(52.525,840.089,o),
(99,804,o),
(128,781,o),
(128,781,q),
(128,781,o)
);
}
);
width = 350;
}
);
note = uni00CC;
unicode = 204;
}
{
glyphname = Iacute;
kernRight = I;
layers = (
{
layerId = m01;
shapes = (
{
closed = 1;
nodes = (
(116,-11,o),
(127,-11,o),
(137,-11,o),
(144,-11,o),
(144,-11,q),
(144,-11,o),
(144,50,o),
(144,152,o),
(144,280,o),
(144,417,o),
(144,545,o),
(144,647,o),
(144,708,o),
(144,708,q),
(144,708,o),
(137,708,o),
(126,708,o),
(116,708,o),
(109,708,o),
(109,708,q),
(109,708,o),
(109,647,o),
(109,545,o),
(109,417,o),
(109,280,o),
(109,152,o),
(109,50,o),
(109,-11,o),
(109,-11,q),
(109,-11,o)
);
},
{
closed = 1;
nodes = (
(58,763,o),
(70,763,o),
(81,763,o),
(89,763,o),
(89,763,q),
(89,763,o),
(113,781,o),
(152,810,o),
(194,842,o),
(233,871,o),
(257,889,o),
(257,889,q),
(257,889,o),
(255,894,o),
(255,894,q),
(255,894,o),
(244,894,o),
(229,894,o),
(214,894,o),
(203,894,o),
(203,894,q),
(203,894,o),
(172,868,o),
(127,829,o),
(81,789,o),
(50,763,o),
(50,763,q),
(50,763,o)
);
}
);
width = 253;
},
{
layerId = "2B284C16-EA14-4761-8C41-B0F9D88443D8";
shapes = (
{
closed = 1;
nodes = (
(121,-11,o),
(176,-11,o),
(229.529,-11,o),
(267,-11,o),
(267,-11,q),
(267,-11,o),
(267,51.467,o),
(267,155.921,o),
(267,287,o),
(267,427.201,o),
(267,558.192,o),
(267,662.575,o),
(267,725,o),
(267,725,q),
(267,725,o),
(230,725,o),
(175,725,o),
(121.471,725,o),
(84,725,o),
(84,725,q),
(84,725,o),
(84,662.533,o),
(84,558.079,o),
(84,427,o),
(84,286.799,o),
(84,155.808,o),
(84,51.425,o),
(84,-11,o),
(84,-11,q),
(84,-11,o)
);
},
{
closed = 1;
nodes = (
(107,781,o),
(152,781,o),
(197,781,o),
(227,781,o),
(227,781,q),
(227,781,o),
(256,804,o),
(302.475,840.089,o),
(352.525,879.911,o),
(399,916,o),
(428,939,o),
(428,939,q),
(428,939,o),
(418,959,o),
(418,959,q),
(418,959,o),
(377,959,o),
(316.5,959,o),
(256,959,o),
(215,959,o),
(215,959,q),
(215,959,o),
(186.855,923.4,o),
(146,870,o),
(105,817,o),
(77,781,o),
(77,781,q),
(77,781,o)
);
}
);
width = 350;
}
);
note = uni00CD;
unicode = 205;
}
{
glyphname = Icircumflex;
kernRight = I;
layers = (
{
layerId = m01;
shapes = (
{
closed = 1;
nodes = (
(116,-11,o),
(127,-11,o),
(137,-11,o),
(144,-11,o),
(144,-11,q),
(144,-11,o),
(144,50,o),
(144,152,o),
(144,280,o),
(144,417,o),
(144,545,o),
(144,647,o),
(144,708,o),
(144,708,q),
(144,708,o),
(137,708,o),
(126,708,o),
(116,708,o),
(109,708,o),
(109,708,q),
(109,708,o),
(109,647,o),
(109,545,o),
(109,417,o),
(109,280,o),
(109,152,o),
(109,50,o),
(109,-11,o),
(109,-11,q),
(109,-11,o)
);
},
{
closed = 1;
nodes = (
(-30,763,o),
(-18,763,o),
(-7,763,o),
(0,763,o),
(0,763,q),
(0,763,o),
(25,783,o),
(62,812,o),
(99,841,o),
(124,861,o),
(124,861,q),
(124,861,o),
(129,861,o),
(129,861,q),
(129,861,o),
(154,841,o),
(191,812,o),
(228,783,o),
(253,763,o),
(253,763,q),
(253,763,o),
(260,763,o),
(272,763,o),
(283,763,o),
(290,763,o),
(290,763,q),
(290,763,o),
(259,789,o),
(214,829,o),
(168,868,o),
(137,894,o),
(137,894,q),
(137,894,o),
(133,894,o),
(127,894,o),
(120,894,o),
(116,894,o),
(116,894,q),
(116,894,o),
(85,868,o),
(39,829,o),
(-6,789,o),
(-37,763,o),
(-37,763,q),
(-37,763,o)
);
}
);
width = 253;
},
{
layerId = "2B284C16-EA14-4761-8C41-B0F9D88443D8";
shapes = (
{
closed = 1;
nodes = (
(121,-11,o),
(176,-11,o),
(229.529,-11,o),
(267,-11,o),
(267,-11,q),
(267,-11,o),
(267,51.467,o),
(267,155.921,o),
(267,287,o),
(267,427.201,o),
(267,558.192,o),
(267,662.575,o),
(267,725,o),
(267,725,q),
(267,725,o),
(230,725,o),
(175,725,o),
(121.471,725,o),
(84,725,o),
(84,725,q),
(84,725,o),
(84,662.533,o),
(84,558.079,o),
(84,427,o),
(84,286.799,o),
(84,155.808,o),
(84,51.425,o),
(84,-11,o),
(84,-11,q),
(84,-11,o)
);
},
{
closed = 1;
nodes = (
(-38,781,o),
(4,781,o),
(45,781,o),
(73,781,o),
(73,781,q),
(73,781,o),
(94,796,o),
(124,819,o),
(154,842,o),
(175,857,o),
(175,857,q),
(175,857,o),
(180,857,o),
(180,857,q),
(180,857,o),
(200,842,o),
(230.5,819,o),
(261,796,o),
(281,781,o),
(281,781,q),
(281,781,o),
(309,781,o),
(351,781,o),
(392,781,o),
(420,781,o),
(420,781,q),
(420,781,o),
(390,817,o),
(346,870,o),
(301.792,923.4,o),
(272,959,o),
(272,959,q),
(272,959,o),
(234,959,o),
(177,959,o),
(120,959,o),
(82,959,o),
(82,959,q),
(82,959,o),
(52.208,923.4,o),
(8,870,o),
(-36,817,o),
(-66,781,o),
(-66,781,q),
(-66,781,o)
);
}
);
width = 350;
}
);
note = uni00CE;
unicode = 206;
}
{
glyphname = Eth;
kernRight = D;
layers = (
{
layerId = m01;
shapes = (
{
closed = 1;
nodes = (
(71,357,o),
(145,357,o),
(228,357,o),
(302,357,o),
(349,357,o),
(349,357,q),
(349,357,o),
(349,366,o),
(349,379,o),
(349,388,o),
(349,388,q),
(349,388,o),
(318,388,o),
(269,388,o),
(213,388,o),
(164,388,o),
(133,388,o),
(133,388,q),
(133,388,o),
(100,387,o),
(57,385,o),
(24,384,o),
(24,384,q),
(24,384,o),
(24,376,o),
(24,365,o),
(24,357,o),
(24,357,q),
(24,357,o)
);
},
{
closed = 1;
nodes = (
(164,-11,o),
(212,-11,o),
(259,-11,o),
(292,-11,o),
(292,-11,q),
(403,-11,o),
(546,81,o),
(615,244,o),
(615,351,qs),
(615,458,o),
(546,619,o),
(403,708,o),
(292,708,q),
(292,708,o),
(259,708,o),
(212,708,o),
(164,708,o),
(131,708,o),
(131,708,q),
(131,708,o),
(131,647,o),
(131,545,o),
(131,417,o),
(131,280,o),
(131,152,o),
(131,50,o),
(131,-11,o),
(131,-11,q),
(131,-11,o)
);
},
{
closed = 1;
nodes = (
(166,75,o),
(166,169,o),
(166,287,o),
(166,411,o),
(166,529,o),
(166,623,o),
(166,678,o),
(166,678,q),
(166,678,o),
(203,678,o),
(251,678,o),
(288,678,o),
(288,678,q),
(391,678,o),
(518,594,o),
(578,446,o),
(578,351,qs),
(578,256,o),
(518,106,o),
(391,20,o),
(288,20,q),
(288,20,o),
(251,20,o),
(203,20,o),
(166,20,o),
(166,20,q),
(166,20,o)
);
}
);
width = 676;
},
{
layerId = "2B284C16-EA14-4761-8C41-B0F9D88443D8";
shapes = (
{
closed = 1;
nodes = (
(84,308,o),
(175.036,308,o),
(277.144,308,o),
(368.18,308,o),
(426,308,o),
(426,308,q),
(426,308,o),
(426,345,o),
(426,392,o),
(426,429,o),
(426,429,q),
(426,429,o),
(380.275,429,o),
(308,429,o),
(228,429,o),
(155.725,429,o),
(110,429,o),
(110,429,q),
(110,429,o),
(84.569,427.25,o),
(51.431,423.75,o),
(26,422,o),
(26,422,q),
(26,422,o),
(26,388.222,o),
(26,341.778,o),
(26,308,o),
(26,308,q),
(26,308,o)
);
},
{
closed = 1;
nodes = (
(152,-11,o),
(219,-11,o),
(286,-11,o),
(331,-11,o),
(331,-11,q),
(438,-11,o),
(602,67,o),
(695,231,o),
(695,360,qs),
(695,489,o),
(601,650,o),
(433,725,o),
(321,725,q),
(321,725,o),
(278,725,o),
(214,725,o),
(150,725,o),
(107,725,o),
(107,725,q),
(107,725,o),
(107,662.533,o),
(107,558.079,o),
(107,427,o),
(107,286.799,o),
(107,155.808,o),
(107,51.425,o),
(107,-11,o),
(107,-11,q),
(107,-11,o)
);
},
{
closed = 1;
nodes = (
(290,172.955,o),
(290,236.114,o),
(290,315.399,o),
(290,398.715,o),
(290,478,o),
(290,541.087,o),
(290,578,o),
(290,578,q),
(290,578,o),
(296.066,578,o),
(303.934,578,o),
(310,578,o),
(310,578,q),
(367,578,o),
(456,542,o),
(507,447,o),
(507,360.5,qs),
(507,274,o),
(456,176,o),
(367,136,o),
(310,136,q),
(310,136,o),
(303.934,136,o),
(296.066,136,o),
(290,136,o),
(290,136,q),
(290,136,o)
);
}
);
width = 746;
}
);
note = uni00D0;
unicode = 208;
}
{
glyphname = Ograve;
kernLeft = C;
kernRight = D;
layers = (
{
layerId = m01;
shapes = (
{
closed = 1;
nodes = (
(570,69,o),
(645,237,o),
(645,351,qs),
(645,465,o),
(570,631,o),
(438,721,o),
(353,721,qs),
(268,721,o),
(136,631,o),
(61,465,o),
(61,351,qs),
(61,237,o),
(136,69,o),
(268,-24,o),
(353,-24,qs),
(438,-24,o)
);
},
{
closed = 1;
nodes = (
(162,94,o),
(98,248,o),
(98,351,qs),
(98,455,o),
(162,606,o),
(277,689,o),
(353,689,qs),
(430,689,o),
(544,606,o),
(608,455,o),
(608,351,qs),
(608,248,o),
(544,94,o),
(430,9,o),
(353,9,qs),
(277,9,o)
);
},
{
closed = 1;
nodes = (
(398,763,o),
(410,763,o),
(421,763,o),
(429,763,o),
(429,763,q),
(429,763,o),
(398,789,o),
(353,829,o),
(308,868,o),
(277,894,o),
(277,894,q),
(277,894,o),
(266,894,o),
(251,894,o),
(236,894,o),
(225,894,o),
(225,894,q),
(225,894,o),
(222,889,o),
(222,889,q),
(222,889,o),
(246,871,o),
(285,842,o),
(327,810,o),
(366,781,o),
(390,763,o),
(390,763,q),
(390,763,o)
);
}
);
width = 706;
},
{
layerId = "2B284C16-EA14-4761-8C41-B0F9D88443D8";
shapes = (
{
closed = 1;
nodes = (
(643,67,o),
(728,240,o),
(728,360,qs),
(728,480,o),
(643,649,o),
(490,738,o),
(389.5,738,qs),
(289,738,o),
(136,649,o),
(51,481,o),
(51,360.5,qs),
(51,240,o),
(136,67,o),
(289,-25,o),
(389.5,-25,qs),
(490,-25,o)
);
},
{
closed = 1;
nodes = (
(275,189,o),
(238,291,o),
(238,360.164,qs),
(238,430,o),
(275,528,o),
(343,580,o),
(389.196,580,qs),
(436,580,o),
(504,528,o),
(540,430,o),
(540,360,qs),
(540,291.467,o),
(504,189,o),
(436,134,o),
(389.196,134,qs),
(343,134,o)
);
},
{
closed = 1;
nodes = (
(369,781,o),
(414,781,o),
(459,781,o),
(489,781,o),
(489,781,q),
(489,781,o),
(461,817,o),
(420,870,o),
(379.145,923.4,o),
(351,959,o),
(351,959,q),
(351,959,o),
(310,959,o),
(249.5,959,o),
(189,959,o),
(148,959,o),
(148,959,q),
(148,959,o),
(138,939,o),
(138,939,q),
(138,939,o),
(167,916,o),
(213.475,879.911,o),
(263.525,840.089,o),
(310,804,o),
(339,781,o),
(339,781,q),
(339,781,o)
);
}
);
width = 779;
}
);
note = uni00D2;
unicode = 210;
}
{
glyphname = Oacute;
kernLeft = C;
kernRight = D;
layers = (
{
layerId = m01;
shapes = (
{
closed = 1;
nodes = (
(570,69,o),
(645,237,o),
(645,351,qs),
(645,465,o),
(570,631,o),
(438,721,o),
(353,721,qs),
(268,721,o),
(136,631,o),
(61,465,o),
(61,351,qs),
(61,237,o),
(136,69,o),
(268,-24,o),
(353,-24,qs),
(438,-24,o)
);
},
{
closed = 1;
nodes = (
(162,94,o),
(98,248,o),
(98,351,qs),
(98,455,o),
(162,606,o),
(277,689,o),
(353,689,qs),
(430,689,o),
(544,606,o),
(608,455,o),
(608,351,qs),
(608,248,o),
(544,94,o),
(430,9,o),
(353,9,qs),
(277,9,o)
);
},
{
closed = 1;
nodes = (
(285,763,o),
(297,763,o),
(308,763,o),
(316,763,o),
(316,763,q),
(316,763,o),
(340,781,o),
(379,810,o),
(421,842,o),
(460,871,o),
(484,889,o),
(484,889,q),
(484,889,o),
(482,894,o),
(482,894,q),
(482,894,o),
(471,894,o),
(456,894,o),
(440,894,o),
(429,894,o),
(429,894,q),
(429,894,o),
(398,868,o),
(353,829,o),
(308,789,o),
(277,763,o),
(277,763,q),
(277,763,o)
);
}
);
width = 706;
},
{
layerId = "2B284C16-EA14-4761-8C41-B0F9D88443D8";
shapes = (
{
closed = 1;
nodes = (
(643,67,o),
(728,240,o),
(728,360,qs),
(728,480,o),
(643,649,o),
(490,738,o),
(389.5,738,qs),
(289,738,o),
(136,649,o),
(51,481,o),
(51,360.5,qs),
(51,240,o),
(136,67,o),
(289,-25,o),
(389.5,-25,qs),
(490,-25,o)
);
},
{
closed = 1;
nodes = (
(275,189,o),
(238,291,o),
(238,360.164,qs),
(238,430,o),
(275,528,o),
(343,580,o),
(389.196,580,qs),
(436,580,o),
(504,528,o),
(540,430,o),
(540,360,qs),
(540,291.467,o),
(504,189,o),
(436,134,o),
(389.196,134,qs),
(343,134,o)
);
},
{
closed = 1;
nodes = (
(318,781,o),
(363,781,o),
(408,781,o),
(438,781,o),
(438,781,q),
(438,781,o),
(467,804,o),
(513,840,o),
(565,880,o),
(611,916,o),
(640,939,o),
(640,939,q),
(640,939,o),
(629,959,o),
(629,959,q),
(629,959,o),
(588,959,o),
(527,959,o),
(467.148,959,o),
(426,959,o),
(426,959,q),
(426,959,o),
(397.855,923.4,o),
(357,870,o),
(316,817,o),
(288,781,o),
(288,781,q),
(288,781,o)
);
}
);
width = 779;
}
);
note = uni00D3;
unicode = 211;
}
{
glyphname = Otilde;
kernLeft = C;
kernRight = D;
layers = (
{
layerId = m01;
shapes = (
{
closed = 1;
nodes = (
(570,69,o),
(645,237,o),
(645,351,qs),
(645,465,o),
(570,631,o),
(438,721,o),
(353,721,qs),
(268,721,o),
(136,631,o),
(61,465,o),
(61,351,qs),
(61,237,o),
(136,69,o),
(268,-24,o),
(353,-24,qs),
(438,-24,o)
);
},
{
closed = 1;
nodes = (
(162,94,o),
(98,248,o),
(98,351,qs),
(98,455,o),
(162,606,o),
(277,689,o),
(353,689,qs),
(430,689,o),
(544,606,o),
(608,455,o),
(608,351,qs),
(608,248,o),
(544,94,o),
(430,9,o),
(353,9,qs),
(277,9,o)
);
},
{
closed = 1;
nodes = (
(526,845,o),
(528,892,q),
(528,892,o),
(520,893,o),
(509,893,o),
(501,894,o),
(501,894,q),
(497,854,o),
(464,807,o),
(438,807,qs),
(414,807,o),
(379,834,o),
(344,869,o),
(300,896,o),
(268,896,qs),
(225,896,o),
(181,827,o),
(179,780,q),
(179,780,o),
(187,779,o),
(197,779,o),
(205,778,o),
(205,778,q),
(208,817,o),
(243,865,o),
(268,865,qs),
(292,865,o),
(327,838,o),
(362,803,o),
(406,776,o),
(438,776,qs),
(481,776,o)
);
}
);
width = 706;
},
{
layerId = "2B284C16-EA14-4761-8C41-B0F9D88443D8";
shapes = (
{
closed = 1;
nodes = (
(643,67,o),
(728,240,o),
(728,360,qs),
(728,480,o),
(643,649,o),
(490,738,o),
(389,738,qs),
(289,738,o),
(136,649,o),
(51,481,o),
(51,360,qs),
(51,240,o),
(136,67,o),
(289,-25,o),
(389,-25,qs),
(490,-25,o)
);
},
{
closed = 1;
nodes = (
(275,189,o),
(238,291,o),
(238,360,qs),
(238,430,o),
(275,528,o),
(343,580,o),
(389,580,qs),
(436,580,o),
(504,528,o),
(540,430,o),
(540,360,qs),
(540,291,o),
(504,189,o),
(436,134,o),
(389,134,qs),
(343,134,o)
);
},
{
closed = 1;
nodes = (
(613,845,o),
(618,935,q),
(618,935,o),
(583,938,o),
(536,941,o),
(501,944,o),
(501,944,q),
(497,914,o),
(476,893,o),
(462,893,qs),
(449,893,o),
(421,911,o),
(385,936,o),
(338,954,o),
(308,954,qs),
(248,954,o),
(164,877,o),
(159,787,q),
(159,787,o),
(195,784,o),
(241,781,o),
(277,778,o),
(277,778,q),
(280,807,o),
(301,829,o),
(315,829,qs),
(328,829,o),
(357,811,o),
(393,786,o),
(439,768,o),
(469,768,qs),
(529,768,o)
);
}
);
width = 779;
}
);
note = uni00D5;
unicode = 213;
}
{
glyphname = multiply;
layers = (
{
layerId = m01;
shapes = (
{
closed = 1;
nodes = (
(104,166,o),
(145,209,o),
(190,257,o),
(231,300,o),
(257,327,o),
(257,327,q),
(257,327,o),
(283,300,o),
(324,257,o),
(369,209,o),
(410,166,o),
(436,139,o),
(436,139,q),
(436,139,o),
(443,146,o),
(451,156,o),
(458,163,o),
(458,163,q),
(458,163,o),
(432,190,o),
(391,232,o),
(346,280,o),
(305,322,o),
(279,349,o),
(279,349,q),
(279,349,o),
(305,376,o),
(346,418,o),
(391,465,o),
(432,507,o),
(458,534,o),
(458,534,q),
(458,534,o),
(451,541,o),
(443,551,o),
(436,558,o),
(436,558,q),
(436,558,o),
(410,531,o),
(369,488,o),
(324,441,o),
(283,398,o),
(257,371,o),
(257,371,q),
(257,371,o),
(231,398,o),
(190,441,o),
(145,488,o),
(104,531,o),
(78,558,o),
(78,558,q),
(78,558,o),
(72,551,o),
(63,541,o),
(57,534,o),
(57,534,q),
(57,534,o),
(83,507,o),
(123,465,o),
(169,418,o),
(209,376,o),
(235,349,o),
(235,349,q),
(235,349,o),
(209,322,o),
(169,280,o),
(123,232,o),
(83,190,o),
(57,163,o),
(57,163,q),
(57,163,o),
(63,156,o),
(72,146,o),
(78,139,o),
(78,139,q),
(78,139,o)
);
}
);
width = 514;
},
{
layerId = "2B284C16-EA14-4761-8C41-B0F9D88443D8";
shapes = (
{
closed = 1;
nodes = (
(167.95,133.835,o),
(204.14,170.202,o),
(243.86,210.798,o),
(280.05,247.165,o),
(303,270,o),
(303,270,q),
(303,270,o),
(326,247,o),
(361,211,o),
(402,170,o),
(437,134,o),
(460,111,o),
(460,111,q),
(460,111,o),
(487,139,o),
(524,175,o),
(551,203,o),
(551,203,q),
(551,203,o),
(528.05,225.935,o),
(491.86,261.613,o),
(452.14,302.387,o),
(415.95,338.065,o),
(393,361,o),
(393,361,q),
(393,361,o),
(415.95,384.059,o),
(452.14,419.93,o),
(491.86,460.07,o),
(528.05,495.941,o),
(551,519,o),
(551,519,q),
(551,519,o),
(524,547,o),
(487,583,o),
(460,611,o),
(460,611,q),
(460,611,o),
(437,588,o),
(402,551,o),
(361,511,o),
(326,474,o),
(303,451,o),
(303,451,q),
(303,451,o),
(280.05,474.102,o),
(243.86,510.893,o),
(204.14,551.107,o),
(167.95,587.898,o),
(145,611,o),
(145,611,q),
(145,611,o),
(117,583,o),
(81,547,o),
(53,519,o),
(53,519,q),
(53,519,o),
(76.079,495.941,o),
(111.584,460.07,o),
(152.416,419.93,o),
(187.921,384.059,o),
(211,361,o),
(211,361,q),
(211,361,o),
(187.758,337.913,o),
(152,302,o),
(112,262,o),
(76.242,226.087,o),
(53,203,o),
(53,203,q),
(53,203,o),
(81,175,o),
(117,139,o),
(145,111,o),
(145,111,q),
(145,111,o)
);
}
);
width = 605;
}
);
note = uni00D7;
unicode = 215;
}
{
glyphname = Ugrave;
kernLeft = U;
kernRight = U;
layers = (
{
layerId = m01;
shapes = (
{
closed = 1;
nodes = (
(470,2,o),
(539,65,o),
(580,174,o),
(580,257,q),
(580,257,o),
(580,306,o),
(580,386,o),
(580,482,o),
(580,579,o),
(580,659,o),
(580,708,o),
(580,708,q),
(580,708,o),
(573,708,o),
(564,708,o),
(554,708,o),
(547,708,o),
(547,708,q),
(547,708,o),
(547,660,o),
(547,581,o),
(547,487,o),
(547,393,o),
(547,314,o),
(547,266,o),
(547,266,q),
(547,167,o),
(489,55,o),
(396,9,o),
(342,9,qs),
(290,9,o),
(199,55,o),
(142,167,o),
(142,266,q),
(142,266,o),
(142,314,o),
(142,393,o),
(142,487,o),
(142,581,o),
(142,660,o),
(142,708,o),
(142,708,q),
(142,708,o),
(135,708,o),
(125,708,o),
(114,708,o),
(107,708,o),
(107,708,q),
(107,708,o),
(107,659,o),
(107,579,o),
(107,483,o),
(107,386,o),
(107,306,o),
(107,257,o),
(107,257,q),
(107,174,o),
(147,65,o),
(215,2,o),
(299,-24,o),
(342,-24,qs),
(386,-24,o)
);
},
{
closed = 1;
nodes = (
(387,763,o),
(399,763,o),
(411,763,o),
(419,763,o),
(419,763,q),
(419,763,o),
(388,789,o),
(343,829,o),
(297,868,o),
(266,894,o),
(266,894,q),
(266,894,o),
(255,894,o),
(240,894,o),
(225,894,o),
(214,894,o),
(214,894,q),
(214,894,o),
(211,889,o),
(211,889,q),
(211,889,o),
(235,871,o),
(274,842,o),
(316,810,o),
(355,781,o),
(379,763,o),
(379,763,q),
(379,763,o)
);
}
);
width = 687;
},
{
layerId = "2B284C16-EA14-4761-8C41-B0F9D88443D8";
shapes = (
{
closed = 1;
nodes = (
(567,17,o),
(640,104,o),
(677,237,o),
(677,328,q),
(677,328,o),
(677,371.12,o),
(677,441.52,o),
(677,526,o),
(677,611.412,o),
(677,681.854,o),
(677,725,o),
(677,725,q),
(677,725,o),
(641,725,o),
(589,725,o),
(537.235,725,o),
(501,725,o),
(501,725,q),
(501,725,o),
(501,679.715,o),
(501,605.183,o),
(501,516.5,o),
(501,427.817,o),
(501,353.285,o),
(501,308,o),
(501,308,q),
(501,244,o),
(473,167,o),
(420,134,o),
(379.755,134,qs),
(341,134,o),
(288,167,o),
(262,244,o),
(262,308,q),
(262,308,o),
(262,353.176,o),
(262,427.529,o),
(262,516,o),
(262,604.896,o),
(262,679.606,o),
(262,725,o),
(262,725,q),
(262,725,o),
(225,725,o),
(170,725,o),
(116,725,o),
(79,725,o),
(79,725,q),
(79,725,o),
(79,681.867,o),
(79,611.446,o),
(79,526.94,o),
(79,441.554,o),
(79,371.133,o),
(79,328,o),
(79,328,q),
(79,237,o),
(117,104,o),
(193,17,o),
(305,-25,o),
(380,-25,qs),
(455,-25,o)
);
},
{
closed = 1;
nodes = (
(358,781,o),
(403,781,o),
(448,781,o),
(478,781,o),
(478,781,q),
(478,781,o),
(450,817,o),
(409,870,o),
(367.779,923.4,o),
(340,959,o),
(340,959,q),
(340,959,o),
(299,959,o),
(238.5,959,o),
(178,959,o),
(137,959,o),
(137,959,q),
(137,959,o),
(127,939,o),
(127,939,q),
(127,939,o),
(156,916,o),
(202.475,879.911,o),
(252.525,840.089,o),
(299,804,o),
(328,781,o),
(328,781,q),
(328,781,o)
);
}
);
width = 756;
}
);
note = uni00D9;
unicode = 217;
}
{
glyphname = Uacute;
kernLeft = U;
kernRight = U;
layers = (
{
layerId = m01;
shapes = (
{
closed = 1;
nodes = (
(470,2,o),
(539,65,o),
(580,174,o),
(580,257,q),
(580,257,o),
(580,306,o),
(580,386,o),
(580,482,o),
(580,579,o),
(580,659,o),
(580,708,o),
(580,708,q),
(580,708,o),
(573,708,o),
(564,708,o),
(554,708,o),
(547,708,o),
(547,708,q),
(547,708,o),
(547,660,o),
(547,581,o),
(547,487,o),
(547,393,o),
(547,314,o),
(547,266,o),
(547,266,q),
(547,167,o),
(489,55,o),
(396,9,o),
(342,9,qs),
(290,9,o),
(199,55,o),
(142,167,o),
(142,266,q),
(142,266,o),
(142,314,o),
(142,393,o),
(142,487,o),
(142,581,o),
(142,660,o),
(142,708,o),
(142,708,q),
(142,708,o),
(135,708,o),
(125,708,o),
(114,708,o),
(107,708,o),
(107,708,q),
(107,708,o),
(107,659,o),
(107,579,o),
(107,483,o),
(107,386,o),
(107,306,o),
(107,257,o),
(107,257,q),
(107,174,o),
(147,65,o),
(215,2,o),
(299,-24,o),
(342,-24,qs),
(386,-24,o)
);
},
{
closed = 1;
nodes = (
(274,763,o),
(286,763,o),
(297,763,o),
(305,763,o),
(305,763,q),
(305,763,o),
(329,781,o),
(368,810,o),
(410,842,o),
(449,871,o),
(473,889,o),
(473,889,q),
(473,889,o),
(471,894,o),
(471,894,q),
(471,894,o),
(460,894,o),
(445,894,o),
(430,894,o),
(419,894,o),
(419,894,q),
(419,894,o),
(388,868,o),
(343,829,o),
(297,789,o),
(266,763,o),
(266,763,q),
(266,763,o)
);
}
);
width = 687;
},
{
layerId = "2B284C16-EA14-4761-8C41-B0F9D88443D8";
shapes = (
{
closed = 1;
nodes = (
(567,17,o),
(640,104,o),
(677,237,o),
(677,328,q),
(677,328,o),
(677,371.12,o),
(677,441.52,o),
(677,526,o),
(677,611.412,o),
(677,681.854,o),
(677,725,o),
(677,725,q),
(677,725,o),
(641,725,o),
(589,725,o),
(537.235,725,o),
(501,725,o),
(501,725,q),
(501,725,o),
(501,679.715,o),
(501,605.183,o),
(501,516.5,o),
(501,427.817,o),
(501,353.285,o),
(501,308,o),
(501,308,q),
(501,244,o),
(473,167,o),
(420,134,o),
(379.755,134,qs),
(341,134,o),
(288,167,o),
(262,244,o),
(262,308,q),
(262,308,o),
(262,353.176,o),
(262,427.529,o),
(262,516,o),
(262,604.896,o),
(262,679.606,o),
(262,725,o),
(262,725,q),
(262,725,o),
(225,725,o),
(170,725,o),
(116,725,o),
(79,725,o),
(79,725,q),
(79,725,o),
(79,681.867,o),
(79,611.446,o),
(79,526.94,o),
(79,441.554,o),
(79,371.133,o),
(79,328,o),
(79,328,q),
(79,237,o),
(117,104,o),
(193,17,o),
(305,-25,o),
(380,-25,qs),
(455,-25,o)
);
},
{
closed = 1;
nodes = (
(307,781,o),
(352,781,o),
(397,781,o),
(427,781,o),
(427,781,q),
(427,781,o),
(456,804,o),
(502.475,840.089,o),
(552.525,879.911,o),
(599,916,o),
(628,939,o),
(628,939,q),
(628,939,o),
(618,959,o),
(618,959,q),
(618,959,o),
(577,959,o),
(516.5,959,o),
(456,959,o),
(415,959,o),
(415,959,q),
(415,959,o),
(386.855,923.4,o),
(346,870,o),
(305,817,o),
(277,781,o),
(277,781,q),
(277,781,o)
);
}
);
width = 756;
}
);
note = uni00DA;
unicode = 218;
}
{
glyphname = Ucircumflex;
kernLeft = U;
kernRight = U;
layers = (
{
layerId = m01;
shapes = (
{
closed = 1;
nodes = (
(470,2,o),
(539,65,o),
(580,174,o),
(580,257,q),
(580,257,o),
(580,306,o),
(580,386,o),
(580,482,o),
(580,579,o),
(580,659,o),
(580,708,o),
(580,708,q),
(580,708,o),
(573,708,o),
(564,708,o),
(554,708,o),
(547,708,o),
(547,708,q),
(547,708,o),
(547,660,o),
(547,581,o),
(547,487,o),
(547,393,o),
(547,314,o),
(547,266,o),
(547,266,q),
(547,167,o),
(489,55,o),
(396,9,o),
(342,9,qs),
(290,9,o),
(199,55,o),
(142,167,o),
(142,266,q),
(142,266,o),
(142,314,o),
(142,393,o),
(142,487,o),
(142,581,o),
(142,660,o),
(142,708,o),
(142,708,q),
(142,708,o),
(135,708,o),
(125,708,o),
(114,708,o),
(107,708,o),
(107,708,q),
(107,708,o),
(107,659,o),
(107,579,o),
(107,483,o),
(107,386,o),
(107,306,o),
(107,257,o),
(107,257,q),
(107,174,o),
(147,65,o),
(215,2,o),
(299,-24,o),
(342,-24,qs),
(386,-24,o)
);
},
{
closed = 1;
nodes = (
(186,763,o),
(198,763,o),
(209,763,o),
(216,763,o),
(216,763,q),
(216,763,o),
(241,783,o),
(278,812,o),
(315,841,o),
(340,861,o),
(340,861,q),
(340,861,o),
(344,861,o),
(344,861,q),
(344,861,o),
(369,841,o),
(407,812,o),
(444,783,o),
(469,763,o),
(469,763,q),
(469,763,o),
(476,763,o),
(488,763,o),
(499,763,o),
(506,763,o),
(506,763,q),
(506,763,o),
(475,789,o),
(430,829,o),
(384,868,o),
(353,894,o),
(353,894,q),
(353,894,o),
(349,894,o),
(342,894,o),
(335,894,o),
(331,894,o),
(331,894,q),
(331,894,o),
(300,868,o),
(255,829,o),
(210,789,o),
(179,763,o),
(179,763,q),
(179,763,o)
);
}
);
width = 687;
},
{
layerId = "2B284C16-EA14-4761-8C41-B0F9D88443D8";
shapes = (
{
closed = 1;
nodes = (
(567,17,o),
(640,104,o),
(677,237,o),
(677,328,q),
(677,328,o),
(677,371.12,o),
(677,441.52,o),
(677,526,o),
(677,611.412,o),
(677,681.854,o),
(677,725,o),
(677,725,q),
(677,725,o),
(641,725,o),
(589,725,o),
(537.235,725,o),
(501,725,o),
(501,725,q),
(501,725,o),
(501,679.715,o),
(501,605.183,o),
(501,516.5,o),
(501,427.817,o),
(501,353.285,o),
(501,308,o),
(501,308,q),
(501,244,o),
(473,167,o),
(420,134,o),
(379.755,134,qs),
(341,134,o),
(288,167,o),
(262,244,o),
(262,308,q),
(262,308,o),
(262,353.176,o),
(262,427.529,o),
(262,516,o),
(262,604.896,o),
(262,679.606,o),
(262,725,o),
(262,725,q),
(262,725,o),
(225,725,o),
(170,725,o),
(116,725,o),
(79,725,o),
(79,725,q),
(79,725,o),
(79,681.867,o),
(79,611.446,o),
(79,526.94,o),
(79,441.554,o),
(79,371.133,o),
(79,328,o),
(79,328,q),
(79,237,o),
(117,104,o),
(193,17,o),
(305,-25,o),
(380,-25,qs),
(455,-25,o)
);
},
{
closed = 1;
nodes = (
(162,781,o),
(203,781,o),
(245,781,o),
(273,781,o),
(273,781,q),
(273,781,o),
(294,796,o),
(324,819,o),
(354,842,o),
(375,857,o),
(375,857,q),
(375,857,o),
(380,857,o),
(380,857,q),
(380,857,o),
(400,842,o),
(430.907,819,o),
(461,796,o),
(481,781,o),
(481,781,q),
(481,781,o),
(509,781,o),
(551,781,o),
(592,781,o),
(620,781,o),
(620,781,q),
(620,781,o),
(590,817,o),
(546,870,o),
(501.792,923.4,o),
(472,959,o),
(472,959,q),
(472,959,o),
(434,959,o),
(377.5,959,o),
(321,959,o),
(283,959,o),
(283,959,q),
(283,959,o),
(252.816,923.4,o),
(209,870,o),
(164,817,o),
(134,781,o),
(134,781,q),
(134,781,o)
);
}
);
width = 756;
}
);
note = uni00DB;
unicode = 219;
}
{
glyphname = Yacute;
kernLeft = Y;
kernRight = Y;
layers = (
{
layerId = m01;
shapes = (
{
closed = 1;
nodes = (
(227,-11,o),
(238,-11,o),
(248,-11,o),
(255,-11,o),
(255,-11,q),
(255,-11,o),
(255,32,o),
(255,99,o),
(255,175,o),
(255,242,o),
(255,285,o),
(255,285,q),
(255,285,o),
(278,331,o),
(317,406,o),
(363,497,o),
(409,587,o),
(448,662,o),
(471,708,o),
(471,708,q),
(471,708,o),
(464,708,o),
(454,708,o),
(443,708,o),
(436,708,o),
(436,708,q),
(436,708,o),
(419,674,o),
(393,621,o),
(363,562,o),
(337,509,o),
(320,475,o),
(320,475,q),
(302,436,o),
(261,360,o),
(240,320,q),
(240,320,o),
(235,320,o),
(235,320,q),
(214,360,o),
(177,436,o),
(157,475,q),
(157,475,o),
(140,509,o),
(114,562,o),
(84,621,o),
(58,674,o),
(41,708,o),
(41,708,q),
(41,708,o),
(34,708,o),
(22,708,o),
(11,708,o),
(4,708,o),
(4,708,q),
(4,708,o),
(27,662,o),
(66,587,o),
(112,497,o),
(158,406,o),
(197,331,o),
(220,285,o),
(220,285,q),
(220,285,o),
(220,242,o),
(220,175,o),
(220,99,o),
(220,32,o),
(220,-11,o),
(220,-11,q),
(220,-11,o)
);
},
{
closed = 1;
nodes = (
(172,763,o),
(184,763,o),
(195,763,o),
(203,763,o),
(203,763,q),
(203,763,o),
(227,781,o),
(266,810,o),
(308,842,o),
(347,871,o),
(371,889,o),
(371,889,q),
(371,889,o),
(368,894,o),
(368,894,q),
(368,894,o),
(357,894,o),
(342,894,o),
(327,894,o),
(316,894,o),
(316,894,q),
(316,894,o),
(285,868,o),
(240,829,o),
(195,789,o),
(164,763,o),
(164,763,q),
(164,763,o)
);
}
);
width = 475;
},
{
layerId = "2B284C16-EA14-4761-8C41-B0F9D88443D8";
shapes = (
{
closed = 1;
nodes = (
(248,-11,o),
(303,-11,o),
(356.529,-11,o),
(394,-11,o),
(394,-11,q),
(394,-11,o),
(394,26.334,o),
(394,84.507,o),
(394,150.493,o),
(394,208.666,o),
(394,246,o),
(394,246,q),
(394,246,o),
(417.742,298.083,o),
(458,383,o),
(505,485,o),
(552,588,o),
(592.258,672.917,o),
(616,725,o),
(616,725,q),
(616,725,o),
(576.882,725,o),
(521,725,o),
(464,725,o),
(425,725,o),
(425,725,q),
(425,725,o),
(416,702,o),
(403,665.061,o),
(388,623.939,o),
(375,587,o),
(366,564,o),
(366,564,q),
(351,523,o),
(322,444,o),
(306,400,q),
(306,400,o),
(302.154,400,o),
(302.154,400,q),
(286,444,o),
(258,523,o),
(244,564,q),
(244,564,o),
(235,587,o),
(222,623.939,o),
(207,665.061,o),
(194,702,o),
(185,725,o),
(185,725,q),
(185,725,o),
(146,725,o),
(87,725,o),
(29,725,o),
(-10,725,o),
(-10,725,q),
(-10,725,o),
(14,673,o),
(53,588,o),
(101,486,o),
(147.541,382.94,o),
(187,298,o),
(211,246,o),
(211,246,q),
(211,246,o),
(211,208.666,o),
(211,150.493,o),
(211,84.507,o),
(211,26.334,o),
(211,-11,o),
(211,-11,q),
(211,-11,o)
);
},
{
closed = 1;
nodes = (
(230,781,o),
(275,781,o),
(320,781,o),
(350,781,o),
(350,781,q),
(350,781,o),
(379,804,o),
(425.475,840.089,o),
(475.525,879.911,o),
(522,916,o),
(551,939,o),
(551,939,q),
(551,939,o),
(541,959,o),
(541,959,q),
(541,959,o),
(500,959,o),
(439.5,959,o),
(379,959,o),
(338,959,o),
(338,959,q),
(338,959,o),
(309.855,923.4,o),
(269,870,o),
(228,817,o),
(200,781,o),
(200,781,q),
(200,781,o)
);
}
);
width = 606;
}
);
note = uni00DD;
unicode = 221;
}
{
glyphname = Thorn;
kernRight = Thorn;
layers = (
{
layerId = m01;
shapes = (
{
closed = 1;
nodes = (
(116,-11,o),
(127,-11,o),
(137,-11,o),
(144,-11,o),
(144,-11,q),
(144,-11,o),
(144,27,o),
(144,83,o),
(144,138,o),
(144,176,o),
(144,176,q),
(144,176,o),
(175,176,o),
(220,176,o),
(265,176,o),
(296,176,o),
(296,176,q),
(377,176,o),
(490,221,o),
(549,313,o),
(549,381,qs),
(549,453,o),
(490,540,o),
(377,578,o),
(296,578,q),
(296,578,o),
(265,578,o),
(220,578,o),
(175,578,o),
(144,578,o),
(144,578,q),
(144,578,o),
(144,617,o),
(144,669,o),
(144,708,o),
(144,708,q),
(144,708,o),
(137,708,o),
(126,708,o),
(116,708,o),
(109,708,o),
(109,708,q),
(109,708,o),
(109,647,o),
(109,545,o),
(109,417,o),
(109,280,o),
(109,152,o),
(109,50,o),
(109,-11,o),
(109,-11,q),
(109,-11,o)
);
},
{
closed = 1;
nodes = (
(144,256,o),
(144,334,o),
(144,420,o),
(144,498,o),
(144,547,o),
(144,547,q),
(144,547,o),
(172,547,o),
(213,547,o),
(255,547,o),
(283,547,o),
(283,547,q),
(399,547,o),
(512,476,o),
(512,381,qs),
(512,288,o),
(399,207,o),
(283,207,q),
(283,207,o),
(255,207,o),
(214,207,o),
(172,207,o),
(144,207,o),
(144,207,q),
(144,207,o)
);
}
);
width = 606;
},
{
layerId = "2B284C16-EA14-4761-8C41-B0F9D88443D8";
shapes = (
{
closed = 1;
nodes = (
(121,-11,o),
(176,-11,o),
(229.529,-11,o),
(267,-11,o),
(267,-11,q),
(267,-11,o),
(267,15,o),
(267,54.856,o),
(267,94,o),
(267,120,o),
(267,120,q),
(267,120,o),
(286.375,120,o),
(314.5,120,o),
(342.625,120,o),
(362,120,o),
(362,120,q),
(439,120,o),
(572,174,o),
(653,286,o),
(653,374,qs),
(653,466,o),
(574,571,o),
(442,616,o),
(362,616,q),
(362,616,o),
(342.625,616,o),
(314.5,616,o),
(286.375,616,o),
(267,616,o),
(267,616,q),
(267,616,o),
(267,648.7,o),
(267,692.3,o),
(267,725,o),
(267,725,q),
(267,725,o),
(230,725,o),
(175,725,o),
(121.471,725,o),
(84,725,o),
(84,725,q),
(84,725,o),
(84,662.533,o),
(84,558.079,o),
(84,427,o),
(84,286.799,o),
(84,155.808,o),
(84,51.425,o),
(84,-11,o),
(84,-11,q),
(84,-11,o)
);
},
{
closed = 1;
nodes = (
(267,295.636,o),
(267,342.811,o),
(267,394.825,o),
(267,442,o),
(267,472,o),
(267,472,q),
(267,472,o),
(284.324,472,o),
(309.691,472,o),
(335.676,472,o),
(353,472,o),
(353,472,q),
(412,472,o),
(475,428,o),
(475,374.436,qs),
(475,322,o),
(414.799,266,o),
(353,266,q),
(353,266,o),
(335.595,266,o),
(310.108,266,o),
(284,266,o),
(267,266,o),
(267,266,q),
(267,266,o)
);
}
);
width = 706;
}
);
note = uni00DE;
unicode = 222;
}
{
glyphname = germandbls;
kernRight = germandbls;
layers = (
{
layerId = m01;
shapes = (
{
closed = 1;
nodes = (
(505,15,o),
(545,82,o),
(545,124,qs),
(545,170,o),
(513,230,o),
(462,268,o),
(406,296,o),
(355,326,o),
(323,368,o),
(323,401,qs),
(323,429,o),
(348,473,o),
(384,515,o),
(420,559,o),
(445,611,o),
(445,645,qs),
(445,686,o),
(408,750,o),
(339,787,o),
(292,787,qs),
(237,787,o),
(152,736,o),
(105,642,o),
(105,575,q),
(105,575,o),
(105,512,o),
(105,407,o),
(105,282,o),
(105,157,o),
(105,52,o),
(105,-11,o),
(105,-11,q),
(105,-11,o),
(111,-11,o),
(121,-11,o),
(131,-11,o),
(137,-11,o),
(137,-11,q),
(137,-11,o),
(137,51,o),
(137,153,o),
(137,275,o),
(137,396,o),
(137,498,o),
(137,560,o),
(137,560,q),
(137,661,o),
(221,756,o),
(290,756,qs),
(349,756,o),
(410,692,o),
(410,643,qs),
(410,613,o),
(385,566,o),
(349,525,o),
(313,482,o),
(288,432,o),
(288,399,qs),
(288,359,o),
(320,309,o),
(371,275,o),
(427,247,o),
(478,213,o),
(510,162,o),
(510,122,qs),
(510,93,o),
(484,39,o),
(432,6,o),
(392,6,qs),
(356,6,o),
(295,29,o),
(266,54,q),
(266,54,o),
(260,48,o),
(252,39,o),
(246,33,o),
(246,33,q),
(276,3,o),
(350,-24,o),
(392,-24,qs),
(436,-24,o)
);
}
);
width = 578;
},
{
layerId = "2B284C16-EA14-4761-8C41-B0F9D88443D8";
shapes = (
{
closed = 1;
nodes = (
(651,26,o),
(699,113,o),
(699,165,qs),
(699,208,o),
(673,268,o),
(633,309,o),
(587,338,o),
(547,362,o),
(521,387,o),
(521,404,qs),
(521,420,o),
(539,448,o),
(567,479,o),
(594,515,o),
(612,564,o),
(612,596,qs),
(612,645,o),
(553,733,o),
(441,789,o),
(359,789,qs),
(263,789,o),
(134,720,o),
(69,602,o),
(69,528,q),
(69,528,o),
(69,470,o),
(69,373,o),
(69,259,o),
(69,144,o),
(69,47,o),
(69,-11,o),
(69,-11,q),
(69,-11,o),
(106,-11,o),
(160,-11,o),
(213,-11,o),
(250,-11,o),
(250,-11,q),
(250,-11,o),
(250,45,o),
(250,138,o),
(250,248,o),
(250,359,o),
(250,452,o),
(250,508,o),
(250,508,q),
(250,573,o),
(309,648,o),
(359,648,qs),
(392,648,o),
(437,606,o),
(437,574,qs),
(437,550,o),
(420,512,o),
(396,479,o),
(372,445,o),
(355,405,o),
(355,380,qs),
(355,344,o),
(381,292,o),
(421,255,o),
(467,227,o),
(507,203,o),
(533,175,o),
(533,156,qs),
(533,143,o),
(519,122,o),
(495,110,o),
(478,110,qs),
(453,110,o),
(400,123,o),
(372,140,q),
(372,140,o),
(354,107,o),
(332,63,o),
(314,30,o),
(314,30,q),
(356,-1,o),
(439,-25,o),
(485,-25,qs),
(556,-25,o)
);
}
);
width = 729;
}
);
note = uni00DF;
unicode = 223;
}
{
glyphname = agrave;
kernLeft = a;
kernRight = a;
layers = (
{
layerId = m01;
shapes = (
{
closed = 1;
nodes = (
(365,26,o),
(405,59,q),
(405,59,o),
(408,59,o),
(408,59,q),
(408,59,o),
(409,38,o),
(411,10,o),
(412,-11,o),
(412,-11,q),
(412,-11,o),
(418,-11,o),
(426,-11,o),
(434,-11,o),
(440,-11,o),
(440,-11,q),
(440,-11,o),
(440,38,o),
(440,115,o),
(440,201,o),
(440,278,o),
(440,327,o),
(440,327,q),
(440,380,o),
(411,469,o),
(342,523,o),
(281,523,qs),
(239,523,o),
(164,500,o),
(108,469,o),
(92,456,q),
(92,456,o),
(97,449,o),
(104,439,o),
(109,432,o),
(109,432,q),
(134,450,o),
(224,493,o),
(279,493,qs),
(334,493,o),
(390,439,o),
(409,357,o),
(408,314,q),
(231,295,o),
(65,204,o),
(65,117,qs),
(65,67,o),
(107,5,o),
(176,-24,o),
(216,-24,qs),
(269,-24,o)
);
},
{
closed = 1;
nodes = (
(100,57,o),
(100,118,qs),
(100,163,o),
(159,228,o),
(294,272,o),
(408,285,q),
(408,285,o),
(408,247,o),
(408,190,o),
(408,134,o),
(408,96,o),
(408,96,q),
(356,52,o),
(265,6,o),
(218,6,qs),
(171,6,o)
);
},
{
closed = 1;
nodes = (
(334,610,o),
(344,610,o),
(353,610,o),
(360,610,o),
(360,610,q),
(360,610,o),
(329,643,o),
(284,692,o),
(238,741,o),
(207,774,o),
(207,774,q),
(207,774,o),
(199,774,o),
(186,774,o),
(174,774,o),
(166,774,o),
(166,774,q),
(166,774,o),
(164,769,o),
(164,769,q),
(164,769,o),
(188,746,o),
(225,710,o),
(266,669,o),
(303,633,o),
(327,610,o),
(327,610,q),
(327,610,o)
);
}
);
width = 530;
},
{
layerId = "2B284C16-EA14-4761-8C41-B0F9D88443D8";
shapes = (
{
closed = 1;
nodes = (
(337,14,o),
(372,44,q),
(372,44,o),
(376,44,o),
(376,44,q),
(376,44,o),
(380,27,o),
(386,6,o),
(390,-11,o),
(390,-11,q),
(390,-11,o),
(420,-11,o),
(464,-11,o),
(508,-11,o),
(538,-11,o),
(538,-11,q),
(538,-11,o),
(538,34.811,o),
(538,106.799,o),
(538,187.201,o),
(538,259.189,o),
(538,305,o),
(538,305,q),
(538,395,o),
(483,510,o),
(381,565,o),
(308,565,qs),
(264,565,o),
(180,547,o),
(101,515,o),
(63,492,q),
(63,492,o),
(83,456,o),
(108,410,o),
(128,374,o),
(128,374,q),
(170,397,o),
(240,421,o),
(272,421,qs),
(300,421,o),
(335,405,o),
(354,376,o),
(356,354,q),
(192,336,o),
(44,236,o),
(44,147,qs),
(44,100,o),
(85,22,o),
(161,-25,o),
(214,-25,qs),
(260,-25,o)
);
},
{
closed = 1;
nodes = (
(219,140,o),
(219,162,qs),
(219,180,o),
(244,212,o),
(304,236,o),
(356,243,q),
(356,243,o),
(356,226.202,o),
(356,201.004,o),
(356,176.249,o),
(356,159.451,o),
(356,159.451,q),
(337,140,o),
(302,117,o),
(276,117,qs),
(250,117,o)
);
},
{
closed = 1;
nodes = (
(305,633,o),
(347,633,o),
(388,633,o),
(416,633,o),
(416,633,q),
(416,633,o),
(389.895,675.659,o),
(352,739,o),
(314,801,o),
(288,844,o),
(288,844,q),
(288,844,o),
(249,844,o),
(192,844,o),
(136,844,o),
(97,844,o),
(97,844,q),
(97,844,o),
(86,825,o),
(86,825,q),
(86,825,o),
(113.934,797.322,o),
(157,754,o),
(206,704,o),
(249.066,660.678,o),
(277,633,o),
(277,633,q),
(277,633,o)
);
}
);
width = 601;
}
);
note = uni00E0;
unicode = 224;
}
